%TF.GenerationSoftware,KiCad,Pcbnew,8.0.5-dirty*%
%TF.CreationDate,2025-03-26T08:57:07-07:00*%
%TF.ProjectId,yorp,796f7270-2e6b-4696-9361-645f70636258,rev?*%
%TF.SameCoordinates,Original*%
%TF.FileFunction,Drillmap*%
%TF.FilePolarity,Positive*%
%FSLAX45Y45*%
G04 Gerber Fmt 4.5, Leading zero omitted, Abs format (unit mm)*
G04 Created by KiCad (PCBNEW 8.0.5-dirty) date 2025-03-26 08:57:07*
%MOMM*%
%LPD*%
G01*
G04 APERTURE LIST*
%ADD10C,0.050000*%
%ADD11C,0.200000*%
%ADD12C,0.100000*%
G04 APERTURE END LIST*
D10*
X7307500Y-7939000D02*
X9582500Y-7939000D01*
X9582500Y-9163000D01*
X7307500Y-9163000D01*
X7307500Y-7939000D01*
D11*
D12*
X7410000Y-9065000D02*
X7440000Y-9095000D01*
X7440000Y-9065000D02*
X7410000Y-9095000D01*
X7420000Y-8045000D02*
X7450000Y-8075000D01*
X7450000Y-8045000D02*
X7420000Y-8075000D01*
X7535000Y-8935000D02*
X7565000Y-8965000D01*
X7565000Y-8935000D02*
X7535000Y-8965000D01*
X7535000Y-9065000D02*
X7565000Y-9095000D01*
X7565000Y-9065000D02*
X7535000Y-9095000D01*
X7545000Y-8045000D02*
X7575000Y-8075000D01*
X7575000Y-8045000D02*
X7545000Y-8075000D01*
X7615000Y-8115000D02*
X7645000Y-8145000D01*
X7645000Y-8115000D02*
X7615000Y-8145000D01*
X7655000Y-8410000D02*
X7685000Y-8440000D01*
X7685000Y-8410000D02*
X7655000Y-8440000D01*
X7660000Y-8935000D02*
X7690000Y-8965000D01*
X7690000Y-8935000D02*
X7660000Y-8965000D01*
X7660000Y-9065000D02*
X7690000Y-9095000D01*
X7690000Y-9065000D02*
X7660000Y-9095000D01*
X7670000Y-8045000D02*
X7700000Y-8075000D01*
X7700000Y-8045000D02*
X7670000Y-8075000D01*
X7785000Y-8335000D02*
X7815000Y-8365000D01*
X7815000Y-8335000D02*
X7785000Y-8365000D01*
X7785000Y-9065000D02*
X7815000Y-9095000D01*
X7815000Y-9065000D02*
X7785000Y-9095000D01*
X7795000Y-8045000D02*
X7825000Y-8075000D01*
X7825000Y-8045000D02*
X7795000Y-8075000D01*
X7795000Y-8460000D02*
X7825000Y-8490000D01*
X7825000Y-8460000D02*
X7795000Y-8490000D01*
X7880000Y-8750000D02*
X7910000Y-8780000D01*
X7910000Y-8750000D02*
X7880000Y-8780000D01*
X7910000Y-9065000D02*
X7940000Y-9095000D01*
X7940000Y-9065000D02*
X7910000Y-9095000D01*
X7922500Y-8335000D02*
X7952500Y-8365000D01*
X7952500Y-8335000D02*
X7922500Y-8365000D01*
X7935000Y-8045000D02*
X7965000Y-8075000D01*
X7965000Y-8045000D02*
X7935000Y-8075000D01*
X8005000Y-8635000D02*
X8035000Y-8665000D01*
X8035000Y-8635000D02*
X8005000Y-8665000D01*
X8005000Y-8750000D02*
X8035000Y-8780000D01*
X8035000Y-8750000D02*
X8005000Y-8780000D01*
X8035000Y-9065000D02*
X8065000Y-9095000D01*
X8065000Y-9065000D02*
X8035000Y-9095000D01*
X8037500Y-8155000D02*
X8067500Y-8185000D01*
X8067500Y-8155000D02*
X8037500Y-8185000D01*
X8037500Y-8232500D02*
X8067500Y-8262500D01*
X8067500Y-8232500D02*
X8037500Y-8262500D01*
X8095000Y-8045000D02*
X8125000Y-8075000D01*
X8125000Y-8045000D02*
X8095000Y-8075000D01*
X8160000Y-9065000D02*
X8190000Y-9095000D01*
X8190000Y-9065000D02*
X8160000Y-9095000D01*
X8222500Y-8045000D02*
X8252500Y-8075000D01*
X8252500Y-8045000D02*
X8222500Y-8075000D01*
X8235000Y-8510000D02*
X8265000Y-8540000D01*
X8265000Y-8510000D02*
X8235000Y-8540000D01*
X8245000Y-8635000D02*
X8275000Y-8665000D01*
X8275000Y-8635000D02*
X8245000Y-8665000D01*
X8245000Y-8750000D02*
X8275000Y-8780000D01*
X8275000Y-8750000D02*
X8245000Y-8780000D01*
X8285000Y-9065000D02*
X8315000Y-9095000D01*
X8315000Y-9065000D02*
X8285000Y-9095000D01*
X8347500Y-8045000D02*
X8377500Y-8075000D01*
X8377500Y-8045000D02*
X8347500Y-8075000D01*
X8355000Y-8155000D02*
X8385000Y-8185000D01*
X8385000Y-8155000D02*
X8355000Y-8185000D01*
X8410000Y-9065000D02*
X8440000Y-9095000D01*
X8440000Y-9065000D02*
X8410000Y-9095000D01*
X8462500Y-8187500D02*
X8492500Y-8217500D01*
X8492500Y-8187500D02*
X8462500Y-8217500D01*
X8472500Y-8420000D02*
X8502500Y-8450000D01*
X8502500Y-8420000D02*
X8472500Y-8450000D01*
X8477500Y-8637500D02*
X8507500Y-8667500D01*
X8507500Y-8637500D02*
X8477500Y-8667500D01*
X8477500Y-8752500D02*
X8507500Y-8782500D01*
X8507500Y-8752500D02*
X8477500Y-8782500D01*
X8485000Y-8045000D02*
X8515000Y-8075000D01*
X8515000Y-8045000D02*
X8485000Y-8075000D01*
X8520000Y-8510000D02*
X8550000Y-8540000D01*
X8550000Y-8510000D02*
X8520000Y-8540000D01*
X8592500Y-8752500D02*
X8622500Y-8782500D01*
X8622500Y-8752500D02*
X8592500Y-8782500D01*
X8612500Y-8045000D02*
X8642500Y-8075000D01*
X8642500Y-8045000D02*
X8612500Y-8075000D01*
X8635000Y-8510000D02*
X8665000Y-8540000D01*
X8665000Y-8510000D02*
X8635000Y-8540000D01*
X8677500Y-8420000D02*
X8707500Y-8450000D01*
X8707500Y-8420000D02*
X8677500Y-8450000D01*
X8937500Y-8045000D02*
X8967500Y-8075000D01*
X8967500Y-8045000D02*
X8937500Y-8075000D01*
X9065000Y-8045000D02*
X9095000Y-8075000D01*
X9095000Y-8045000D02*
X9065000Y-8075000D01*
X9190000Y-8045000D02*
X9220000Y-8075000D01*
X9220000Y-8045000D02*
X9190000Y-8075000D01*
X9327500Y-8045000D02*
X9357500Y-8075000D01*
X9357500Y-8045000D02*
X9327500Y-8075000D01*
X9455000Y-8045000D02*
X9485000Y-8075000D01*
X9485000Y-8045000D02*
X9455000Y-8075000D01*
X7550000Y-8293500D02*
G75*
G02*
X7450000Y-8293500I-50000J0D01*
G01*
X7450000Y-8293500D02*
G75*
G02*
X7550000Y-8293500I50000J0D01*
G01*
X7550000Y-8547500D02*
G75*
G02*
X7450000Y-8547500I-50000J0D01*
G01*
X7450000Y-8547500D02*
G75*
G02*
X7550000Y-8547500I50000J0D01*
G01*
X7550000Y-8801500D02*
G75*
G02*
X7450000Y-8801500I-50000J0D01*
G01*
X7450000Y-8801500D02*
G75*
G02*
X7550000Y-8801500I50000J0D01*
G01*
D11*
X7565777Y-9476984D02*
X7565777Y-9276984D01*
X7565777Y-9276984D02*
X7613396Y-9276984D01*
X7613396Y-9276984D02*
X7641967Y-9286508D01*
X7641967Y-9286508D02*
X7661015Y-9305555D01*
X7661015Y-9305555D02*
X7670539Y-9324603D01*
X7670539Y-9324603D02*
X7680062Y-9362698D01*
X7680062Y-9362698D02*
X7680062Y-9391270D01*
X7680062Y-9391270D02*
X7670539Y-9429365D01*
X7670539Y-9429365D02*
X7661015Y-9448412D01*
X7661015Y-9448412D02*
X7641967Y-9467460D01*
X7641967Y-9467460D02*
X7613396Y-9476984D01*
X7613396Y-9476984D02*
X7565777Y-9476984D01*
X7765777Y-9476984D02*
X7765777Y-9343650D01*
X7765777Y-9381746D02*
X7775301Y-9362698D01*
X7775301Y-9362698D02*
X7784824Y-9353174D01*
X7784824Y-9353174D02*
X7803872Y-9343650D01*
X7803872Y-9343650D02*
X7822920Y-9343650D01*
X7889586Y-9476984D02*
X7889586Y-9343650D01*
X7889586Y-9276984D02*
X7880062Y-9286508D01*
X7880062Y-9286508D02*
X7889586Y-9296031D01*
X7889586Y-9296031D02*
X7899110Y-9286508D01*
X7899110Y-9286508D02*
X7889586Y-9276984D01*
X7889586Y-9276984D02*
X7889586Y-9296031D01*
X8013396Y-9476984D02*
X7994348Y-9467460D01*
X7994348Y-9467460D02*
X7984824Y-9448412D01*
X7984824Y-9448412D02*
X7984824Y-9276984D01*
X8118158Y-9476984D02*
X8099110Y-9467460D01*
X8099110Y-9467460D02*
X8089586Y-9448412D01*
X8089586Y-9448412D02*
X8089586Y-9276984D01*
X8346729Y-9476984D02*
X8346729Y-9276984D01*
X8346729Y-9276984D02*
X8413396Y-9419841D01*
X8413396Y-9419841D02*
X8480063Y-9276984D01*
X8480063Y-9276984D02*
X8480063Y-9476984D01*
X8661015Y-9476984D02*
X8661015Y-9372222D01*
X8661015Y-9372222D02*
X8651491Y-9353174D01*
X8651491Y-9353174D02*
X8632444Y-9343650D01*
X8632444Y-9343650D02*
X8594348Y-9343650D01*
X8594348Y-9343650D02*
X8575301Y-9353174D01*
X8661015Y-9467460D02*
X8641967Y-9476984D01*
X8641967Y-9476984D02*
X8594348Y-9476984D01*
X8594348Y-9476984D02*
X8575301Y-9467460D01*
X8575301Y-9467460D02*
X8565777Y-9448412D01*
X8565777Y-9448412D02*
X8565777Y-9429365D01*
X8565777Y-9429365D02*
X8575301Y-9410317D01*
X8575301Y-9410317D02*
X8594348Y-9400793D01*
X8594348Y-9400793D02*
X8641967Y-9400793D01*
X8641967Y-9400793D02*
X8661015Y-9391270D01*
X8756253Y-9343650D02*
X8756253Y-9543650D01*
X8756253Y-9353174D02*
X8775301Y-9343650D01*
X8775301Y-9343650D02*
X8813396Y-9343650D01*
X8813396Y-9343650D02*
X8832444Y-9353174D01*
X8832444Y-9353174D02*
X8841967Y-9362698D01*
X8841967Y-9362698D02*
X8851491Y-9381746D01*
X8851491Y-9381746D02*
X8851491Y-9438889D01*
X8851491Y-9438889D02*
X8841967Y-9457936D01*
X8841967Y-9457936D02*
X8832444Y-9467460D01*
X8832444Y-9467460D02*
X8813396Y-9476984D01*
X8813396Y-9476984D02*
X8775301Y-9476984D01*
X8775301Y-9476984D02*
X8756253Y-9467460D01*
X8937205Y-9457936D02*
X8946729Y-9467460D01*
X8946729Y-9467460D02*
X8937205Y-9476984D01*
X8937205Y-9476984D02*
X8927682Y-9467460D01*
X8927682Y-9467460D02*
X8937205Y-9457936D01*
X8937205Y-9457936D02*
X8937205Y-9476984D01*
X8937205Y-9353174D02*
X8946729Y-9362698D01*
X8946729Y-9362698D02*
X8937205Y-9372222D01*
X8937205Y-9372222D02*
X8927682Y-9362698D01*
X8927682Y-9362698D02*
X8937205Y-9353174D01*
X8937205Y-9353174D02*
X8937205Y-9372222D01*
D12*
X7275000Y-9790500D02*
X7305000Y-9820500D01*
X7305000Y-9790500D02*
X7275000Y-9820500D01*
D11*
X7603872Y-9696984D02*
X7622920Y-9696984D01*
X7622920Y-9696984D02*
X7641967Y-9706508D01*
X7641967Y-9706508D02*
X7651491Y-9716031D01*
X7651491Y-9716031D02*
X7661015Y-9735079D01*
X7661015Y-9735079D02*
X7670539Y-9773174D01*
X7670539Y-9773174D02*
X7670539Y-9820793D01*
X7670539Y-9820793D02*
X7661015Y-9858889D01*
X7661015Y-9858889D02*
X7651491Y-9877936D01*
X7651491Y-9877936D02*
X7641967Y-9887460D01*
X7641967Y-9887460D02*
X7622920Y-9896984D01*
X7622920Y-9896984D02*
X7603872Y-9896984D01*
X7603872Y-9896984D02*
X7584824Y-9887460D01*
X7584824Y-9887460D02*
X7575301Y-9877936D01*
X7575301Y-9877936D02*
X7565777Y-9858889D01*
X7565777Y-9858889D02*
X7556253Y-9820793D01*
X7556253Y-9820793D02*
X7556253Y-9773174D01*
X7556253Y-9773174D02*
X7565777Y-9735079D01*
X7565777Y-9735079D02*
X7575301Y-9716031D01*
X7575301Y-9716031D02*
X7584824Y-9706508D01*
X7584824Y-9706508D02*
X7603872Y-9696984D01*
X7756253Y-9877936D02*
X7765777Y-9887460D01*
X7765777Y-9887460D02*
X7756253Y-9896984D01*
X7756253Y-9896984D02*
X7746729Y-9887460D01*
X7746729Y-9887460D02*
X7756253Y-9877936D01*
X7756253Y-9877936D02*
X7756253Y-9896984D01*
X7832443Y-9696984D02*
X7956253Y-9696984D01*
X7956253Y-9696984D02*
X7889586Y-9773174D01*
X7889586Y-9773174D02*
X7918158Y-9773174D01*
X7918158Y-9773174D02*
X7937205Y-9782698D01*
X7937205Y-9782698D02*
X7946729Y-9792222D01*
X7946729Y-9792222D02*
X7956253Y-9811270D01*
X7956253Y-9811270D02*
X7956253Y-9858889D01*
X7956253Y-9858889D02*
X7946729Y-9877936D01*
X7946729Y-9877936D02*
X7937205Y-9887460D01*
X7937205Y-9887460D02*
X7918158Y-9896984D01*
X7918158Y-9896984D02*
X7861015Y-9896984D01*
X7861015Y-9896984D02*
X7841967Y-9887460D01*
X7841967Y-9887460D02*
X7832443Y-9877936D01*
X8080062Y-9696984D02*
X8099110Y-9696984D01*
X8099110Y-9696984D02*
X8118158Y-9706508D01*
X8118158Y-9706508D02*
X8127682Y-9716031D01*
X8127682Y-9716031D02*
X8137205Y-9735079D01*
X8137205Y-9735079D02*
X8146729Y-9773174D01*
X8146729Y-9773174D02*
X8146729Y-9820793D01*
X8146729Y-9820793D02*
X8137205Y-9858889D01*
X8137205Y-9858889D02*
X8127682Y-9877936D01*
X8127682Y-9877936D02*
X8118158Y-9887460D01*
X8118158Y-9887460D02*
X8099110Y-9896984D01*
X8099110Y-9896984D02*
X8080062Y-9896984D01*
X8080062Y-9896984D02*
X8061015Y-9887460D01*
X8061015Y-9887460D02*
X8051491Y-9877936D01*
X8051491Y-9877936D02*
X8041967Y-9858889D01*
X8041967Y-9858889D02*
X8032443Y-9820793D01*
X8032443Y-9820793D02*
X8032443Y-9773174D01*
X8032443Y-9773174D02*
X8041967Y-9735079D01*
X8041967Y-9735079D02*
X8051491Y-9716031D01*
X8051491Y-9716031D02*
X8061015Y-9706508D01*
X8061015Y-9706508D02*
X8080062Y-9696984D01*
X8270539Y-9696984D02*
X8289586Y-9696984D01*
X8289586Y-9696984D02*
X8308634Y-9706508D01*
X8308634Y-9706508D02*
X8318158Y-9716031D01*
X8318158Y-9716031D02*
X8327682Y-9735079D01*
X8327682Y-9735079D02*
X8337205Y-9773174D01*
X8337205Y-9773174D02*
X8337205Y-9820793D01*
X8337205Y-9820793D02*
X8327682Y-9858889D01*
X8327682Y-9858889D02*
X8318158Y-9877936D01*
X8318158Y-9877936D02*
X8308634Y-9887460D01*
X8308634Y-9887460D02*
X8289586Y-9896984D01*
X8289586Y-9896984D02*
X8270539Y-9896984D01*
X8270539Y-9896984D02*
X8251491Y-9887460D01*
X8251491Y-9887460D02*
X8241967Y-9877936D01*
X8241967Y-9877936D02*
X8232443Y-9858889D01*
X8232443Y-9858889D02*
X8222920Y-9820793D01*
X8222920Y-9820793D02*
X8222920Y-9773174D01*
X8222920Y-9773174D02*
X8232443Y-9735079D01*
X8232443Y-9735079D02*
X8241967Y-9716031D01*
X8241967Y-9716031D02*
X8251491Y-9706508D01*
X8251491Y-9706508D02*
X8270539Y-9696984D01*
X8422920Y-9896984D02*
X8422920Y-9763650D01*
X8422920Y-9782698D02*
X8432444Y-9773174D01*
X8432444Y-9773174D02*
X8451491Y-9763650D01*
X8451491Y-9763650D02*
X8480063Y-9763650D01*
X8480063Y-9763650D02*
X8499110Y-9773174D01*
X8499110Y-9773174D02*
X8508634Y-9792222D01*
X8508634Y-9792222D02*
X8508634Y-9896984D01*
X8508634Y-9792222D02*
X8518158Y-9773174D01*
X8518158Y-9773174D02*
X8537205Y-9763650D01*
X8537205Y-9763650D02*
X8565777Y-9763650D01*
X8565777Y-9763650D02*
X8584825Y-9773174D01*
X8584825Y-9773174D02*
X8594348Y-9792222D01*
X8594348Y-9792222D02*
X8594348Y-9896984D01*
X8689586Y-9896984D02*
X8689586Y-9763650D01*
X8689586Y-9782698D02*
X8699110Y-9773174D01*
X8699110Y-9773174D02*
X8718158Y-9763650D01*
X8718158Y-9763650D02*
X8746729Y-9763650D01*
X8746729Y-9763650D02*
X8765777Y-9773174D01*
X8765777Y-9773174D02*
X8775301Y-9792222D01*
X8775301Y-9792222D02*
X8775301Y-9896984D01*
X8775301Y-9792222D02*
X8784825Y-9773174D01*
X8784825Y-9773174D02*
X8803872Y-9763650D01*
X8803872Y-9763650D02*
X8832444Y-9763650D01*
X8832444Y-9763650D02*
X8851491Y-9773174D01*
X8851491Y-9773174D02*
X8861015Y-9792222D01*
X8861015Y-9792222D02*
X8861015Y-9896984D01*
X9251491Y-9687460D02*
X9080063Y-9944603D01*
X9508634Y-9696984D02*
X9527682Y-9696984D01*
X9527682Y-9696984D02*
X9546729Y-9706508D01*
X9546729Y-9706508D02*
X9556253Y-9716031D01*
X9556253Y-9716031D02*
X9565777Y-9735079D01*
X9565777Y-9735079D02*
X9575301Y-9773174D01*
X9575301Y-9773174D02*
X9575301Y-9820793D01*
X9575301Y-9820793D02*
X9565777Y-9858889D01*
X9565777Y-9858889D02*
X9556253Y-9877936D01*
X9556253Y-9877936D02*
X9546729Y-9887460D01*
X9546729Y-9887460D02*
X9527682Y-9896984D01*
X9527682Y-9896984D02*
X9508634Y-9896984D01*
X9508634Y-9896984D02*
X9489587Y-9887460D01*
X9489587Y-9887460D02*
X9480063Y-9877936D01*
X9480063Y-9877936D02*
X9470539Y-9858889D01*
X9470539Y-9858889D02*
X9461015Y-9820793D01*
X9461015Y-9820793D02*
X9461015Y-9773174D01*
X9461015Y-9773174D02*
X9470539Y-9735079D01*
X9470539Y-9735079D02*
X9480063Y-9716031D01*
X9480063Y-9716031D02*
X9489587Y-9706508D01*
X9489587Y-9706508D02*
X9508634Y-9696984D01*
X9661015Y-9877936D02*
X9670539Y-9887460D01*
X9670539Y-9887460D02*
X9661015Y-9896984D01*
X9661015Y-9896984D02*
X9651491Y-9887460D01*
X9651491Y-9887460D02*
X9661015Y-9877936D01*
X9661015Y-9877936D02*
X9661015Y-9896984D01*
X9794348Y-9696984D02*
X9813396Y-9696984D01*
X9813396Y-9696984D02*
X9832444Y-9706508D01*
X9832444Y-9706508D02*
X9841968Y-9716031D01*
X9841968Y-9716031D02*
X9851491Y-9735079D01*
X9851491Y-9735079D02*
X9861015Y-9773174D01*
X9861015Y-9773174D02*
X9861015Y-9820793D01*
X9861015Y-9820793D02*
X9851491Y-9858889D01*
X9851491Y-9858889D02*
X9841968Y-9877936D01*
X9841968Y-9877936D02*
X9832444Y-9887460D01*
X9832444Y-9887460D02*
X9813396Y-9896984D01*
X9813396Y-9896984D02*
X9794348Y-9896984D01*
X9794348Y-9896984D02*
X9775301Y-9887460D01*
X9775301Y-9887460D02*
X9765777Y-9877936D01*
X9765777Y-9877936D02*
X9756253Y-9858889D01*
X9756253Y-9858889D02*
X9746729Y-9820793D01*
X9746729Y-9820793D02*
X9746729Y-9773174D01*
X9746729Y-9773174D02*
X9756253Y-9735079D01*
X9756253Y-9735079D02*
X9765777Y-9716031D01*
X9765777Y-9716031D02*
X9775301Y-9706508D01*
X9775301Y-9706508D02*
X9794348Y-9696984D01*
X10051491Y-9896984D02*
X9937206Y-9896984D01*
X9994348Y-9896984D02*
X9994348Y-9696984D01*
X9994348Y-9696984D02*
X9975301Y-9725555D01*
X9975301Y-9725555D02*
X9956253Y-9744603D01*
X9956253Y-9744603D02*
X9937206Y-9754127D01*
X10241968Y-9896984D02*
X10127682Y-9896984D01*
X10184825Y-9896984D02*
X10184825Y-9696984D01*
X10184825Y-9696984D02*
X10165777Y-9725555D01*
X10165777Y-9725555D02*
X10146729Y-9744603D01*
X10146729Y-9744603D02*
X10127682Y-9754127D01*
X10356253Y-9782698D02*
X10337206Y-9773174D01*
X10337206Y-9773174D02*
X10327682Y-9763650D01*
X10327682Y-9763650D02*
X10318158Y-9744603D01*
X10318158Y-9744603D02*
X10318158Y-9735079D01*
X10318158Y-9735079D02*
X10327682Y-9716031D01*
X10327682Y-9716031D02*
X10337206Y-9706508D01*
X10337206Y-9706508D02*
X10356253Y-9696984D01*
X10356253Y-9696984D02*
X10394349Y-9696984D01*
X10394349Y-9696984D02*
X10413396Y-9706508D01*
X10413396Y-9706508D02*
X10422920Y-9716031D01*
X10422920Y-9716031D02*
X10432444Y-9735079D01*
X10432444Y-9735079D02*
X10432444Y-9744603D01*
X10432444Y-9744603D02*
X10422920Y-9763650D01*
X10422920Y-9763650D02*
X10413396Y-9773174D01*
X10413396Y-9773174D02*
X10394349Y-9782698D01*
X10394349Y-9782698D02*
X10356253Y-9782698D01*
X10356253Y-9782698D02*
X10337206Y-9792222D01*
X10337206Y-9792222D02*
X10327682Y-9801746D01*
X10327682Y-9801746D02*
X10318158Y-9820793D01*
X10318158Y-9820793D02*
X10318158Y-9858889D01*
X10318158Y-9858889D02*
X10327682Y-9877936D01*
X10327682Y-9877936D02*
X10337206Y-9887460D01*
X10337206Y-9887460D02*
X10356253Y-9896984D01*
X10356253Y-9896984D02*
X10394349Y-9896984D01*
X10394349Y-9896984D02*
X10413396Y-9887460D01*
X10413396Y-9887460D02*
X10422920Y-9877936D01*
X10422920Y-9877936D02*
X10432444Y-9858889D01*
X10432444Y-9858889D02*
X10432444Y-9820793D01*
X10432444Y-9820793D02*
X10422920Y-9801746D01*
X10422920Y-9801746D02*
X10413396Y-9792222D01*
X10413396Y-9792222D02*
X10394349Y-9782698D01*
X10508634Y-9696984D02*
X10508634Y-9735079D01*
X10584825Y-9696984D02*
X10584825Y-9735079D01*
X10880063Y-9973174D02*
X10870539Y-9963650D01*
X10870539Y-9963650D02*
X10851491Y-9935079D01*
X10851491Y-9935079D02*
X10841968Y-9916031D01*
X10841968Y-9916031D02*
X10832444Y-9887460D01*
X10832444Y-9887460D02*
X10822920Y-9839841D01*
X10822920Y-9839841D02*
X10822920Y-9801746D01*
X10822920Y-9801746D02*
X10832444Y-9754127D01*
X10832444Y-9754127D02*
X10841968Y-9725555D01*
X10841968Y-9725555D02*
X10851491Y-9706508D01*
X10851491Y-9706508D02*
X10870539Y-9677936D01*
X10870539Y-9677936D02*
X10880063Y-9668412D01*
X11041968Y-9763650D02*
X11041968Y-9896984D01*
X10994349Y-9687460D02*
X10946730Y-9830317D01*
X10946730Y-9830317D02*
X11070539Y-9830317D01*
X11175301Y-9782698D02*
X11156253Y-9773174D01*
X11156253Y-9773174D02*
X11146730Y-9763650D01*
X11146730Y-9763650D02*
X11137206Y-9744603D01*
X11137206Y-9744603D02*
X11137206Y-9735079D01*
X11137206Y-9735079D02*
X11146730Y-9716031D01*
X11146730Y-9716031D02*
X11156253Y-9706508D01*
X11156253Y-9706508D02*
X11175301Y-9696984D01*
X11175301Y-9696984D02*
X11213396Y-9696984D01*
X11213396Y-9696984D02*
X11232444Y-9706508D01*
X11232444Y-9706508D02*
X11241968Y-9716031D01*
X11241968Y-9716031D02*
X11251491Y-9735079D01*
X11251491Y-9735079D02*
X11251491Y-9744603D01*
X11251491Y-9744603D02*
X11241968Y-9763650D01*
X11241968Y-9763650D02*
X11232444Y-9773174D01*
X11232444Y-9773174D02*
X11213396Y-9782698D01*
X11213396Y-9782698D02*
X11175301Y-9782698D01*
X11175301Y-9782698D02*
X11156253Y-9792222D01*
X11156253Y-9792222D02*
X11146730Y-9801746D01*
X11146730Y-9801746D02*
X11137206Y-9820793D01*
X11137206Y-9820793D02*
X11137206Y-9858889D01*
X11137206Y-9858889D02*
X11146730Y-9877936D01*
X11146730Y-9877936D02*
X11156253Y-9887460D01*
X11156253Y-9887460D02*
X11175301Y-9896984D01*
X11175301Y-9896984D02*
X11213396Y-9896984D01*
X11213396Y-9896984D02*
X11232444Y-9887460D01*
X11232444Y-9887460D02*
X11241968Y-9877936D01*
X11241968Y-9877936D02*
X11251491Y-9858889D01*
X11251491Y-9858889D02*
X11251491Y-9820793D01*
X11251491Y-9820793D02*
X11241968Y-9801746D01*
X11241968Y-9801746D02*
X11232444Y-9792222D01*
X11232444Y-9792222D02*
X11213396Y-9782698D01*
X11489587Y-9896984D02*
X11489587Y-9696984D01*
X11575301Y-9896984D02*
X11575301Y-9792222D01*
X11575301Y-9792222D02*
X11565777Y-9773174D01*
X11565777Y-9773174D02*
X11546730Y-9763650D01*
X11546730Y-9763650D02*
X11518158Y-9763650D01*
X11518158Y-9763650D02*
X11499110Y-9773174D01*
X11499110Y-9773174D02*
X11489587Y-9782698D01*
X11699110Y-9896984D02*
X11680063Y-9887460D01*
X11680063Y-9887460D02*
X11670539Y-9877936D01*
X11670539Y-9877936D02*
X11661015Y-9858889D01*
X11661015Y-9858889D02*
X11661015Y-9801746D01*
X11661015Y-9801746D02*
X11670539Y-9782698D01*
X11670539Y-9782698D02*
X11680063Y-9773174D01*
X11680063Y-9773174D02*
X11699110Y-9763650D01*
X11699110Y-9763650D02*
X11727682Y-9763650D01*
X11727682Y-9763650D02*
X11746730Y-9773174D01*
X11746730Y-9773174D02*
X11756253Y-9782698D01*
X11756253Y-9782698D02*
X11765777Y-9801746D01*
X11765777Y-9801746D02*
X11765777Y-9858889D01*
X11765777Y-9858889D02*
X11756253Y-9877936D01*
X11756253Y-9877936D02*
X11746730Y-9887460D01*
X11746730Y-9887460D02*
X11727682Y-9896984D01*
X11727682Y-9896984D02*
X11699110Y-9896984D01*
X11880063Y-9896984D02*
X11861015Y-9887460D01*
X11861015Y-9887460D02*
X11851491Y-9868412D01*
X11851491Y-9868412D02*
X11851491Y-9696984D01*
X12032444Y-9887460D02*
X12013396Y-9896984D01*
X12013396Y-9896984D02*
X11975301Y-9896984D01*
X11975301Y-9896984D02*
X11956253Y-9887460D01*
X11956253Y-9887460D02*
X11946730Y-9868412D01*
X11946730Y-9868412D02*
X11946730Y-9792222D01*
X11946730Y-9792222D02*
X11956253Y-9773174D01*
X11956253Y-9773174D02*
X11975301Y-9763650D01*
X11975301Y-9763650D02*
X12013396Y-9763650D01*
X12013396Y-9763650D02*
X12032444Y-9773174D01*
X12032444Y-9773174D02*
X12041968Y-9792222D01*
X12041968Y-9792222D02*
X12041968Y-9811270D01*
X12041968Y-9811270D02*
X11946730Y-9830317D01*
X12118158Y-9887460D02*
X12137206Y-9896984D01*
X12137206Y-9896984D02*
X12175301Y-9896984D01*
X12175301Y-9896984D02*
X12194349Y-9887460D01*
X12194349Y-9887460D02*
X12203872Y-9868412D01*
X12203872Y-9868412D02*
X12203872Y-9858889D01*
X12203872Y-9858889D02*
X12194349Y-9839841D01*
X12194349Y-9839841D02*
X12175301Y-9830317D01*
X12175301Y-9830317D02*
X12146730Y-9830317D01*
X12146730Y-9830317D02*
X12127682Y-9820793D01*
X12127682Y-9820793D02*
X12118158Y-9801746D01*
X12118158Y-9801746D02*
X12118158Y-9792222D01*
X12118158Y-9792222D02*
X12127682Y-9773174D01*
X12127682Y-9773174D02*
X12146730Y-9763650D01*
X12146730Y-9763650D02*
X12175301Y-9763650D01*
X12175301Y-9763650D02*
X12194349Y-9773174D01*
X12270539Y-9973174D02*
X12280063Y-9963650D01*
X12280063Y-9963650D02*
X12299111Y-9935079D01*
X12299111Y-9935079D02*
X12308634Y-9916031D01*
X12308634Y-9916031D02*
X12318158Y-9887460D01*
X12318158Y-9887460D02*
X12327682Y-9839841D01*
X12327682Y-9839841D02*
X12327682Y-9801746D01*
X12327682Y-9801746D02*
X12318158Y-9754127D01*
X12318158Y-9754127D02*
X12308634Y-9725555D01*
X12308634Y-9725555D02*
X12299111Y-9706508D01*
X12299111Y-9706508D02*
X12280063Y-9677936D01*
X12280063Y-9677936D02*
X12270539Y-9668412D01*
D12*
X7305000Y-10069500D02*
G75*
G02*
X7205000Y-10069500I-50000J0D01*
G01*
X7205000Y-10069500D02*
G75*
G02*
X7305000Y-10069500I50000J0D01*
G01*
D11*
X7670539Y-10160984D02*
X7556253Y-10160984D01*
X7613396Y-10160984D02*
X7613396Y-9960984D01*
X7613396Y-9960984D02*
X7594348Y-9989555D01*
X7594348Y-9989555D02*
X7575301Y-10008603D01*
X7575301Y-10008603D02*
X7556253Y-10018127D01*
X7756253Y-10141936D02*
X7765777Y-10151460D01*
X7765777Y-10151460D02*
X7756253Y-10160984D01*
X7756253Y-10160984D02*
X7746729Y-10151460D01*
X7746729Y-10151460D02*
X7756253Y-10141936D01*
X7756253Y-10141936D02*
X7756253Y-10160984D01*
X7889586Y-9960984D02*
X7908634Y-9960984D01*
X7908634Y-9960984D02*
X7927682Y-9970508D01*
X7927682Y-9970508D02*
X7937205Y-9980031D01*
X7937205Y-9980031D02*
X7946729Y-9999079D01*
X7946729Y-9999079D02*
X7956253Y-10037174D01*
X7956253Y-10037174D02*
X7956253Y-10084793D01*
X7956253Y-10084793D02*
X7946729Y-10122889D01*
X7946729Y-10122889D02*
X7937205Y-10141936D01*
X7937205Y-10141936D02*
X7927682Y-10151460D01*
X7927682Y-10151460D02*
X7908634Y-10160984D01*
X7908634Y-10160984D02*
X7889586Y-10160984D01*
X7889586Y-10160984D02*
X7870539Y-10151460D01*
X7870539Y-10151460D02*
X7861015Y-10141936D01*
X7861015Y-10141936D02*
X7851491Y-10122889D01*
X7851491Y-10122889D02*
X7841967Y-10084793D01*
X7841967Y-10084793D02*
X7841967Y-10037174D01*
X7841967Y-10037174D02*
X7851491Y-9999079D01*
X7851491Y-9999079D02*
X7861015Y-9980031D01*
X7861015Y-9980031D02*
X7870539Y-9970508D01*
X7870539Y-9970508D02*
X7889586Y-9960984D01*
X8080062Y-9960984D02*
X8099110Y-9960984D01*
X8099110Y-9960984D02*
X8118158Y-9970508D01*
X8118158Y-9970508D02*
X8127682Y-9980031D01*
X8127682Y-9980031D02*
X8137205Y-9999079D01*
X8137205Y-9999079D02*
X8146729Y-10037174D01*
X8146729Y-10037174D02*
X8146729Y-10084793D01*
X8146729Y-10084793D02*
X8137205Y-10122889D01*
X8137205Y-10122889D02*
X8127682Y-10141936D01*
X8127682Y-10141936D02*
X8118158Y-10151460D01*
X8118158Y-10151460D02*
X8099110Y-10160984D01*
X8099110Y-10160984D02*
X8080062Y-10160984D01*
X8080062Y-10160984D02*
X8061015Y-10151460D01*
X8061015Y-10151460D02*
X8051491Y-10141936D01*
X8051491Y-10141936D02*
X8041967Y-10122889D01*
X8041967Y-10122889D02*
X8032443Y-10084793D01*
X8032443Y-10084793D02*
X8032443Y-10037174D01*
X8032443Y-10037174D02*
X8041967Y-9999079D01*
X8041967Y-9999079D02*
X8051491Y-9980031D01*
X8051491Y-9980031D02*
X8061015Y-9970508D01*
X8061015Y-9970508D02*
X8080062Y-9960984D01*
X8270539Y-9960984D02*
X8289586Y-9960984D01*
X8289586Y-9960984D02*
X8308634Y-9970508D01*
X8308634Y-9970508D02*
X8318158Y-9980031D01*
X8318158Y-9980031D02*
X8327682Y-9999079D01*
X8327682Y-9999079D02*
X8337205Y-10037174D01*
X8337205Y-10037174D02*
X8337205Y-10084793D01*
X8337205Y-10084793D02*
X8327682Y-10122889D01*
X8327682Y-10122889D02*
X8318158Y-10141936D01*
X8318158Y-10141936D02*
X8308634Y-10151460D01*
X8308634Y-10151460D02*
X8289586Y-10160984D01*
X8289586Y-10160984D02*
X8270539Y-10160984D01*
X8270539Y-10160984D02*
X8251491Y-10151460D01*
X8251491Y-10151460D02*
X8241967Y-10141936D01*
X8241967Y-10141936D02*
X8232443Y-10122889D01*
X8232443Y-10122889D02*
X8222920Y-10084793D01*
X8222920Y-10084793D02*
X8222920Y-10037174D01*
X8222920Y-10037174D02*
X8232443Y-9999079D01*
X8232443Y-9999079D02*
X8241967Y-9980031D01*
X8241967Y-9980031D02*
X8251491Y-9970508D01*
X8251491Y-9970508D02*
X8270539Y-9960984D01*
X8422920Y-10160984D02*
X8422920Y-10027650D01*
X8422920Y-10046698D02*
X8432444Y-10037174D01*
X8432444Y-10037174D02*
X8451491Y-10027650D01*
X8451491Y-10027650D02*
X8480063Y-10027650D01*
X8480063Y-10027650D02*
X8499110Y-10037174D01*
X8499110Y-10037174D02*
X8508634Y-10056222D01*
X8508634Y-10056222D02*
X8508634Y-10160984D01*
X8508634Y-10056222D02*
X8518158Y-10037174D01*
X8518158Y-10037174D02*
X8537205Y-10027650D01*
X8537205Y-10027650D02*
X8565777Y-10027650D01*
X8565777Y-10027650D02*
X8584825Y-10037174D01*
X8584825Y-10037174D02*
X8594348Y-10056222D01*
X8594348Y-10056222D02*
X8594348Y-10160984D01*
X8689586Y-10160984D02*
X8689586Y-10027650D01*
X8689586Y-10046698D02*
X8699110Y-10037174D01*
X8699110Y-10037174D02*
X8718158Y-10027650D01*
X8718158Y-10027650D02*
X8746729Y-10027650D01*
X8746729Y-10027650D02*
X8765777Y-10037174D01*
X8765777Y-10037174D02*
X8775301Y-10056222D01*
X8775301Y-10056222D02*
X8775301Y-10160984D01*
X8775301Y-10056222D02*
X8784825Y-10037174D01*
X8784825Y-10037174D02*
X8803872Y-10027650D01*
X8803872Y-10027650D02*
X8832444Y-10027650D01*
X8832444Y-10027650D02*
X8851491Y-10037174D01*
X8851491Y-10037174D02*
X8861015Y-10056222D01*
X8861015Y-10056222D02*
X8861015Y-10160984D01*
X9251491Y-9951460D02*
X9080063Y-10208603D01*
X9508634Y-9960984D02*
X9527682Y-9960984D01*
X9527682Y-9960984D02*
X9546729Y-9970508D01*
X9546729Y-9970508D02*
X9556253Y-9980031D01*
X9556253Y-9980031D02*
X9565777Y-9999079D01*
X9565777Y-9999079D02*
X9575301Y-10037174D01*
X9575301Y-10037174D02*
X9575301Y-10084793D01*
X9575301Y-10084793D02*
X9565777Y-10122889D01*
X9565777Y-10122889D02*
X9556253Y-10141936D01*
X9556253Y-10141936D02*
X9546729Y-10151460D01*
X9546729Y-10151460D02*
X9527682Y-10160984D01*
X9527682Y-10160984D02*
X9508634Y-10160984D01*
X9508634Y-10160984D02*
X9489587Y-10151460D01*
X9489587Y-10151460D02*
X9480063Y-10141936D01*
X9480063Y-10141936D02*
X9470539Y-10122889D01*
X9470539Y-10122889D02*
X9461015Y-10084793D01*
X9461015Y-10084793D02*
X9461015Y-10037174D01*
X9461015Y-10037174D02*
X9470539Y-9999079D01*
X9470539Y-9999079D02*
X9480063Y-9980031D01*
X9480063Y-9980031D02*
X9489587Y-9970508D01*
X9489587Y-9970508D02*
X9508634Y-9960984D01*
X9661015Y-10141936D02*
X9670539Y-10151460D01*
X9670539Y-10151460D02*
X9661015Y-10160984D01*
X9661015Y-10160984D02*
X9651491Y-10151460D01*
X9651491Y-10151460D02*
X9661015Y-10141936D01*
X9661015Y-10141936D02*
X9661015Y-10160984D01*
X9794348Y-9960984D02*
X9813396Y-9960984D01*
X9813396Y-9960984D02*
X9832444Y-9970508D01*
X9832444Y-9970508D02*
X9841968Y-9980031D01*
X9841968Y-9980031D02*
X9851491Y-9999079D01*
X9851491Y-9999079D02*
X9861015Y-10037174D01*
X9861015Y-10037174D02*
X9861015Y-10084793D01*
X9861015Y-10084793D02*
X9851491Y-10122889D01*
X9851491Y-10122889D02*
X9841968Y-10141936D01*
X9841968Y-10141936D02*
X9832444Y-10151460D01*
X9832444Y-10151460D02*
X9813396Y-10160984D01*
X9813396Y-10160984D02*
X9794348Y-10160984D01*
X9794348Y-10160984D02*
X9775301Y-10151460D01*
X9775301Y-10151460D02*
X9765777Y-10141936D01*
X9765777Y-10141936D02*
X9756253Y-10122889D01*
X9756253Y-10122889D02*
X9746729Y-10084793D01*
X9746729Y-10084793D02*
X9746729Y-10037174D01*
X9746729Y-10037174D02*
X9756253Y-9999079D01*
X9756253Y-9999079D02*
X9765777Y-9980031D01*
X9765777Y-9980031D02*
X9775301Y-9970508D01*
X9775301Y-9970508D02*
X9794348Y-9960984D01*
X9927682Y-9960984D02*
X10051491Y-9960984D01*
X10051491Y-9960984D02*
X9984825Y-10037174D01*
X9984825Y-10037174D02*
X10013396Y-10037174D01*
X10013396Y-10037174D02*
X10032444Y-10046698D01*
X10032444Y-10046698D02*
X10041968Y-10056222D01*
X10041968Y-10056222D02*
X10051491Y-10075270D01*
X10051491Y-10075270D02*
X10051491Y-10122889D01*
X10051491Y-10122889D02*
X10041968Y-10141936D01*
X10041968Y-10141936D02*
X10032444Y-10151460D01*
X10032444Y-10151460D02*
X10013396Y-10160984D01*
X10013396Y-10160984D02*
X9956253Y-10160984D01*
X9956253Y-10160984D02*
X9937206Y-10151460D01*
X9937206Y-10151460D02*
X9927682Y-10141936D01*
X10146729Y-10160984D02*
X10184825Y-10160984D01*
X10184825Y-10160984D02*
X10203872Y-10151460D01*
X10203872Y-10151460D02*
X10213396Y-10141936D01*
X10213396Y-10141936D02*
X10232444Y-10113365D01*
X10232444Y-10113365D02*
X10241968Y-10075270D01*
X10241968Y-10075270D02*
X10241968Y-9999079D01*
X10241968Y-9999079D02*
X10232444Y-9980031D01*
X10232444Y-9980031D02*
X10222920Y-9970508D01*
X10222920Y-9970508D02*
X10203872Y-9960984D01*
X10203872Y-9960984D02*
X10165777Y-9960984D01*
X10165777Y-9960984D02*
X10146729Y-9970508D01*
X10146729Y-9970508D02*
X10137206Y-9980031D01*
X10137206Y-9980031D02*
X10127682Y-9999079D01*
X10127682Y-9999079D02*
X10127682Y-10046698D01*
X10127682Y-10046698D02*
X10137206Y-10065746D01*
X10137206Y-10065746D02*
X10146729Y-10075270D01*
X10146729Y-10075270D02*
X10165777Y-10084793D01*
X10165777Y-10084793D02*
X10203872Y-10084793D01*
X10203872Y-10084793D02*
X10222920Y-10075270D01*
X10222920Y-10075270D02*
X10232444Y-10065746D01*
X10232444Y-10065746D02*
X10241968Y-10046698D01*
X10413396Y-10027650D02*
X10413396Y-10160984D01*
X10365777Y-9951460D02*
X10318158Y-10094317D01*
X10318158Y-10094317D02*
X10441968Y-10094317D01*
X10508634Y-9960984D02*
X10508634Y-9999079D01*
X10584825Y-9960984D02*
X10584825Y-9999079D01*
X10880063Y-10237174D02*
X10870539Y-10227650D01*
X10870539Y-10227650D02*
X10851491Y-10199079D01*
X10851491Y-10199079D02*
X10841968Y-10180031D01*
X10841968Y-10180031D02*
X10832444Y-10151460D01*
X10832444Y-10151460D02*
X10822920Y-10103841D01*
X10822920Y-10103841D02*
X10822920Y-10065746D01*
X10822920Y-10065746D02*
X10832444Y-10018127D01*
X10832444Y-10018127D02*
X10841968Y-9989555D01*
X10841968Y-9989555D02*
X10851491Y-9970508D01*
X10851491Y-9970508D02*
X10870539Y-9941936D01*
X10870539Y-9941936D02*
X10880063Y-9932412D01*
X10937206Y-9960984D02*
X11061015Y-9960984D01*
X11061015Y-9960984D02*
X10994349Y-10037174D01*
X10994349Y-10037174D02*
X11022920Y-10037174D01*
X11022920Y-10037174D02*
X11041968Y-10046698D01*
X11041968Y-10046698D02*
X11051491Y-10056222D01*
X11051491Y-10056222D02*
X11061015Y-10075270D01*
X11061015Y-10075270D02*
X11061015Y-10122889D01*
X11061015Y-10122889D02*
X11051491Y-10141936D01*
X11051491Y-10141936D02*
X11041968Y-10151460D01*
X11041968Y-10151460D02*
X11022920Y-10160984D01*
X11022920Y-10160984D02*
X10965777Y-10160984D01*
X10965777Y-10160984D02*
X10946730Y-10151460D01*
X10946730Y-10151460D02*
X10937206Y-10141936D01*
X11299110Y-10160984D02*
X11299110Y-9960984D01*
X11384825Y-10160984D02*
X11384825Y-10056222D01*
X11384825Y-10056222D02*
X11375301Y-10037174D01*
X11375301Y-10037174D02*
X11356253Y-10027650D01*
X11356253Y-10027650D02*
X11327682Y-10027650D01*
X11327682Y-10027650D02*
X11308634Y-10037174D01*
X11308634Y-10037174D02*
X11299110Y-10046698D01*
X11508634Y-10160984D02*
X11489587Y-10151460D01*
X11489587Y-10151460D02*
X11480063Y-10141936D01*
X11480063Y-10141936D02*
X11470539Y-10122889D01*
X11470539Y-10122889D02*
X11470539Y-10065746D01*
X11470539Y-10065746D02*
X11480063Y-10046698D01*
X11480063Y-10046698D02*
X11489587Y-10037174D01*
X11489587Y-10037174D02*
X11508634Y-10027650D01*
X11508634Y-10027650D02*
X11537206Y-10027650D01*
X11537206Y-10027650D02*
X11556253Y-10037174D01*
X11556253Y-10037174D02*
X11565777Y-10046698D01*
X11565777Y-10046698D02*
X11575301Y-10065746D01*
X11575301Y-10065746D02*
X11575301Y-10122889D01*
X11575301Y-10122889D02*
X11565777Y-10141936D01*
X11565777Y-10141936D02*
X11556253Y-10151460D01*
X11556253Y-10151460D02*
X11537206Y-10160984D01*
X11537206Y-10160984D02*
X11508634Y-10160984D01*
X11689587Y-10160984D02*
X11670539Y-10151460D01*
X11670539Y-10151460D02*
X11661015Y-10132412D01*
X11661015Y-10132412D02*
X11661015Y-9960984D01*
X11841968Y-10151460D02*
X11822920Y-10160984D01*
X11822920Y-10160984D02*
X11784825Y-10160984D01*
X11784825Y-10160984D02*
X11765777Y-10151460D01*
X11765777Y-10151460D02*
X11756253Y-10132412D01*
X11756253Y-10132412D02*
X11756253Y-10056222D01*
X11756253Y-10056222D02*
X11765777Y-10037174D01*
X11765777Y-10037174D02*
X11784825Y-10027650D01*
X11784825Y-10027650D02*
X11822920Y-10027650D01*
X11822920Y-10027650D02*
X11841968Y-10037174D01*
X11841968Y-10037174D02*
X11851491Y-10056222D01*
X11851491Y-10056222D02*
X11851491Y-10075270D01*
X11851491Y-10075270D02*
X11756253Y-10094317D01*
X11927682Y-10151460D02*
X11946730Y-10160984D01*
X11946730Y-10160984D02*
X11984825Y-10160984D01*
X11984825Y-10160984D02*
X12003872Y-10151460D01*
X12003872Y-10151460D02*
X12013396Y-10132412D01*
X12013396Y-10132412D02*
X12013396Y-10122889D01*
X12013396Y-10122889D02*
X12003872Y-10103841D01*
X12003872Y-10103841D02*
X11984825Y-10094317D01*
X11984825Y-10094317D02*
X11956253Y-10094317D01*
X11956253Y-10094317D02*
X11937206Y-10084793D01*
X11937206Y-10084793D02*
X11927682Y-10065746D01*
X11927682Y-10065746D02*
X11927682Y-10056222D01*
X11927682Y-10056222D02*
X11937206Y-10037174D01*
X11937206Y-10037174D02*
X11956253Y-10027650D01*
X11956253Y-10027650D02*
X11984825Y-10027650D01*
X11984825Y-10027650D02*
X12003872Y-10037174D01*
X12080063Y-10237174D02*
X12089587Y-10227650D01*
X12089587Y-10227650D02*
X12108634Y-10199079D01*
X12108634Y-10199079D02*
X12118158Y-10180031D01*
X12118158Y-10180031D02*
X12127682Y-10151460D01*
X12127682Y-10151460D02*
X12137206Y-10103841D01*
X12137206Y-10103841D02*
X12137206Y-10065746D01*
X12137206Y-10065746D02*
X12127682Y-10018127D01*
X12127682Y-10018127D02*
X12118158Y-9989555D01*
X12118158Y-9989555D02*
X12108634Y-9970508D01*
X12108634Y-9970508D02*
X12089587Y-9941936D01*
X12089587Y-9941936D02*
X12080063Y-9932412D01*
M02*
