%TF.GenerationSoftware,KiCad,Pcbnew,8.0.5-dirty*%
%TF.CreationDate,2025-03-26T08:57:05-07:00*%
%TF.ProjectId,yorp,796f7270-2e6b-4696-9361-645f70636258,rev?*%
%TF.SameCoordinates,Original*%
%TF.FileFunction,Legend,Bot*%
%TF.FilePolarity,Positive*%
%FSLAX46Y46*%
G04 Gerber Fmt 4.6, Leading zero omitted, Abs format (unit mm)*
G04 Created by KiCad (PCBNEW 8.0.5-dirty) date 2025-03-26 08:57:05*
%MOMM*%
%LPD*%
G01*
G04 APERTURE LIST*
%ADD10C,0.100000*%
%ADD11C,0.000000*%
G04 APERTURE END LIST*
D10*
X79198497Y-85535714D02*
X79555640Y-85535714D01*
X78805640Y-85285714D02*
X79198497Y-85535714D01*
X79198497Y-85535714D02*
X78805640Y-85785714D01*
X79555640Y-86142857D02*
X79519926Y-86071428D01*
X79519926Y-86071428D02*
X79484211Y-86035714D01*
X79484211Y-86035714D02*
X79412783Y-86000000D01*
X79412783Y-86000000D02*
X79198497Y-86000000D01*
X79198497Y-86000000D02*
X79127068Y-86035714D01*
X79127068Y-86035714D02*
X79091354Y-86071428D01*
X79091354Y-86071428D02*
X79055640Y-86142857D01*
X79055640Y-86142857D02*
X79055640Y-86250000D01*
X79055640Y-86250000D02*
X79091354Y-86321428D01*
X79091354Y-86321428D02*
X79127068Y-86357143D01*
X79127068Y-86357143D02*
X79198497Y-86392857D01*
X79198497Y-86392857D02*
X79412783Y-86392857D01*
X79412783Y-86392857D02*
X79484211Y-86357143D01*
X79484211Y-86357143D02*
X79519926Y-86321428D01*
X79519926Y-86321428D02*
X79555640Y-86250000D01*
X79555640Y-86250000D02*
X79555640Y-86142857D01*
X79555640Y-86714285D02*
X79055640Y-86714285D01*
X79198497Y-86714285D02*
X79127068Y-86749999D01*
X79127068Y-86749999D02*
X79091354Y-86785714D01*
X79091354Y-86785714D02*
X79055640Y-86857142D01*
X79055640Y-86857142D02*
X79055640Y-86928571D01*
X79055640Y-87178571D02*
X79805640Y-87178571D01*
X79091354Y-87178571D02*
X79055640Y-87250000D01*
X79055640Y-87250000D02*
X79055640Y-87392857D01*
X79055640Y-87392857D02*
X79091354Y-87464285D01*
X79091354Y-87464285D02*
X79127068Y-87500000D01*
X79127068Y-87500000D02*
X79198497Y-87535714D01*
X79198497Y-87535714D02*
X79412783Y-87535714D01*
X79412783Y-87535714D02*
X79484211Y-87500000D01*
X79484211Y-87500000D02*
X79519926Y-87464285D01*
X79519926Y-87464285D02*
X79555640Y-87392857D01*
X79555640Y-87392857D02*
X79555640Y-87250000D01*
X79555640Y-87250000D02*
X79519926Y-87178571D01*
X78805640Y-88571428D02*
X78805640Y-88642857D01*
X78805640Y-88642857D02*
X78841354Y-88714285D01*
X78841354Y-88714285D02*
X78877068Y-88750000D01*
X78877068Y-88750000D02*
X78948497Y-88785714D01*
X78948497Y-88785714D02*
X79091354Y-88821428D01*
X79091354Y-88821428D02*
X79269926Y-88821428D01*
X79269926Y-88821428D02*
X79412783Y-88785714D01*
X79412783Y-88785714D02*
X79484211Y-88750000D01*
X79484211Y-88750000D02*
X79519926Y-88714285D01*
X79519926Y-88714285D02*
X79555640Y-88642857D01*
X79555640Y-88642857D02*
X79555640Y-88571428D01*
X79555640Y-88571428D02*
X79519926Y-88500000D01*
X79519926Y-88500000D02*
X79484211Y-88464285D01*
X79484211Y-88464285D02*
X79412783Y-88428571D01*
X79412783Y-88428571D02*
X79269926Y-88392857D01*
X79269926Y-88392857D02*
X79091354Y-88392857D01*
X79091354Y-88392857D02*
X78948497Y-88428571D01*
X78948497Y-88428571D02*
X78877068Y-88464285D01*
X78877068Y-88464285D02*
X78841354Y-88500000D01*
X78841354Y-88500000D02*
X78805640Y-88571428D01*
X79484211Y-89142857D02*
X79519926Y-89178571D01*
X79519926Y-89178571D02*
X79555640Y-89142857D01*
X79555640Y-89142857D02*
X79519926Y-89107143D01*
X79519926Y-89107143D02*
X79484211Y-89142857D01*
X79484211Y-89142857D02*
X79555640Y-89142857D01*
X79555640Y-89892857D02*
X79555640Y-89464286D01*
X79555640Y-89678571D02*
X78805640Y-89678571D01*
X78805640Y-89678571D02*
X78912783Y-89607143D01*
X78912783Y-89607143D02*
X78984211Y-89535714D01*
X78984211Y-89535714D02*
X79019926Y-89464286D01*
X80548812Y-85357142D02*
X80548812Y-85714285D01*
X80763098Y-85285713D02*
X80013098Y-85535713D01*
X80013098Y-85535713D02*
X80763098Y-85785713D01*
X80370241Y-86285713D02*
X80405955Y-86392856D01*
X80405955Y-86392856D02*
X80441669Y-86428570D01*
X80441669Y-86428570D02*
X80513098Y-86464284D01*
X80513098Y-86464284D02*
X80620241Y-86464284D01*
X80620241Y-86464284D02*
X80691669Y-86428570D01*
X80691669Y-86428570D02*
X80727384Y-86392856D01*
X80727384Y-86392856D02*
X80763098Y-86321427D01*
X80763098Y-86321427D02*
X80763098Y-86035713D01*
X80763098Y-86035713D02*
X80013098Y-86035713D01*
X80013098Y-86035713D02*
X80013098Y-86285713D01*
X80013098Y-86285713D02*
X80048812Y-86357142D01*
X80048812Y-86357142D02*
X80084526Y-86392856D01*
X80084526Y-86392856D02*
X80155955Y-86428570D01*
X80155955Y-86428570D02*
X80227384Y-86428570D01*
X80227384Y-86428570D02*
X80298812Y-86392856D01*
X80298812Y-86392856D02*
X80334526Y-86357142D01*
X80334526Y-86357142D02*
X80370241Y-86285713D01*
X80370241Y-86285713D02*
X80370241Y-86035713D01*
X80084526Y-87321428D02*
X80048812Y-87357142D01*
X80048812Y-87357142D02*
X80013098Y-87428571D01*
X80013098Y-87428571D02*
X80013098Y-87607142D01*
X80013098Y-87607142D02*
X80048812Y-87678571D01*
X80048812Y-87678571D02*
X80084526Y-87714285D01*
X80084526Y-87714285D02*
X80155955Y-87749999D01*
X80155955Y-87749999D02*
X80227384Y-87749999D01*
X80227384Y-87749999D02*
X80334526Y-87714285D01*
X80334526Y-87714285D02*
X80763098Y-87285713D01*
X80763098Y-87285713D02*
X80763098Y-87749999D01*
X80013098Y-88214285D02*
X80013098Y-88285714D01*
X80013098Y-88285714D02*
X80048812Y-88357142D01*
X80048812Y-88357142D02*
X80084526Y-88392857D01*
X80084526Y-88392857D02*
X80155955Y-88428571D01*
X80155955Y-88428571D02*
X80298812Y-88464285D01*
X80298812Y-88464285D02*
X80477384Y-88464285D01*
X80477384Y-88464285D02*
X80620241Y-88428571D01*
X80620241Y-88428571D02*
X80691669Y-88392857D01*
X80691669Y-88392857D02*
X80727384Y-88357142D01*
X80727384Y-88357142D02*
X80763098Y-88285714D01*
X80763098Y-88285714D02*
X80763098Y-88214285D01*
X80763098Y-88214285D02*
X80727384Y-88142857D01*
X80727384Y-88142857D02*
X80691669Y-88107142D01*
X80691669Y-88107142D02*
X80620241Y-88071428D01*
X80620241Y-88071428D02*
X80477384Y-88035714D01*
X80477384Y-88035714D02*
X80298812Y-88035714D01*
X80298812Y-88035714D02*
X80155955Y-88071428D01*
X80155955Y-88071428D02*
X80084526Y-88107142D01*
X80084526Y-88107142D02*
X80048812Y-88142857D01*
X80048812Y-88142857D02*
X80013098Y-88214285D01*
X80084526Y-88750000D02*
X80048812Y-88785714D01*
X80048812Y-88785714D02*
X80013098Y-88857143D01*
X80013098Y-88857143D02*
X80013098Y-89035714D01*
X80013098Y-89035714D02*
X80048812Y-89107143D01*
X80048812Y-89107143D02*
X80084526Y-89142857D01*
X80084526Y-89142857D02*
X80155955Y-89178571D01*
X80155955Y-89178571D02*
X80227384Y-89178571D01*
X80227384Y-89178571D02*
X80334526Y-89142857D01*
X80334526Y-89142857D02*
X80763098Y-88714285D01*
X80763098Y-88714285D02*
X80763098Y-89178571D01*
X80013098Y-89857143D02*
X80013098Y-89500000D01*
X80013098Y-89500000D02*
X80370241Y-89464286D01*
X80370241Y-89464286D02*
X80334526Y-89500000D01*
X80334526Y-89500000D02*
X80298812Y-89571429D01*
X80298812Y-89571429D02*
X80298812Y-89750000D01*
X80298812Y-89750000D02*
X80334526Y-89821429D01*
X80334526Y-89821429D02*
X80370241Y-89857143D01*
X80370241Y-89857143D02*
X80441669Y-89892857D01*
X80441669Y-89892857D02*
X80620241Y-89892857D01*
X80620241Y-89892857D02*
X80691669Y-89857143D01*
X80691669Y-89857143D02*
X80727384Y-89821429D01*
X80727384Y-89821429D02*
X80763098Y-89750000D01*
X80763098Y-89750000D02*
X80763098Y-89571429D01*
X80763098Y-89571429D02*
X80727384Y-89500000D01*
X80727384Y-89500000D02*
X80691669Y-89464286D01*
X81970556Y-86624999D02*
X81220556Y-86624999D01*
X81220556Y-86624999D02*
X81756270Y-86874999D01*
X81756270Y-86874999D02*
X81220556Y-87124999D01*
X81220556Y-87124999D02*
X81970556Y-87124999D01*
X81970556Y-87482142D02*
X81220556Y-87482142D01*
X81220556Y-87732142D02*
X81220556Y-88160714D01*
X81970556Y-87946428D02*
X81220556Y-87946428D01*
X83178014Y-86071429D02*
X83178014Y-85714286D01*
X83178014Y-85714286D02*
X82428014Y-85714286D01*
X83178014Y-86321429D02*
X82678014Y-86321429D01*
X82428014Y-86321429D02*
X82463728Y-86285715D01*
X82463728Y-86285715D02*
X82499442Y-86321429D01*
X82499442Y-86321429D02*
X82463728Y-86357143D01*
X82463728Y-86357143D02*
X82428014Y-86321429D01*
X82428014Y-86321429D02*
X82499442Y-86321429D01*
X83142300Y-87000001D02*
X83178014Y-86928572D01*
X83178014Y-86928572D02*
X83178014Y-86785715D01*
X83178014Y-86785715D02*
X83142300Y-86714286D01*
X83142300Y-86714286D02*
X83106585Y-86678572D01*
X83106585Y-86678572D02*
X83035157Y-86642858D01*
X83035157Y-86642858D02*
X82820871Y-86642858D01*
X82820871Y-86642858D02*
X82749442Y-86678572D01*
X82749442Y-86678572D02*
X82713728Y-86714286D01*
X82713728Y-86714286D02*
X82678014Y-86785715D01*
X82678014Y-86785715D02*
X82678014Y-86928572D01*
X82678014Y-86928572D02*
X82713728Y-87000001D01*
X83142300Y-87607143D02*
X83178014Y-87535715D01*
X83178014Y-87535715D02*
X83178014Y-87392858D01*
X83178014Y-87392858D02*
X83142300Y-87321429D01*
X83142300Y-87321429D02*
X83070871Y-87285715D01*
X83070871Y-87285715D02*
X82785157Y-87285715D01*
X82785157Y-87285715D02*
X82713728Y-87321429D01*
X82713728Y-87321429D02*
X82678014Y-87392858D01*
X82678014Y-87392858D02*
X82678014Y-87535715D01*
X82678014Y-87535715D02*
X82713728Y-87607143D01*
X82713728Y-87607143D02*
X82785157Y-87642858D01*
X82785157Y-87642858D02*
X82856585Y-87642858D01*
X82856585Y-87642858D02*
X82928014Y-87285715D01*
X82678014Y-87964286D02*
X83178014Y-87964286D01*
X82749442Y-87964286D02*
X82713728Y-88000000D01*
X82713728Y-88000000D02*
X82678014Y-88071429D01*
X82678014Y-88071429D02*
X82678014Y-88178572D01*
X82678014Y-88178572D02*
X82713728Y-88250000D01*
X82713728Y-88250000D02*
X82785157Y-88285715D01*
X82785157Y-88285715D02*
X83178014Y-88285715D01*
X83142300Y-88607143D02*
X83178014Y-88678571D01*
X83178014Y-88678571D02*
X83178014Y-88821428D01*
X83178014Y-88821428D02*
X83142300Y-88892857D01*
X83142300Y-88892857D02*
X83070871Y-88928571D01*
X83070871Y-88928571D02*
X83035157Y-88928571D01*
X83035157Y-88928571D02*
X82963728Y-88892857D01*
X82963728Y-88892857D02*
X82928014Y-88821428D01*
X82928014Y-88821428D02*
X82928014Y-88714286D01*
X82928014Y-88714286D02*
X82892300Y-88642857D01*
X82892300Y-88642857D02*
X82820871Y-88607143D01*
X82820871Y-88607143D02*
X82785157Y-88607143D01*
X82785157Y-88607143D02*
X82713728Y-88642857D01*
X82713728Y-88642857D02*
X82678014Y-88714286D01*
X82678014Y-88714286D02*
X82678014Y-88821428D01*
X82678014Y-88821428D02*
X82713728Y-88892857D01*
X83142300Y-89535714D02*
X83178014Y-89464286D01*
X83178014Y-89464286D02*
X83178014Y-89321429D01*
X83178014Y-89321429D02*
X83142300Y-89250000D01*
X83142300Y-89250000D02*
X83070871Y-89214286D01*
X83070871Y-89214286D02*
X82785157Y-89214286D01*
X82785157Y-89214286D02*
X82713728Y-89250000D01*
X82713728Y-89250000D02*
X82678014Y-89321429D01*
X82678014Y-89321429D02*
X82678014Y-89464286D01*
X82678014Y-89464286D02*
X82713728Y-89535714D01*
X82713728Y-89535714D02*
X82785157Y-89571429D01*
X82785157Y-89571429D02*
X82856585Y-89571429D01*
X82856585Y-89571429D02*
X82928014Y-89214286D01*
D11*
%TO.C,G\u002A\u002A\u002A*%
G36*
X82031737Y-84212941D02*
G01*
X82025593Y-84219085D01*
X82019449Y-84212941D01*
X82025593Y-84206797D01*
X82031737Y-84212941D01*
G37*
G36*
X84383426Y-82391776D02*
G01*
X84381882Y-82396261D01*
X84376320Y-82397884D01*
X84351161Y-82396261D01*
X84349077Y-82391994D01*
X84366522Y-82390063D01*
X84383426Y-82391776D01*
G37*
G36*
X87684374Y-82679533D02*
G01*
X87686768Y-82684733D01*
X87694000Y-82709619D01*
X87703913Y-82749871D01*
X87715094Y-82799950D01*
X87731843Y-82904982D01*
X87738259Y-83029471D01*
X87737433Y-83063594D01*
X87732331Y-83146232D01*
X87723448Y-83226126D01*
X87711543Y-83299638D01*
X87697375Y-83363132D01*
X87681706Y-83412971D01*
X87665293Y-83445519D01*
X87648899Y-83457140D01*
X87629094Y-83455295D01*
X87583072Y-83444166D01*
X87535250Y-83426539D01*
X87498021Y-83406567D01*
X87484118Y-83397892D01*
X87443692Y-83376948D01*
X87387662Y-83351075D01*
X87320865Y-83322464D01*
X87248138Y-83293308D01*
X87223524Y-83281845D01*
X87188690Y-83251846D01*
X87170642Y-83208779D01*
X87167054Y-83148491D01*
X87167304Y-83116284D01*
X87164825Y-83087369D01*
X87159916Y-83076199D01*
X87154411Y-83066809D01*
X87149808Y-83039150D01*
X87146862Y-82999905D01*
X87145733Y-82955850D01*
X87146581Y-82913760D01*
X87149567Y-82880410D01*
X87154853Y-82862576D01*
X87161386Y-82844903D01*
X87155934Y-82805784D01*
X87154473Y-82800599D01*
X87148064Y-82774465D01*
X87146969Y-82763019D01*
X87163358Y-82757510D01*
X87200295Y-82748934D01*
X87252198Y-82738729D01*
X87314718Y-82727572D01*
X87383507Y-82716137D01*
X87454217Y-82705100D01*
X87522498Y-82695137D01*
X87584003Y-82686924D01*
X87634382Y-82681135D01*
X87669289Y-82678446D01*
X87684374Y-82679533D01*
G37*
G36*
X80670554Y-82981790D02*
G01*
X80727298Y-82989355D01*
X80744913Y-82994374D01*
X80793322Y-83020239D01*
X80844162Y-83061238D01*
X80891708Y-83112320D01*
X80930236Y-83168432D01*
X80943174Y-83195223D01*
X80951473Y-83225782D01*
X80954274Y-83263577D01*
X80951962Y-83314258D01*
X80944925Y-83383478D01*
X80939244Y-83417412D01*
X80917945Y-83490524D01*
X80886526Y-83564337D01*
X80848844Y-83630439D01*
X80808757Y-83680418D01*
X80796199Y-83693486D01*
X80778199Y-83716668D01*
X80773789Y-83730152D01*
X80774455Y-83734787D01*
X80761854Y-83739840D01*
X80745660Y-83745098D01*
X80715019Y-83761192D01*
X80678182Y-83784342D01*
X80645070Y-83804838D01*
X80607951Y-83823593D01*
X80581713Y-83832065D01*
X80579444Y-83832337D01*
X80545857Y-83840302D01*
X80508628Y-83853830D01*
X80480633Y-83863905D01*
X80451517Y-83865470D01*
X80413393Y-83856464D01*
X80397473Y-83851925D01*
X80370987Y-83845897D01*
X80360523Y-83845978D01*
X80359613Y-83847051D01*
X80347616Y-83840354D01*
X80326316Y-83822475D01*
X80301629Y-83798210D01*
X80285684Y-83784949D01*
X80265325Y-83776705D01*
X80253874Y-83770417D01*
X80239463Y-83748982D01*
X80230342Y-83722773D01*
X80231570Y-83702854D01*
X80232546Y-83695566D01*
X80228348Y-83669537D01*
X80218069Y-83633903D01*
X80206142Y-83584966D01*
X80198858Y-83521296D01*
X80198471Y-83458626D01*
X80205593Y-83408055D01*
X80211593Y-83384298D01*
X80219904Y-83346613D01*
X80221155Y-83340158D01*
X80232291Y-83281271D01*
X80242066Y-83227197D01*
X80249345Y-83184368D01*
X80252991Y-83159216D01*
X80255595Y-83147927D01*
X80264849Y-83137711D01*
X80267941Y-83136961D01*
X80274504Y-83123530D01*
X80274600Y-83122473D01*
X80285483Y-83105083D01*
X80310512Y-83079211D01*
X80344099Y-83049786D01*
X80380657Y-83021734D01*
X80414599Y-82999983D01*
X80435694Y-82992213D01*
X80481987Y-82983966D01*
X80541096Y-82979327D01*
X80606219Y-82978524D01*
X80670554Y-82981790D01*
G37*
G36*
X81327126Y-82476420D02*
G01*
X81430545Y-82490630D01*
X81527679Y-82513283D01*
X81609646Y-82542690D01*
X81611660Y-82543588D01*
X81643347Y-82555322D01*
X81666701Y-82560159D01*
X81675956Y-82562249D01*
X81692107Y-82578592D01*
X81697970Y-82587381D01*
X81719620Y-82597024D01*
X81729567Y-82597802D01*
X81773017Y-82614051D01*
X81824427Y-82649836D01*
X81881570Y-82703140D01*
X81942217Y-82771951D01*
X82004141Y-82854253D01*
X82066520Y-82951505D01*
X82113828Y-83046455D01*
X82142371Y-83135181D01*
X82153438Y-83220846D01*
X82155684Y-83262581D01*
X82159139Y-83294789D01*
X82163012Y-83309464D01*
X82164800Y-83322361D01*
X82165347Y-83354973D01*
X82164749Y-83402150D01*
X82163198Y-83458815D01*
X82160887Y-83519890D01*
X82158010Y-83580298D01*
X82154760Y-83634960D01*
X82151329Y-83678799D01*
X82147910Y-83706738D01*
X82141518Y-83732944D01*
X82125045Y-83783671D01*
X82103166Y-83841287D01*
X82079322Y-83896905D01*
X82056956Y-83941637D01*
X82030043Y-83987434D01*
X81953787Y-84097216D01*
X81874513Y-84182756D01*
X81792114Y-84244177D01*
X81777318Y-84253034D01*
X81750304Y-84270160D01*
X81736817Y-84280162D01*
X81726502Y-84289569D01*
X81689111Y-84312586D01*
X81632992Y-84338922D01*
X81561612Y-84366863D01*
X81553403Y-84369822D01*
X81507721Y-84385322D01*
X81470201Y-84394881D01*
X81432672Y-84399608D01*
X81386959Y-84400613D01*
X81324888Y-84399007D01*
X81280726Y-84397069D01*
X81226647Y-84393571D01*
X81183964Y-84389518D01*
X81159265Y-84385450D01*
X81145359Y-84381856D01*
X81107330Y-84373516D01*
X81063895Y-84365232D01*
X81043811Y-84361364D01*
X80991867Y-84349199D01*
X80947084Y-84336164D01*
X80937922Y-84333299D01*
X80890284Y-84323297D01*
X80845841Y-84320091D01*
X80841242Y-84320147D01*
X80793911Y-84313444D01*
X80747605Y-84296904D01*
X80701814Y-84273376D01*
X80655359Y-84248498D01*
X80622026Y-84229435D01*
X80606299Y-84218669D01*
X80599312Y-84211972D01*
X80576315Y-84192478D01*
X80546314Y-84168611D01*
X80515800Y-84145371D01*
X80491268Y-84127760D01*
X80479209Y-84120779D01*
X80471006Y-84118159D01*
X80450216Y-84102695D01*
X80430641Y-84081540D01*
X80421964Y-84064255D01*
X80419074Y-84054247D01*
X80403532Y-84034760D01*
X80397219Y-84029305D01*
X80384647Y-84013813D01*
X80392232Y-84009296D01*
X80418480Y-84015791D01*
X80461901Y-84033335D01*
X80464661Y-84034552D01*
X80517203Y-84053670D01*
X80580304Y-84071243D01*
X80640914Y-84083606D01*
X80658391Y-84086145D01*
X80733523Y-84092606D01*
X80808987Y-84090853D01*
X80889020Y-84080153D01*
X80977858Y-84059772D01*
X81079737Y-84028977D01*
X81198895Y-83987034D01*
X81231405Y-83975916D01*
X81269578Y-83965180D01*
X81294391Y-83961030D01*
X81306534Y-83957483D01*
X81335873Y-83938245D01*
X81373691Y-83905924D01*
X81416167Y-83864653D01*
X81459484Y-83818559D01*
X81499823Y-83771775D01*
X81533364Y-83728431D01*
X81556290Y-83692657D01*
X81564780Y-83668583D01*
X81567131Y-83652556D01*
X81577906Y-83634872D01*
X81583167Y-83629172D01*
X81584257Y-83609104D01*
X81583461Y-83599109D01*
X81596414Y-83584185D01*
X81605172Y-83578332D01*
X81609339Y-83561267D01*
X81608334Y-83553204D01*
X81611650Y-83524816D01*
X81620700Y-83487902D01*
X81625580Y-83470430D01*
X81631309Y-83432209D01*
X81625148Y-83406049D01*
X81618708Y-83387716D01*
X81626661Y-83364517D01*
X81634774Y-83344691D01*
X81628623Y-83311353D01*
X81622360Y-83283933D01*
X81629268Y-83262464D01*
X81635298Y-83253492D01*
X81629709Y-83233467D01*
X81625238Y-83225308D01*
X81615889Y-83195863D01*
X81608299Y-83157298D01*
X81604694Y-83137583D01*
X81594144Y-83101613D01*
X81582172Y-83079618D01*
X81572993Y-83067359D01*
X81564601Y-83041599D01*
X81561532Y-83032042D01*
X81545071Y-83007869D01*
X81518831Y-82977784D01*
X81487896Y-82946763D01*
X81457346Y-82919781D01*
X81432266Y-82901812D01*
X81417736Y-82897832D01*
X81412435Y-82899721D01*
X81405032Y-82890565D01*
X81404794Y-82887286D01*
X81392421Y-82862278D01*
X81368520Y-82840081D01*
X81343190Y-82830503D01*
X81330060Y-82827856D01*
X81306837Y-82812206D01*
X81296784Y-82802843D01*
X81283002Y-82799254D01*
X81269198Y-82798935D01*
X81240347Y-82791956D01*
X81205585Y-82780802D01*
X81173634Y-82768295D01*
X81153217Y-82757259D01*
X81152276Y-82756670D01*
X81132949Y-82750925D01*
X81094989Y-82743079D01*
X81043419Y-82734088D01*
X80983264Y-82724909D01*
X80932296Y-82717806D01*
X80878593Y-82711406D01*
X80836510Y-82708749D01*
X80798746Y-82709774D01*
X80758001Y-82714421D01*
X80706972Y-82722630D01*
X80674214Y-82728047D01*
X80629169Y-82734899D01*
X80597576Y-82738925D01*
X80584808Y-82739388D01*
X80584835Y-82732349D01*
X80599029Y-82712569D01*
X80626661Y-82685260D01*
X80663657Y-82654317D01*
X80705939Y-82623634D01*
X80731646Y-82607998D01*
X80801864Y-82574476D01*
X80886795Y-82542766D01*
X80979712Y-82514778D01*
X81073892Y-82492421D01*
X81162609Y-82477605D01*
X81239139Y-82472240D01*
X81327126Y-82476420D01*
G37*
G36*
X86776644Y-81035132D02*
G01*
X86829224Y-81037328D01*
X86872480Y-81041697D01*
X86911961Y-81048661D01*
X86953217Y-81058643D01*
X87043977Y-81085013D01*
X87227022Y-81154632D01*
X87392840Y-81241681D01*
X87541358Y-81346112D01*
X87672504Y-81467877D01*
X87786206Y-81606928D01*
X87815641Y-81646084D01*
X87851843Y-81690007D01*
X87882951Y-81723668D01*
X87886412Y-81727120D01*
X87913263Y-81756228D01*
X87950052Y-81798630D01*
X87992386Y-81849179D01*
X88035872Y-81902733D01*
X88067615Y-81941879D01*
X88130021Y-82015861D01*
X88194333Y-82088734D01*
X88258341Y-82158278D01*
X88319837Y-82222275D01*
X88376613Y-82278507D01*
X88426461Y-82324755D01*
X88467173Y-82358802D01*
X88496539Y-82378427D01*
X88512353Y-82381414D01*
X88513923Y-82380363D01*
X88513768Y-82384095D01*
X88513969Y-82387450D01*
X88526801Y-82401583D01*
X88551326Y-82420809D01*
X88580688Y-82440403D01*
X88608034Y-82455642D01*
X88626508Y-82461800D01*
X88634428Y-82462701D01*
X88648509Y-82467236D01*
X88671476Y-82477357D01*
X88707630Y-82494988D01*
X88761277Y-82522052D01*
X88776127Y-82529243D01*
X88808619Y-82542581D01*
X88829635Y-82547871D01*
X88842374Y-82550564D01*
X88872979Y-82561722D01*
X88910848Y-82578592D01*
X88957466Y-82598652D01*
X88995624Y-82608695D01*
X89016436Y-82604956D01*
X89018478Y-82587318D01*
X89017132Y-82581160D01*
X89013992Y-82551521D01*
X89011529Y-82507188D01*
X89010184Y-82455218D01*
X89015138Y-82331351D01*
X89035148Y-82188863D01*
X89070921Y-82034290D01*
X89123008Y-81864737D01*
X89129351Y-81846136D01*
X89154890Y-81773928D01*
X89176575Y-81718762D01*
X89196866Y-81675252D01*
X89218218Y-81638016D01*
X89243090Y-81601669D01*
X89253218Y-81588807D01*
X89280531Y-81557878D01*
X89315878Y-81520577D01*
X89355123Y-81480960D01*
X89394134Y-81443085D01*
X89428779Y-81411008D01*
X89454923Y-81388787D01*
X89468434Y-81380479D01*
X89468767Y-81380525D01*
X89473668Y-81393079D01*
X89477148Y-81423575D01*
X89478471Y-81465772D01*
X89478473Y-81467210D01*
X89480250Y-81510607D01*
X89484726Y-81543469D01*
X89490960Y-81558784D01*
X89494870Y-81562022D01*
X89497400Y-81576290D01*
X89495595Y-81590091D01*
X89494030Y-81624692D01*
X89492882Y-81675917D01*
X89492239Y-81739704D01*
X89492191Y-81811991D01*
X89492339Y-81858058D01*
X89492413Y-81967731D01*
X89491947Y-82056563D01*
X89490863Y-82127285D01*
X89489085Y-82182627D01*
X89486534Y-82225319D01*
X89483133Y-82258091D01*
X89478805Y-82283672D01*
X89474266Y-82320850D01*
X89472254Y-82371706D01*
X89473244Y-82424988D01*
X89475062Y-82473731D01*
X89476490Y-82538702D01*
X89477380Y-82611302D01*
X89477588Y-82683043D01*
X89477555Y-82695923D01*
X89477450Y-82758265D01*
X89477436Y-82812248D01*
X89477513Y-82852466D01*
X89477677Y-82873512D01*
X89478239Y-82898168D01*
X89479107Y-82933754D01*
X89475328Y-82960951D01*
X89463880Y-82979647D01*
X89451027Y-82984434D01*
X89412984Y-82988330D01*
X89359720Y-82987085D01*
X89296695Y-82981268D01*
X89229371Y-82971448D01*
X89163211Y-82958195D01*
X89103677Y-82942079D01*
X89056533Y-82927899D01*
X88995065Y-82912223D01*
X88945440Y-82902983D01*
X88913208Y-82901363D01*
X88905899Y-82901597D01*
X88876345Y-82898473D01*
X88838001Y-82891448D01*
X88799143Y-82882374D01*
X88768052Y-82873106D01*
X88753007Y-82865497D01*
X88752138Y-82864515D01*
X88734185Y-82856370D01*
X88703854Y-82849605D01*
X88676229Y-82844635D01*
X88630323Y-82834917D01*
X88581422Y-82823427D01*
X88532624Y-82813348D01*
X88468097Y-82803520D01*
X88407519Y-82797376D01*
X88313491Y-82791145D01*
X88274113Y-82713564D01*
X88251171Y-82672694D01*
X88223348Y-82630884D01*
X88199177Y-82601916D01*
X88192873Y-82595524D01*
X88172030Y-82567978D01*
X88163619Y-82545572D01*
X88160950Y-82529631D01*
X88147572Y-82524928D01*
X88121093Y-82539854D01*
X88112094Y-82547766D01*
X88105622Y-82560453D01*
X88103580Y-82581570D01*
X88105563Y-82616431D01*
X88111167Y-82670345D01*
X88113907Y-82699878D01*
X88117974Y-82766504D01*
X88121202Y-82849202D01*
X88123574Y-82943459D01*
X88125071Y-83044759D01*
X88125675Y-83148590D01*
X88125369Y-83250435D01*
X88124134Y-83345781D01*
X88121952Y-83430114D01*
X88118805Y-83498919D01*
X88114675Y-83547682D01*
X88113030Y-83560105D01*
X88103050Y-83618611D01*
X88090565Y-83673581D01*
X88077886Y-83714539D01*
X88065604Y-83748216D01*
X88060810Y-83773284D01*
X88068223Y-83782905D01*
X88088413Y-83780652D01*
X88102593Y-83771792D01*
X88126157Y-83746431D01*
X88150019Y-83712997D01*
X88168534Y-83679621D01*
X88176055Y-83654434D01*
X88177782Y-83645287D01*
X88188862Y-83616821D01*
X88206776Y-83581909D01*
X88216579Y-83563596D01*
X88231481Y-83529631D01*
X88237349Y-83506469D01*
X88242624Y-83485595D01*
X88258854Y-83457986D01*
X88259909Y-83456686D01*
X88270910Y-83444609D01*
X88283195Y-83438381D01*
X88302470Y-83437737D01*
X88334440Y-83442413D01*
X88384809Y-83452145D01*
X88402755Y-83455842D01*
X88450125Y-83467042D01*
X88486813Y-83477775D01*
X88506058Y-83486146D01*
X88513518Y-83489694D01*
X88544777Y-83495703D01*
X88593043Y-83499824D01*
X88653247Y-83502064D01*
X88720318Y-83502432D01*
X88789186Y-83500937D01*
X88854784Y-83497589D01*
X88912040Y-83492395D01*
X88955885Y-83485365D01*
X89024864Y-83469742D01*
X89073953Y-83458042D01*
X89107104Y-83449059D01*
X89128364Y-83441569D01*
X89141780Y-83434345D01*
X89151400Y-83426163D01*
X89164787Y-83416350D01*
X89191890Y-83407979D01*
X89192383Y-83407973D01*
X89218951Y-83402048D01*
X89251137Y-83388373D01*
X89251311Y-83388281D01*
X89284488Y-83373626D01*
X89312579Y-83365715D01*
X89341198Y-83360960D01*
X89377093Y-83353623D01*
X89417030Y-83344661D01*
X89418466Y-83453160D01*
X89418533Y-83458131D01*
X89419240Y-83507209D01*
X89420264Y-83574297D01*
X89421513Y-83653619D01*
X89422899Y-83739399D01*
X89424328Y-83825859D01*
X89424685Y-83847470D01*
X89425943Y-83928549D01*
X89426982Y-84003484D01*
X89427747Y-84067668D01*
X89428182Y-84116494D01*
X89428231Y-84145355D01*
X89427320Y-84244731D01*
X89426600Y-84332649D01*
X89426173Y-84400782D01*
X89426041Y-84451638D01*
X89426207Y-84487724D01*
X89426673Y-84511548D01*
X89427439Y-84525617D01*
X89428508Y-84532438D01*
X89430156Y-84549435D01*
X89430993Y-84583793D01*
X89430773Y-84627673D01*
X89428856Y-84669250D01*
X89423316Y-84700555D01*
X89413958Y-84710596D01*
X89407010Y-84708280D01*
X89383741Y-84691835D01*
X89351689Y-84663509D01*
X89315480Y-84627941D01*
X89279741Y-84589775D01*
X89249098Y-84553651D01*
X89228178Y-84524212D01*
X89214828Y-84501616D01*
X89189244Y-84458268D01*
X89163149Y-84414012D01*
X89151696Y-84393959D01*
X89130472Y-84350582D01*
X89115267Y-84306251D01*
X89104710Y-84255062D01*
X89097424Y-84191110D01*
X89092037Y-84108490D01*
X89090124Y-84049353D01*
X89091587Y-83954956D01*
X89098164Y-83866432D01*
X89109325Y-83789930D01*
X89124540Y-83731601D01*
X89126371Y-83726404D01*
X89133476Y-83696089D01*
X89127831Y-83678555D01*
X89106968Y-83673011D01*
X89068421Y-83678663D01*
X89009721Y-83694719D01*
X88997131Y-83698417D01*
X88931143Y-83715782D01*
X88857643Y-83732680D01*
X88790324Y-83745916D01*
X88733875Y-83756199D01*
X88647509Y-83775124D01*
X88572281Y-83797312D01*
X88500454Y-83825586D01*
X88424295Y-83862768D01*
X88336067Y-83911681D01*
X88293505Y-83936499D01*
X88197843Y-83995866D01*
X88119196Y-84051554D01*
X88053336Y-84107375D01*
X87996035Y-84167142D01*
X87943066Y-84234667D01*
X87890201Y-84313763D01*
X87837282Y-84393257D01*
X87781770Y-84464551D01*
X87729791Y-84517170D01*
X87728168Y-84518585D01*
X87689700Y-84555475D01*
X87656511Y-84593027D01*
X87635627Y-84623320D01*
X87609048Y-84664255D01*
X87567355Y-84715441D01*
X87516026Y-84770914D01*
X87460164Y-84825442D01*
X87404873Y-84873794D01*
X87355257Y-84910738D01*
X87288720Y-84949954D01*
X87161294Y-85003446D01*
X87026041Y-85033902D01*
X86883457Y-85041313D01*
X86734039Y-85025673D01*
X86578283Y-84986973D01*
X86416684Y-84925206D01*
X86332918Y-84886451D01*
X86236724Y-84838693D01*
X86145913Y-84790317D01*
X86064850Y-84743746D01*
X85997898Y-84701404D01*
X85949422Y-84665714D01*
X85922207Y-84642942D01*
X85842514Y-84575489D01*
X85777104Y-84518389D01*
X85722122Y-84467894D01*
X85673714Y-84420253D01*
X85628025Y-84371713D01*
X85581203Y-84318526D01*
X85529393Y-84256940D01*
X85515898Y-84240586D01*
X85459377Y-84170883D01*
X85394326Y-84089168D01*
X85325514Y-84001506D01*
X85264489Y-83922712D01*
X85867285Y-83922712D01*
X85874506Y-83941718D01*
X85899492Y-83969823D01*
X85931145Y-83993999D01*
X85973222Y-84003623D01*
X85976237Y-84003619D01*
X86002412Y-84006394D01*
X86013159Y-84012839D01*
X86013782Y-84015710D01*
X86026814Y-84022472D01*
X86039643Y-84027973D01*
X86066251Y-84045777D01*
X86099178Y-84071625D01*
X86127385Y-84094424D01*
X86153209Y-84113464D01*
X86166401Y-84120779D01*
X86173594Y-84123922D01*
X86195961Y-84138784D01*
X86226137Y-84161736D01*
X86243881Y-84175028D01*
X86284783Y-84201068D01*
X86320368Y-84218484D01*
X86325825Y-84220525D01*
X86367702Y-84237411D01*
X86421094Y-84260282D01*
X86476941Y-84285190D01*
X86526179Y-84308184D01*
X86545948Y-84314990D01*
X86561493Y-84313841D01*
X86565707Y-84312688D01*
X86587035Y-84317622D01*
X86617987Y-84331057D01*
X86624513Y-84334292D01*
X86670845Y-84349422D01*
X86720916Y-84348618D01*
X86730117Y-84347483D01*
X86763642Y-84346883D01*
X86775036Y-84354740D01*
X86780042Y-84361658D01*
X86801152Y-84359913D01*
X86819057Y-84356950D01*
X86818014Y-84366597D01*
X86816547Y-84370428D01*
X86823556Y-84375972D01*
X86847995Y-84376917D01*
X86893277Y-84373577D01*
X86937835Y-84369404D01*
X86977891Y-84365730D01*
X87002371Y-84363578D01*
X87017370Y-84360239D01*
X87043298Y-84345513D01*
X87053801Y-84337804D01*
X87069754Y-84335699D01*
X87075958Y-84336848D01*
X87100987Y-84330716D01*
X87136271Y-84315614D01*
X87175016Y-84295007D01*
X87210425Y-84272355D01*
X87235704Y-84251124D01*
X87240002Y-84246573D01*
X87260865Y-84226989D01*
X87273062Y-84219625D01*
X87287553Y-84214266D01*
X87310458Y-84197377D01*
X87334195Y-84175303D01*
X87351823Y-84154542D01*
X87356405Y-84141589D01*
X87354368Y-84136949D01*
X87361634Y-84137207D01*
X87375302Y-84135213D01*
X87392875Y-84117601D01*
X87397148Y-84111692D01*
X87418696Y-84085449D01*
X87450260Y-84049625D01*
X87486634Y-84010184D01*
X87493352Y-84002958D01*
X87535283Y-83953989D01*
X87575192Y-83901817D01*
X87605250Y-83856579D01*
X87634433Y-83807151D01*
X87656633Y-83770775D01*
X87673491Y-83745370D01*
X87688540Y-83725627D01*
X87705318Y-83706232D01*
X87706907Y-83704412D01*
X87729519Y-83670264D01*
X87746961Y-83631127D01*
X87747901Y-83628293D01*
X87764172Y-83588851D01*
X87782616Y-83555515D01*
X87797385Y-83529412D01*
X87804827Y-83506362D01*
X87805619Y-83492647D01*
X87808011Y-83432397D01*
X87807456Y-83392945D01*
X87803968Y-83376093D01*
X87802880Y-83370893D01*
X87806028Y-83347515D01*
X87814799Y-83313290D01*
X87818113Y-83301191D01*
X87827897Y-83249099D01*
X87831834Y-83199658D01*
X87832364Y-83182753D01*
X87836838Y-83149156D01*
X87844382Y-83130079D01*
X87846599Y-83124569D01*
X87850697Y-83098509D01*
X87854492Y-83056803D01*
X87857753Y-83005186D01*
X87860244Y-82949394D01*
X87861732Y-82895161D01*
X87861985Y-82848223D01*
X87860768Y-82814315D01*
X87857849Y-82799173D01*
X87857256Y-82798017D01*
X87854297Y-82779613D01*
X87851346Y-82744362D01*
X87848962Y-82698594D01*
X87847735Y-82671655D01*
X87838220Y-82563498D01*
X87821357Y-82473504D01*
X87796044Y-82397033D01*
X87761176Y-82329443D01*
X87742776Y-82298922D01*
X87727218Y-82271298D01*
X87721239Y-82258052D01*
X87720098Y-82253140D01*
X87706169Y-82229506D01*
X87678954Y-82193753D01*
X87641683Y-82149322D01*
X87597584Y-82099653D01*
X87549888Y-82048186D01*
X87501822Y-81998362D01*
X87456616Y-81953621D01*
X87417500Y-81917403D01*
X87387701Y-81893150D01*
X87370449Y-81884301D01*
X87357990Y-81881731D01*
X87327417Y-81870358D01*
X87289963Y-81852980D01*
X87249759Y-81833714D01*
X87193190Y-81809147D01*
X87135296Y-81786199D01*
X87081969Y-81767075D01*
X87039104Y-81753983D01*
X87012592Y-81749129D01*
X86994880Y-81746641D01*
X86977593Y-81736515D01*
X86974534Y-81732800D01*
X86955363Y-81726489D01*
X86941596Y-81726754D01*
X86908974Y-81724701D01*
X86867199Y-81720523D01*
X86865580Y-81720339D01*
X86823447Y-81716888D01*
X86764696Y-81713734D01*
X86696886Y-81711217D01*
X86627576Y-81709682D01*
X86590688Y-81709423D01*
X86497729Y-81712128D01*
X86420566Y-81721034D01*
X86352961Y-81737508D01*
X86288676Y-81762916D01*
X86221474Y-81798625D01*
X86191497Y-81815891D01*
X86156803Y-81833556D01*
X86128968Y-81842041D01*
X86099406Y-81843556D01*
X86059532Y-81840310D01*
X86027646Y-81837501D01*
X85995824Y-81837484D01*
X85975876Y-81843519D01*
X85960414Y-81856841D01*
X85954218Y-81863871D01*
X85946151Y-81878224D01*
X85952717Y-81891933D01*
X85976168Y-81913029D01*
X85979683Y-81915953D01*
X86014959Y-81942910D01*
X86047907Y-81964879D01*
X86054491Y-81969214D01*
X86084451Y-81996238D01*
X86111546Y-82029855D01*
X86117586Y-82038780D01*
X86142632Y-82072606D01*
X86164286Y-82097756D01*
X86178597Y-82115207D01*
X86203259Y-82149269D01*
X86234126Y-82194298D01*
X86267642Y-82245216D01*
X86297848Y-82291953D01*
X86330833Y-82342792D01*
X86358387Y-82385057D01*
X86376578Y-82412699D01*
X86408407Y-82464877D01*
X86455648Y-82568199D01*
X86487973Y-82682463D01*
X86506230Y-82811100D01*
X86511267Y-82957543D01*
X86510973Y-82986251D01*
X86509493Y-83047927D01*
X86506300Y-83093736D01*
X86500513Y-83129997D01*
X86491254Y-83163030D01*
X86477643Y-83199153D01*
X86461262Y-83242112D01*
X86446010Y-83287103D01*
X86436999Y-83319795D01*
X86436416Y-83322470D01*
X86425301Y-83351613D01*
X86410848Y-83367392D01*
X86404640Y-83371278D01*
X86385695Y-83393882D01*
X86366243Y-83427479D01*
X86351066Y-83463057D01*
X86344944Y-83491605D01*
X86337087Y-83518013D01*
X86310986Y-83559441D01*
X86268048Y-83611749D01*
X86209773Y-83672928D01*
X86169946Y-83712489D01*
X86130152Y-83752084D01*
X86099178Y-83782970D01*
X86075257Y-83802422D01*
X86037069Y-83823008D01*
X85998292Y-83835348D01*
X85965800Y-83837447D01*
X85946469Y-83827307D01*
X85942214Y-83822306D01*
X85925494Y-83819806D01*
X85909623Y-83832925D01*
X85902564Y-83856389D01*
X85899085Y-83875543D01*
X85884132Y-83899589D01*
X85876447Y-83906495D01*
X85867285Y-83922712D01*
X85264489Y-83922712D01*
X85257712Y-83913962D01*
X85195688Y-83832602D01*
X85079248Y-83683478D01*
X84963255Y-83546564D01*
X84851911Y-83427751D01*
X84828439Y-83404315D01*
X84761473Y-83339818D01*
X84698046Y-83282026D01*
X84640832Y-83233163D01*
X84592504Y-83195458D01*
X84555738Y-83171135D01*
X84533206Y-83162421D01*
X84517459Y-83155071D01*
X84494638Y-83136855D01*
X84464804Y-83117561D01*
X84427280Y-83105073D01*
X84392183Y-83096034D01*
X84361398Y-83082190D01*
X84351261Y-83077814D01*
X84316730Y-83069155D01*
X84265379Y-83059897D01*
X84202152Y-83050596D01*
X84131998Y-83041806D01*
X84059860Y-83034081D01*
X83990687Y-83027976D01*
X83929423Y-83024045D01*
X83881016Y-83022842D01*
X83850411Y-83024921D01*
X83840872Y-83026048D01*
X83809267Y-83028257D01*
X83763244Y-83030619D01*
X83709095Y-83032787D01*
X83659508Y-83035489D01*
X83568915Y-83044347D01*
X83475695Y-83057586D01*
X83386650Y-83074037D01*
X83308579Y-83092534D01*
X83248283Y-83111908D01*
X83229454Y-83118986D01*
X83178884Y-83136343D01*
X83118570Y-83155565D01*
X83057813Y-83173637D01*
X83000839Y-83190100D01*
X82928437Y-83212350D01*
X82873179Y-83231918D01*
X82830955Y-83250728D01*
X82797656Y-83270707D01*
X82769170Y-83293779D01*
X82741389Y-83321871D01*
X82712994Y-83354058D01*
X82693729Y-83382119D01*
X82685043Y-83408199D01*
X82683019Y-83440243D01*
X82682656Y-83451830D01*
X82676342Y-83495540D01*
X82664658Y-83530800D01*
X82662309Y-83536225D01*
X82653161Y-83567574D01*
X82642390Y-83616034D01*
X82631148Y-83676074D01*
X82620588Y-83742164D01*
X82618023Y-83759236D01*
X82606478Y-83827544D01*
X82593951Y-83890642D01*
X82581790Y-83942139D01*
X82571344Y-83975642D01*
X82565586Y-83989779D01*
X82541266Y-84050822D01*
X82526508Y-84090588D01*
X82521531Y-84108490D01*
X82518369Y-84115524D01*
X82504431Y-84133517D01*
X82501320Y-84137303D01*
X82484590Y-84164271D01*
X82467860Y-84199027D01*
X82450837Y-84233458D01*
X82420318Y-84285610D01*
X82382449Y-84344556D01*
X82341636Y-84403717D01*
X82302282Y-84456516D01*
X82268792Y-84496372D01*
X82240653Y-84525106D01*
X82154987Y-84598181D01*
X82053952Y-84665029D01*
X81935254Y-84726898D01*
X81796599Y-84785035D01*
X81635693Y-84840689D01*
X81628261Y-84843034D01*
X81467002Y-84886773D01*
X81308708Y-84914894D01*
X81145324Y-84928460D01*
X80968795Y-84928531D01*
X80888610Y-84924926D01*
X80786924Y-84916267D01*
X80700073Y-84902127D01*
X80622334Y-84880820D01*
X80547986Y-84850662D01*
X80471306Y-84809966D01*
X80386571Y-84757047D01*
X80383603Y-84755113D01*
X80349013Y-84733803D01*
X80311369Y-84712077D01*
X80309171Y-84710801D01*
X80280798Y-84689210D01*
X80240671Y-84652748D01*
X80192257Y-84605140D01*
X80139026Y-84550110D01*
X80084447Y-84491384D01*
X80031989Y-84432686D01*
X79985120Y-84377741D01*
X79947310Y-84330273D01*
X79922027Y-84294008D01*
X79909878Y-84273773D01*
X79822919Y-84111382D01*
X79756873Y-83950781D01*
X79710823Y-83787936D01*
X79683850Y-83618817D01*
X79678366Y-83507146D01*
X80038653Y-83507146D01*
X80039003Y-83564941D01*
X80041000Y-83611945D01*
X80044792Y-83641533D01*
X80047809Y-83653272D01*
X80063260Y-83706745D01*
X80080515Y-83751573D01*
X80104512Y-83800943D01*
X80120270Y-83832671D01*
X80134035Y-83863563D01*
X80139332Y-83880079D01*
X80140941Y-83887029D01*
X80153159Y-83913110D01*
X80174053Y-83949695D01*
X80199622Y-83990521D01*
X80225867Y-84029327D01*
X80248786Y-84059850D01*
X80264379Y-84075828D01*
X80277403Y-84086976D01*
X80286793Y-84105911D01*
X80288769Y-84113616D01*
X80305694Y-84138473D01*
X80335854Y-84169932D01*
X80374286Y-84203106D01*
X80416029Y-84233113D01*
X80421161Y-84236448D01*
X80457733Y-84261393D01*
X80503534Y-84293947D01*
X80549887Y-84327960D01*
X80565153Y-84339243D01*
X80602592Y-84365762D01*
X80630958Y-84384206D01*
X80645047Y-84391122D01*
X80652829Y-84392867D01*
X80678817Y-84402209D01*
X80713946Y-84416924D01*
X80746168Y-84431161D01*
X80786234Y-84448534D01*
X80816936Y-84461074D01*
X80846407Y-84472045D01*
X80882777Y-84484714D01*
X80924824Y-84495299D01*
X80986761Y-84504198D01*
X81054814Y-84508607D01*
X81083069Y-84509416D01*
X81153185Y-84511903D01*
X81229741Y-84515104D01*
X81300581Y-84518527D01*
X81340430Y-84520322D01*
X81389416Y-84521034D01*
X81415258Y-84518876D01*
X81417320Y-84513874D01*
X81412006Y-84508128D01*
X81422916Y-84503443D01*
X81456454Y-84501905D01*
X81495606Y-84500462D01*
X81593379Y-84485720D01*
X81683370Y-84456754D01*
X81758253Y-84415657D01*
X81794799Y-84391029D01*
X81825253Y-84373308D01*
X81842710Y-84366546D01*
X81843269Y-84366529D01*
X81862812Y-84357832D01*
X81887139Y-84337989D01*
X81888761Y-84336397D01*
X81912197Y-84318753D01*
X81929664Y-84314089D01*
X81939860Y-84311652D01*
X81951648Y-84293492D01*
X81958363Y-84278367D01*
X81969212Y-84268239D01*
X81988029Y-84258991D01*
X82016899Y-84233710D01*
X82051553Y-84196508D01*
X82087811Y-84151500D01*
X82110015Y-84122536D01*
X82131181Y-84096350D01*
X82142715Y-84083914D01*
X82145336Y-84081317D01*
X82158613Y-84059845D01*
X82176963Y-84023183D01*
X82197730Y-83977358D01*
X82218258Y-83928397D01*
X82235888Y-83882328D01*
X82247964Y-83845177D01*
X82254001Y-83821135D01*
X82265207Y-83770775D01*
X82277576Y-83710174D01*
X82289360Y-83647678D01*
X82301079Y-83580991D01*
X82312382Y-83510580D01*
X82318978Y-83458543D01*
X82321158Y-83421652D01*
X82319212Y-83396683D01*
X82313430Y-83380406D01*
X82307863Y-83367455D01*
X82310686Y-83358713D01*
X82313266Y-83356904D01*
X82303385Y-83347679D01*
X82297224Y-83340538D01*
X82287741Y-83308978D01*
X82282559Y-83256167D01*
X82279345Y-83215875D01*
X82273223Y-83175915D01*
X82265895Y-83151269D01*
X82258676Y-83132935D01*
X82252927Y-83098613D01*
X82249017Y-83072048D01*
X82238329Y-83030640D01*
X82223055Y-82981178D01*
X82205394Y-82930017D01*
X82187543Y-82883516D01*
X82171698Y-82848030D01*
X82160057Y-82829916D01*
X82151167Y-82819697D01*
X82142332Y-82794281D01*
X82141955Y-82790306D01*
X82129848Y-82762322D01*
X82103593Y-82723815D01*
X82067128Y-82679120D01*
X82024392Y-82632575D01*
X81979326Y-82588517D01*
X81935866Y-82551284D01*
X81897954Y-82525211D01*
X81893394Y-82522640D01*
X81860702Y-82504116D01*
X81824224Y-82483348D01*
X81817881Y-82479738D01*
X81780431Y-82458771D01*
X81749105Y-82441709D01*
X81744539Y-82439165D01*
X81712946Y-82418075D01*
X81679981Y-82391980D01*
X81663359Y-82378909D01*
X81628082Y-82362515D01*
X81581674Y-82357194D01*
X81539452Y-82354532D01*
X81484286Y-82348681D01*
X81428941Y-82340944D01*
X81373506Y-82334267D01*
X81285850Y-82330453D01*
X81196877Y-82333220D01*
X81115009Y-82342213D01*
X81048670Y-82357073D01*
X81024374Y-82364770D01*
X80969343Y-82382188D01*
X80920451Y-82397645D01*
X80898346Y-82404306D01*
X80864093Y-82413279D01*
X80843649Y-82416795D01*
X80837314Y-82417505D01*
X80827480Y-82425621D01*
X80822048Y-82430952D01*
X80798888Y-82442325D01*
X80763711Y-82455305D01*
X80734208Y-82466250D01*
X80645032Y-82514540D01*
X80557609Y-82584294D01*
X80537669Y-82601740D01*
X80496305Y-82634452D01*
X80453697Y-82665011D01*
X80401456Y-82703554D01*
X80312501Y-82785137D01*
X80237639Y-82874687D01*
X80218058Y-82901564D01*
X80193703Y-82933477D01*
X80177250Y-82953211D01*
X80160461Y-82977142D01*
X80138322Y-83018817D01*
X80115137Y-83069638D01*
X80094086Y-83122143D01*
X80078347Y-83168870D01*
X80071101Y-83202357D01*
X80071012Y-83203435D01*
X80063999Y-83248907D01*
X80052572Y-83293564D01*
X80050761Y-83300551D01*
X80046004Y-83335262D01*
X80042301Y-83385682D01*
X80039802Y-83445184D01*
X80038653Y-83507146D01*
X79678366Y-83507146D01*
X79675038Y-83439392D01*
X79683468Y-83245627D01*
X79696994Y-83104896D01*
X79714242Y-82977259D01*
X79736083Y-82865445D01*
X79763979Y-82765009D01*
X79799390Y-82671505D01*
X79843780Y-82580486D01*
X79898608Y-82487508D01*
X79965337Y-82388123D01*
X80004874Y-82334121D01*
X80113039Y-82207535D01*
X80226499Y-82104229D01*
X80344781Y-82024659D01*
X80346816Y-82023531D01*
X80389571Y-82002571D01*
X80447876Y-81977444D01*
X80514324Y-81951208D01*
X80581509Y-81926922D01*
X80741815Y-81872012D01*
X80926519Y-81872012D01*
X81113490Y-81878598D01*
X81285850Y-81899036D01*
X81301237Y-81900861D01*
X81486440Y-81940245D01*
X81677543Y-81998167D01*
X81755017Y-82025829D01*
X81862689Y-82069194D01*
X81955413Y-82114007D01*
X82038981Y-82163172D01*
X82119183Y-82219594D01*
X82146117Y-82239934D01*
X82192245Y-82274391D01*
X82231637Y-82303369D01*
X82257903Y-82322142D01*
X82288251Y-82345952D01*
X82336330Y-82390989D01*
X82387605Y-82445209D01*
X82436551Y-82502392D01*
X82477642Y-82556315D01*
X82505353Y-82600758D01*
X82518632Y-82627296D01*
X82531121Y-82648815D01*
X82544772Y-82660945D01*
X82564107Y-82664320D01*
X82593650Y-82659576D01*
X82637923Y-82647346D01*
X82701451Y-82628265D01*
X82722567Y-82622037D01*
X82777849Y-82606372D01*
X82826942Y-82593286D01*
X82861200Y-82585116D01*
X82864795Y-82584375D01*
X82903456Y-82576401D01*
X82954774Y-82565808D01*
X83008660Y-82554677D01*
X83014481Y-82553483D01*
X83069883Y-82542828D01*
X83122717Y-82533738D01*
X83162264Y-82528069D01*
X83172696Y-82526786D01*
X83219763Y-82519372D01*
X83260571Y-82510829D01*
X83260974Y-82510729D01*
X83287213Y-82506952D01*
X83333226Y-82503025D01*
X83394342Y-82499238D01*
X83465890Y-82495881D01*
X83543203Y-82493245D01*
X83548459Y-82493098D01*
X83671064Y-82489128D01*
X83773234Y-82484686D01*
X83854142Y-82479833D01*
X83912959Y-82474626D01*
X83948856Y-82469127D01*
X83961006Y-82463393D01*
X83963916Y-82461141D01*
X83984252Y-82458901D01*
X84017612Y-82460034D01*
X84040249Y-82460804D01*
X84092438Y-82458386D01*
X84143568Y-82451824D01*
X84172186Y-82446852D01*
X84226077Y-82438107D01*
X84289585Y-82428277D01*
X84354233Y-82418694D01*
X84404366Y-82410852D01*
X84461903Y-82400401D01*
X84508948Y-82390277D01*
X84538558Y-82381871D01*
X84567104Y-82371915D01*
X84613192Y-82358670D01*
X84657100Y-82348740D01*
X84691793Y-82343642D01*
X84710235Y-82344891D01*
X84719071Y-82345688D01*
X84737720Y-82334666D01*
X84746080Y-82327973D01*
X84774738Y-82310716D01*
X84811405Y-82292693D01*
X84829423Y-82283711D01*
X84865136Y-82260110D01*
X84888386Y-82236838D01*
X84909258Y-82214378D01*
X84936785Y-82199039D01*
X84937363Y-82198878D01*
X84957512Y-82187092D01*
X84990303Y-82161628D01*
X85031325Y-82126120D01*
X85076166Y-82084202D01*
X85088423Y-82072326D01*
X85135813Y-82026533D01*
X85195004Y-81969466D01*
X85261521Y-81905434D01*
X85330891Y-81838744D01*
X85398639Y-81773706D01*
X85422388Y-81750918D01*
X85490079Y-81685892D01*
X85557066Y-81621447D01*
X85619087Y-81561687D01*
X85671881Y-81510717D01*
X85711188Y-81472641D01*
X85726124Y-81458372D01*
X85817389Y-81379253D01*
X85920514Y-81301182D01*
X86029955Y-81227704D01*
X86140165Y-81162361D01*
X86245599Y-81108700D01*
X86340713Y-81070264D01*
X86351370Y-81066715D01*
X86388155Y-81055474D01*
X86422724Y-81047451D01*
X86460436Y-81042031D01*
X86506648Y-81038599D01*
X86566720Y-81036541D01*
X86590688Y-81036148D01*
X86646009Y-81035241D01*
X86709189Y-81034687D01*
X86776644Y-81035132D01*
G37*
%TD*%
M02*
