%TF.GenerationSoftware,KiCad,Pcbnew,8.0.5-dirty*%
%TF.CreationDate,2025-03-26T08:57:05-07:00*%
%TF.ProjectId,yorp,796f7270-2e6b-4696-9361-645f70636258,rev?*%
%TF.SameCoordinates,Original*%
%TF.FileFunction,Copper,L1,Top*%
%TF.FilePolarity,Positive*%
%FSLAX46Y46*%
G04 Gerber Fmt 4.6, Leading zero omitted, Abs format (unit mm)*
G04 Created by KiCad (PCBNEW 8.0.5-dirty) date 2025-03-26 08:57:05*
%MOMM*%
%LPD*%
G01*
G04 APERTURE LIST*
G04 Aperture macros list*
%AMRoundRect*
0 Rectangle with rounded corners*
0 $1 Rounding radius*
0 $2 $3 $4 $5 $6 $7 $8 $9 X,Y pos of 4 corners*
0 Add a 4 corners polygon primitive as box body*
4,1,4,$2,$3,$4,$5,$6,$7,$8,$9,$2,$3,0*
0 Add four circle primitives for the rounded corners*
1,1,$1+$1,$2,$3*
1,1,$1+$1,$4,$5*
1,1,$1+$1,$6,$7*
1,1,$1+$1,$8,$9*
0 Add four rect primitives between the rounded corners*
20,1,$1+$1,$2,$3,$4,$5,0*
20,1,$1+$1,$4,$5,$6,$7,0*
20,1,$1+$1,$6,$7,$8,$9,0*
20,1,$1+$1,$8,$9,$2,$3,0*%
G04 Aperture macros list end*
%TA.AperFunction,SMDPad,CuDef*%
%ADD10RoundRect,0.250000X0.325000X0.650000X-0.325000X0.650000X-0.325000X-0.650000X0.325000X-0.650000X0*%
%TD*%
%TA.AperFunction,SMDPad,CuDef*%
%ADD11RoundRect,0.250000X0.650000X-0.325000X0.650000X0.325000X-0.650000X0.325000X-0.650000X-0.325000X0*%
%TD*%
%TA.AperFunction,SMDPad,CuDef*%
%ADD12RoundRect,0.250000X0.475000X-0.250000X0.475000X0.250000X-0.475000X0.250000X-0.475000X-0.250000X0*%
%TD*%
%TA.AperFunction,ComponentPad*%
%ADD13R,1.700000X1.700000*%
%TD*%
%TA.AperFunction,ComponentPad*%
%ADD14O,1.700000X1.700000*%
%TD*%
%TA.AperFunction,SMDPad,CuDef*%
%ADD15RoundRect,0.150000X-0.512500X-0.150000X0.512500X-0.150000X0.512500X0.150000X-0.512500X0.150000X0*%
%TD*%
%TA.AperFunction,SMDPad,CuDef*%
%ADD16R,2.400000X1.500000*%
%TD*%
%TA.AperFunction,ViaPad*%
%ADD17C,0.600000*%
%TD*%
%TA.AperFunction,Conductor*%
%ADD18C,0.200000*%
%TD*%
%TA.AperFunction,Conductor*%
%ADD19C,0.750000*%
%TD*%
G04 APERTURE END LIST*
D10*
%TO.P,C7,1*%
%TO.N,/5V*%
X81775000Y-82050000D03*
%TO.P,C7,2*%
%TO.N,GND*%
X78825000Y-82050000D03*
%TD*%
D11*
%TO.P,C2,1*%
%TO.N,/3.3V*%
X81450000Y-89675000D03*
%TO.P,C2,2*%
%TO.N,GND*%
X81450000Y-86725000D03*
%TD*%
%TO.P,C3,1*%
%TO.N,/3.3V*%
X83775000Y-89675000D03*
%TO.P,C3,2*%
%TO.N,GND*%
X83775000Y-86725000D03*
%TD*%
D12*
%TO.P,C5,1*%
%TO.N,Net-(U1-SW)*%
X87850000Y-82950000D03*
%TO.P,C5,2*%
%TO.N,Net-(U1-BST)*%
X87850000Y-81050000D03*
%TD*%
D13*
%TO.P,J1,1,Pin_1*%
%TO.N,GND*%
X75000000Y-82935000D03*
D14*
%TO.P,J1,2,Pin_2*%
%TO.N,/3.3V*%
X75000000Y-85475000D03*
%TO.P,J1,3,Pin_3*%
%TO.N,/5V*%
X75000000Y-88015000D03*
%TD*%
D15*
%TO.P,U1,1,FB*%
%TO.N,/3.3V*%
X83662500Y-82450000D03*
%TO.P,U1,2,EN*%
%TO.N,/5V*%
X83662500Y-83400000D03*
%TO.P,U1,3,IN*%
X83662500Y-84350000D03*
%TO.P,U1,4,GND*%
%TO.N,GND*%
X85937500Y-84350000D03*
%TO.P,U1,5,SW*%
%TO.N,Net-(U1-SW)*%
X85937500Y-83400000D03*
%TO.P,U1,6,BST*%
%TO.N,Net-(U1-BST)*%
X85937500Y-82450000D03*
%TD*%
D11*
%TO.P,C4,1*%
%TO.N,/3.3V*%
X86075000Y-89675000D03*
%TO.P,C4,2*%
%TO.N,GND*%
X86075000Y-86725000D03*
%TD*%
%TO.P,C1,1*%
%TO.N,/3.3V*%
X79125000Y-89675000D03*
%TO.P,C1,2*%
%TO.N,GND*%
X79125000Y-86725000D03*
%TD*%
D16*
%TO.P,L1,1*%
%TO.N,Net-(U1-SW)*%
X92250000Y-83500000D03*
%TO.P,L1,2*%
%TO.N,/3.3V*%
X92250000Y-89000000D03*
%TD*%
D17*
%TO.N,GND*%
X85350000Y-85250000D03*
X78100000Y-84750000D03*
X76750000Y-89500000D03*
X84925000Y-86525000D03*
X92050000Y-80600000D03*
X80500000Y-90800000D03*
X80200000Y-87650000D03*
X86075000Y-87675000D03*
X74350000Y-80600000D03*
X76850000Y-80600000D03*
X80200000Y-86500000D03*
X84250000Y-90800000D03*
X86500000Y-85250000D03*
X79500000Y-80600000D03*
X82600000Y-87650000D03*
X82600000Y-86500000D03*
X84925000Y-87675000D03*
X82375000Y-80600000D03*
X79250000Y-90800000D03*
X76300000Y-81300000D03*
X86275000Y-80600000D03*
X78000000Y-83500000D03*
X78000000Y-90800000D03*
X79375000Y-83500000D03*
X89525000Y-80600000D03*
X75500000Y-89500000D03*
X76700000Y-84250000D03*
X84775000Y-82025000D03*
X86925000Y-84350000D03*
X94700000Y-80600000D03*
X76750000Y-90800000D03*
X83625000Y-80600000D03*
X93425000Y-80600000D03*
X84875000Y-84350000D03*
X83000000Y-90800000D03*
X75600000Y-80600000D03*
X74250000Y-90800000D03*
X82500000Y-85250000D03*
X90800000Y-80600000D03*
X78100000Y-80600000D03*
X81750000Y-90800000D03*
X78950000Y-87650000D03*
X81100000Y-80600000D03*
X75500000Y-90800000D03*
X85000000Y-80600000D03*
%TO.N,/3.3V*%
X83700000Y-81700000D03*
%TO.N,/5V*%
X80525000Y-82475000D03*
X80525000Y-81700000D03*
%TD*%
D18*
%TO.N,Net-(U1-BST)*%
X86450000Y-82450000D02*
X85937500Y-82450000D01*
X87850000Y-81050000D02*
X86450000Y-82450000D01*
%TO.N,/3.3V*%
X83700000Y-82412500D02*
X83662500Y-82450000D01*
X83700000Y-81700000D02*
X83700000Y-82412500D01*
D19*
%TO.N,/5V*%
X75050000Y-88050000D02*
X75000000Y-88000000D01*
%TD*%
%TA.AperFunction,Conductor*%
%TO.N,/5V*%
G36*
X82743039Y-81169685D02*
G01*
X82788794Y-81222489D01*
X82800000Y-81274000D01*
X82800000Y-82049999D01*
X82809439Y-82072787D01*
X82809120Y-82072918D01*
X82826008Y-82103846D01*
X82821024Y-82173538D01*
X82816244Y-82184660D01*
X82809429Y-82198600D01*
X82809425Y-82198611D01*
X82799500Y-82266739D01*
X82799500Y-82633260D01*
X82809426Y-82701391D01*
X82860803Y-82806485D01*
X82943514Y-82889196D01*
X82943515Y-82889196D01*
X82943517Y-82889198D01*
X83048607Y-82940573D01*
X83082673Y-82945536D01*
X83116739Y-82950500D01*
X84201000Y-82950500D01*
X84268039Y-82970185D01*
X84313794Y-83022989D01*
X84325000Y-83074500D01*
X84325000Y-84532533D01*
X84305315Y-84599572D01*
X84252511Y-84645327D01*
X84200981Y-84656533D01*
X82042869Y-84656201D01*
X81975832Y-84636506D01*
X81954910Y-84619584D01*
X79836022Y-82486267D01*
X79802745Y-82424831D01*
X79800000Y-82398884D01*
X79800000Y-81274000D01*
X79819685Y-81206961D01*
X79872489Y-81161206D01*
X79924000Y-81150000D01*
X82676000Y-81150000D01*
X82743039Y-81169685D01*
G37*
%TD.AperFunction*%
%TD*%
%TA.AperFunction,Conductor*%
%TO.N,/3.3V*%
G36*
X76015677Y-84419685D02*
G01*
X76036319Y-84436319D01*
X77963681Y-86363681D01*
X77997166Y-86425004D01*
X78000000Y-86451362D01*
X78000000Y-87500000D01*
X79150000Y-88650000D01*
X87898638Y-88650000D01*
X87965677Y-88669685D01*
X87986319Y-88686319D01*
X88900000Y-89600000D01*
X88975000Y-89600000D01*
X91050000Y-89600000D01*
X91050000Y-88449000D01*
X91069685Y-88381961D01*
X91122489Y-88336206D01*
X91174000Y-88325000D01*
X93337353Y-88325000D01*
X93404392Y-88344685D01*
X93450147Y-88397489D01*
X93461352Y-88449047D01*
X93461267Y-88669685D01*
X93460557Y-90488128D01*
X93440846Y-90555160D01*
X93424238Y-90575761D01*
X92930805Y-91069194D01*
X92869482Y-91102679D01*
X92843009Y-91105513D01*
X86917597Y-91100039D01*
X86850576Y-91080292D01*
X86841418Y-91073790D01*
X86835529Y-91069194D01*
X86176924Y-90555160D01*
X85850001Y-90300000D01*
X85850000Y-90300000D01*
X84334307Y-90300000D01*
X84327316Y-90299500D01*
X84321961Y-90299500D01*
X84178039Y-90299500D01*
X84172684Y-90299500D01*
X84165693Y-90300000D01*
X83084307Y-90300000D01*
X83077316Y-90299500D01*
X83071961Y-90299500D01*
X82928039Y-90299500D01*
X82922684Y-90299500D01*
X82915693Y-90300000D01*
X81834307Y-90300000D01*
X81827316Y-90299500D01*
X81821961Y-90299500D01*
X81678039Y-90299500D01*
X81672684Y-90299500D01*
X81665693Y-90300000D01*
X80584307Y-90300000D01*
X80577316Y-90299500D01*
X80571961Y-90299500D01*
X80428039Y-90299500D01*
X80422684Y-90299500D01*
X80415693Y-90300000D01*
X79334307Y-90300000D01*
X79327316Y-90299500D01*
X79321961Y-90299500D01*
X79178039Y-90299500D01*
X79172684Y-90299500D01*
X79165693Y-90300000D01*
X78451362Y-90300000D01*
X78384323Y-90280315D01*
X78363681Y-90263681D01*
X76361319Y-88261319D01*
X76327834Y-88199996D01*
X76325000Y-88173638D01*
X76325000Y-87500000D01*
X75600000Y-86775000D01*
X74176362Y-86775000D01*
X74109323Y-86755315D01*
X74088681Y-86738681D01*
X73786319Y-86436319D01*
X73752834Y-86374996D01*
X73750000Y-86348638D01*
X73750000Y-84701362D01*
X73769685Y-84634323D01*
X73786319Y-84613681D01*
X73963681Y-84436319D01*
X74025004Y-84402834D01*
X74051362Y-84400000D01*
X75948638Y-84400000D01*
X76015677Y-84419685D01*
G37*
%TD.AperFunction*%
%TD*%
%TA.AperFunction,Conductor*%
%TO.N,GND*%
G36*
X73780703Y-86721769D02*
G01*
X73787167Y-86727787D01*
X73874862Y-86815482D01*
X73943375Y-86883995D01*
X73959716Y-86898674D01*
X73959730Y-86898686D01*
X73959738Y-86898693D01*
X73968136Y-86905460D01*
X73980379Y-86915327D01*
X74051424Y-86952490D01*
X74118456Y-86972173D01*
X74118458Y-86972173D01*
X74118464Y-86972175D01*
X74176362Y-86980500D01*
X74258072Y-86980500D01*
X74325111Y-87000185D01*
X74370866Y-87052989D01*
X74380810Y-87122147D01*
X74351785Y-87185703D01*
X74336736Y-87200354D01*
X74253589Y-87268589D01*
X74122317Y-87428547D01*
X74024769Y-87611043D01*
X73964699Y-87809067D01*
X73944417Y-88015000D01*
X73964699Y-88220932D01*
X73988224Y-88298482D01*
X74024768Y-88418954D01*
X74122315Y-88601450D01*
X74122317Y-88601452D01*
X74253589Y-88761410D01*
X74350209Y-88840702D01*
X74413550Y-88892685D01*
X74596046Y-88990232D01*
X74794066Y-89050300D01*
X74794065Y-89050300D01*
X74812529Y-89052118D01*
X75000000Y-89070583D01*
X75205934Y-89050300D01*
X75403954Y-88990232D01*
X75586450Y-88892685D01*
X75746410Y-88761410D01*
X75877685Y-88601450D01*
X75975232Y-88418954D01*
X75976208Y-88415736D01*
X75977179Y-88414253D01*
X75977562Y-88413330D01*
X75977737Y-88413402D01*
X76014496Y-88357298D01*
X76078305Y-88328834D01*
X76147374Y-88339387D01*
X76194136Y-88377411D01*
X76216009Y-88406629D01*
X76216016Y-88406636D01*
X78218365Y-90408986D01*
X78218366Y-90408987D01*
X78234716Y-90423674D01*
X78234730Y-90423686D01*
X78234738Y-90423693D01*
X78243136Y-90430460D01*
X78255379Y-90440327D01*
X78326424Y-90477490D01*
X78393456Y-90497173D01*
X78393458Y-90497173D01*
X78393464Y-90497175D01*
X78451362Y-90505500D01*
X78451366Y-90505500D01*
X79165691Y-90505500D01*
X79165693Y-90505500D01*
X79177472Y-90505079D01*
X79181900Y-90505000D01*
X79318100Y-90505000D01*
X79322528Y-90505079D01*
X79334307Y-90505500D01*
X79334309Y-90505500D01*
X80415691Y-90505500D01*
X80415693Y-90505500D01*
X80427472Y-90505079D01*
X80431900Y-90505000D01*
X80568100Y-90505000D01*
X80572528Y-90505079D01*
X80584307Y-90505500D01*
X80584309Y-90505500D01*
X81665691Y-90505500D01*
X81665693Y-90505500D01*
X81677472Y-90505079D01*
X81681900Y-90505000D01*
X81818100Y-90505000D01*
X81822528Y-90505079D01*
X81834307Y-90505500D01*
X81834309Y-90505500D01*
X82915691Y-90505500D01*
X82915693Y-90505500D01*
X82927472Y-90505079D01*
X82931900Y-90505000D01*
X83068100Y-90505000D01*
X83072528Y-90505079D01*
X83084307Y-90505500D01*
X83084309Y-90505500D01*
X84165691Y-90505500D01*
X84165693Y-90505500D01*
X84177472Y-90505079D01*
X84181900Y-90505000D01*
X84318100Y-90505000D01*
X84322528Y-90505079D01*
X84334307Y-90505500D01*
X85736636Y-90505500D01*
X85803675Y-90525185D01*
X85812930Y-90531749D01*
X86050486Y-90717159D01*
X86294679Y-90907749D01*
X86335416Y-90964514D01*
X86338996Y-91034292D01*
X86304283Y-91094929D01*
X86242299Y-91127172D01*
X86218385Y-91129500D01*
X73699500Y-91129500D01*
X73632461Y-91109815D01*
X73586706Y-91057011D01*
X73575500Y-91005500D01*
X73575500Y-86815482D01*
X73595185Y-86748443D01*
X73647989Y-86702688D01*
X73717147Y-86692744D01*
X73780703Y-86721769D01*
G37*
%TD.AperFunction*%
%TA.AperFunction,Conductor*%
G36*
X95267539Y-79910185D02*
G01*
X95313294Y-79962989D01*
X95324500Y-80014500D01*
X95324500Y-82876000D01*
X95304815Y-82943039D01*
X95252011Y-82988794D01*
X95200500Y-83000000D01*
X93779500Y-83000000D01*
X93712461Y-82980315D01*
X93666706Y-82927511D01*
X93655500Y-82876000D01*
X93655500Y-82799834D01*
X93654904Y-82787524D01*
X93654541Y-82780019D01*
X93652233Y-82756208D01*
X93652232Y-82756206D01*
X93651661Y-82750307D01*
X93651939Y-82750280D01*
X93650500Y-82735348D01*
X93650500Y-82730249D01*
X93650499Y-82730247D01*
X93638868Y-82671770D01*
X93638867Y-82671768D01*
X93594552Y-82605448D01*
X93585919Y-82596815D01*
X93586704Y-82596029D01*
X93568721Y-82578622D01*
X93567853Y-82577411D01*
X93563828Y-82571792D01*
X92819610Y-81795674D01*
X92819607Y-81795671D01*
X92819584Y-81795649D01*
X92801894Y-81779251D01*
X92801893Y-81779250D01*
X92801883Y-81779242D01*
X92801879Y-81779238D01*
X92779393Y-81760730D01*
X92779392Y-81760729D01*
X92706647Y-81722206D01*
X92639603Y-81702537D01*
X92639605Y-81702537D01*
X92588351Y-81695181D01*
X92581705Y-81694227D01*
X92581704Y-81694227D01*
X88837298Y-81695112D01*
X88770254Y-81675443D01*
X88724487Y-81622650D01*
X88714527Y-81553494D01*
X88724866Y-81521701D01*
X88724724Y-81521652D01*
X88726970Y-81515232D01*
X88727644Y-81513161D01*
X88727785Y-81512892D01*
X88727793Y-81512882D01*
X88756134Y-81431889D01*
X88772646Y-81384701D01*
X88772646Y-81384699D01*
X88775500Y-81354269D01*
X88775500Y-80745730D01*
X88772646Y-80715300D01*
X88772646Y-80715298D01*
X88727793Y-80587119D01*
X88727792Y-80587117D01*
X88647150Y-80477850D01*
X88537882Y-80397207D01*
X88537880Y-80397206D01*
X88409700Y-80352353D01*
X88379270Y-80349500D01*
X88379266Y-80349500D01*
X87320734Y-80349500D01*
X87320730Y-80349500D01*
X87290300Y-80352353D01*
X87290298Y-80352353D01*
X87162119Y-80397206D01*
X87162117Y-80397207D01*
X87052850Y-80477850D01*
X86972207Y-80587117D01*
X86972206Y-80587119D01*
X86927353Y-80715298D01*
X86927353Y-80715300D01*
X86924500Y-80745730D01*
X86924500Y-81354269D01*
X86927353Y-81384699D01*
X86927353Y-81384700D01*
X86943865Y-81431889D01*
X86947426Y-81501668D01*
X86914504Y-81560523D01*
X86561847Y-81913181D01*
X86500524Y-81946666D01*
X86474166Y-81949500D01*
X85391739Y-81949500D01*
X85323608Y-81959426D01*
X85218514Y-82010803D01*
X85135803Y-82093514D01*
X85084426Y-82198608D01*
X85074500Y-82266739D01*
X85074500Y-82633260D01*
X85084426Y-82701391D01*
X85084427Y-82701393D01*
X85122870Y-82780031D01*
X85135803Y-82806485D01*
X85166637Y-82837319D01*
X85200122Y-82898642D01*
X85195138Y-82968334D01*
X85166637Y-83012681D01*
X85135803Y-83043514D01*
X85084426Y-83148608D01*
X85074500Y-83216739D01*
X85074500Y-83583260D01*
X85084426Y-83651391D01*
X85135803Y-83756485D01*
X85218514Y-83839196D01*
X85218515Y-83839196D01*
X85218517Y-83839198D01*
X85323607Y-83890573D01*
X85357673Y-83895536D01*
X85391739Y-83900500D01*
X85391740Y-83900500D01*
X85773051Y-83900500D01*
X85836207Y-83919044D01*
X85836505Y-83918513D01*
X85838835Y-83919816D01*
X85840090Y-83920185D01*
X85842428Y-83921826D01*
X85844245Y-83922842D01*
X85844246Y-83922843D01*
X85924063Y-83967490D01*
X85991102Y-83987175D01*
X86049000Y-83995500D01*
X87676000Y-83995500D01*
X87743039Y-84015185D01*
X87788794Y-84067989D01*
X87800000Y-84119500D01*
X87800000Y-88320500D01*
X87780315Y-88387539D01*
X87727511Y-88433294D01*
X87676000Y-88444500D01*
X79286482Y-88444500D01*
X79219443Y-88424815D01*
X79198801Y-88408181D01*
X78241819Y-87451199D01*
X78208334Y-87389876D01*
X78205500Y-87363518D01*
X78205500Y-86451361D01*
X78204321Y-86429381D01*
X78201488Y-86403034D01*
X78201487Y-86403032D01*
X78177529Y-86326518D01*
X78144044Y-86265195D01*
X78108991Y-86218371D01*
X78108983Y-86218363D01*
X76181634Y-84291013D01*
X76181633Y-84291012D01*
X76165283Y-84276325D01*
X76165269Y-84276313D01*
X76144620Y-84259672D01*
X76073575Y-84222509D01*
X76006543Y-84202826D01*
X76005894Y-84202732D01*
X75948638Y-84194500D01*
X74051362Y-84194500D01*
X74051361Y-84194500D01*
X74029381Y-84195678D01*
X74003034Y-84198511D01*
X74003032Y-84198512D01*
X73926521Y-84222470D01*
X73926516Y-84222471D01*
X73865188Y-84255960D01*
X73818384Y-84290998D01*
X73818370Y-84291010D01*
X73787180Y-84322200D01*
X73725856Y-84355684D01*
X73656165Y-84350698D01*
X73600232Y-84308826D01*
X73575816Y-84243361D01*
X73575500Y-84234517D01*
X73575500Y-81274003D01*
X79594500Y-81274003D01*
X79594500Y-82398884D01*
X79595639Y-82420504D01*
X79598384Y-82446448D01*
X79622049Y-82522706D01*
X79655326Y-82584142D01*
X79678487Y-82615301D01*
X79690219Y-82631084D01*
X81809107Y-84764401D01*
X81825678Y-84779363D01*
X81825686Y-84779370D01*
X81825690Y-84779373D01*
X81846599Y-84796285D01*
X81854892Y-84800633D01*
X81917906Y-84833673D01*
X81984943Y-84853368D01*
X82042837Y-84861701D01*
X84199617Y-84862032D01*
X84200945Y-84862033D01*
X84200945Y-84862032D01*
X84200949Y-84862033D01*
X84244650Y-84857340D01*
X84296180Y-84846134D01*
X84306373Y-84843643D01*
X84387085Y-84800633D01*
X84439889Y-84754878D01*
X84457843Y-84737287D01*
X84502490Y-84657470D01*
X84522175Y-84590431D01*
X84530500Y-84532533D01*
X84530500Y-83074500D01*
X84525803Y-83030816D01*
X84519099Y-83000000D01*
X84514602Y-82979325D01*
X84514348Y-82978289D01*
X84512110Y-82969127D01*
X84475433Y-82900299D01*
X84461279Y-82831878D01*
X84473466Y-82787524D01*
X84515573Y-82701393D01*
X84525500Y-82633260D01*
X84525500Y-82266740D01*
X84515573Y-82198607D01*
X84464198Y-82093517D01*
X84464196Y-82093515D01*
X84464196Y-82093514D01*
X84381485Y-82010803D01*
X84276388Y-81959424D01*
X84274146Y-81958732D01*
X84271826Y-81957194D01*
X84267742Y-81955198D01*
X84268004Y-81954661D01*
X84215907Y-81920133D01*
X84187781Y-81856174D01*
X84188018Y-81822613D01*
X84193164Y-81786819D01*
X84205647Y-81700000D01*
X84185165Y-81557543D01*
X84125377Y-81426627D01*
X84031128Y-81317857D01*
X83910053Y-81240047D01*
X83910051Y-81240046D01*
X83910049Y-81240045D01*
X83910050Y-81240045D01*
X83771963Y-81199500D01*
X83771961Y-81199500D01*
X83628039Y-81199500D01*
X83628036Y-81199500D01*
X83489949Y-81240045D01*
X83368873Y-81317856D01*
X83274623Y-81426626D01*
X83274622Y-81426628D01*
X83242294Y-81497416D01*
X83196539Y-81550220D01*
X83129499Y-81569904D01*
X83062460Y-81550219D01*
X83016705Y-81497415D01*
X83005500Y-81445904D01*
X83005500Y-81274008D01*
X83005499Y-81273992D01*
X83001849Y-81240045D01*
X83000803Y-81230316D01*
X82994099Y-81199500D01*
X82989602Y-81178825D01*
X82989348Y-81177789D01*
X82987110Y-81168627D01*
X82944100Y-81087915D01*
X82898345Y-81035111D01*
X82898339Y-81035104D01*
X82880757Y-81017160D01*
X82880756Y-81017159D01*
X82880754Y-81017157D01*
X82880752Y-81017156D01*
X82880750Y-81017154D01*
X82800940Y-80972511D01*
X82800935Y-80972509D01*
X82733903Y-80952826D01*
X82733899Y-80952825D01*
X82733898Y-80952825D01*
X82676000Y-80944500D01*
X79924000Y-80944500D01*
X79923992Y-80944500D01*
X79880313Y-80949197D01*
X79828825Y-80960397D01*
X79818627Y-80962890D01*
X79818624Y-80962891D01*
X79737916Y-81005899D01*
X79737913Y-81005901D01*
X79685104Y-81051660D01*
X79667160Y-81069242D01*
X79667154Y-81069249D01*
X79622511Y-81149059D01*
X79622509Y-81149064D01*
X79602826Y-81216096D01*
X79602825Y-81216101D01*
X79602825Y-81216102D01*
X79594502Y-81273992D01*
X79594500Y-81274003D01*
X73575500Y-81274003D01*
X73575500Y-80014500D01*
X73595185Y-79947461D01*
X73647989Y-79901706D01*
X73699500Y-79890500D01*
X95200500Y-79890500D01*
X95267539Y-79910185D01*
G37*
%TD.AperFunction*%
%TD*%
%TA.AperFunction,Conductor*%
%TO.N,Net-(U1-SW)*%
G36*
X92648797Y-81919396D02*
G01*
X92671283Y-81937904D01*
X93415501Y-82714022D01*
X93447692Y-82776034D01*
X93450000Y-82799845D01*
X93450000Y-84376000D01*
X93430315Y-84443039D01*
X93377511Y-84488794D01*
X93326000Y-84500000D01*
X90924000Y-84500000D01*
X90856961Y-84480315D01*
X90811206Y-84427511D01*
X90800000Y-84376000D01*
X90800000Y-83000000D01*
X89225000Y-83000000D01*
X89224536Y-83000481D01*
X88500323Y-83752042D01*
X88439630Y-83786657D01*
X88411032Y-83790000D01*
X86049000Y-83790000D01*
X85981961Y-83770315D01*
X85936206Y-83717511D01*
X85925000Y-83666000D01*
X85925000Y-83074500D01*
X85944685Y-83007461D01*
X85997489Y-82961706D01*
X86049000Y-82950500D01*
X86483261Y-82950500D01*
X86505971Y-82947191D01*
X86551393Y-82940573D01*
X86608615Y-82912598D01*
X86663075Y-82900000D01*
X87094946Y-82900000D01*
X88075456Y-81936334D01*
X88137066Y-81903383D01*
X88162343Y-81900773D01*
X92581754Y-81899727D01*
X92648797Y-81919396D01*
G37*
%TD.AperFunction*%
%TD*%
M02*
