%TF.GenerationSoftware,KiCad,Pcbnew,8.0.5-dirty*%
%TF.CreationDate,2025-05-16T12:44:22-07:00*%
%TF.ProjectId,yorp,796f7270-2e6b-4696-9361-645f70636258,rev?*%
%TF.SameCoordinates,Original*%
%TF.FileFunction,Legend,Top*%
%TF.FilePolarity,Positive*%
%FSLAX46Y46*%
G04 Gerber Fmt 4.6, Leading zero omitted, Abs format (unit mm)*
G04 Created by KiCad (PCBNEW 8.0.5-dirty) date 2025-05-16 12:44:22*
%MOMM*%
%LPD*%
G01*
G04 APERTURE LIST*
%ADD10C,0.100000*%
%ADD11C,0.150000*%
%ADD12C,0.120000*%
G04 APERTURE END LIST*
D10*
X77477580Y-84908646D02*
X77477580Y-85061027D01*
X77477580Y-85061027D02*
X77429961Y-85137217D01*
X77429961Y-85137217D02*
X77334723Y-85213408D01*
X77334723Y-85213408D02*
X77144247Y-85251503D01*
X77144247Y-85251503D02*
X76810914Y-85251503D01*
X76810914Y-85251503D02*
X76620438Y-85213408D01*
X76620438Y-85213408D02*
X76525200Y-85137217D01*
X76525200Y-85137217D02*
X76477580Y-85061027D01*
X76477580Y-85061027D02*
X76477580Y-84908646D01*
X76477580Y-84908646D02*
X76525200Y-84832455D01*
X76525200Y-84832455D02*
X76620438Y-84756265D01*
X76620438Y-84756265D02*
X76810914Y-84718169D01*
X76810914Y-84718169D02*
X77144247Y-84718169D01*
X77144247Y-84718169D02*
X77334723Y-84756265D01*
X77334723Y-84756265D02*
X77429961Y-84832455D01*
X77429961Y-84832455D02*
X77477580Y-84908646D01*
X77477580Y-85594360D02*
X76668057Y-85594360D01*
X76668057Y-85594360D02*
X76572819Y-85632455D01*
X76572819Y-85632455D02*
X76525200Y-85670550D01*
X76525200Y-85670550D02*
X76477580Y-85746741D01*
X76477580Y-85746741D02*
X76477580Y-85899122D01*
X76477580Y-85899122D02*
X76525200Y-85975312D01*
X76525200Y-85975312D02*
X76572819Y-86013407D01*
X76572819Y-86013407D02*
X76668057Y-86051503D01*
X76668057Y-86051503D02*
X77477580Y-86051503D01*
X77477580Y-86318169D02*
X77477580Y-86775312D01*
X76477580Y-86546740D02*
X77477580Y-86546740D01*
X76502580Y-87578884D02*
X77502580Y-87578884D01*
X76502580Y-88055074D02*
X77502580Y-88055074D01*
X77502580Y-88055074D02*
X76502580Y-88626502D01*
X76502580Y-88626502D02*
X77502580Y-88626502D01*
X76979961Y-82350312D02*
X77027580Y-82274122D01*
X77027580Y-82274122D02*
X77027580Y-82159836D01*
X77027580Y-82159836D02*
X76979961Y-82045550D01*
X76979961Y-82045550D02*
X76884723Y-81969360D01*
X76884723Y-81969360D02*
X76789485Y-81931265D01*
X76789485Y-81931265D02*
X76599009Y-81893169D01*
X76599009Y-81893169D02*
X76456152Y-81893169D01*
X76456152Y-81893169D02*
X76265676Y-81931265D01*
X76265676Y-81931265D02*
X76170438Y-81969360D01*
X76170438Y-81969360D02*
X76075200Y-82045550D01*
X76075200Y-82045550D02*
X76027580Y-82159836D01*
X76027580Y-82159836D02*
X76027580Y-82236027D01*
X76027580Y-82236027D02*
X76075200Y-82350312D01*
X76075200Y-82350312D02*
X76122819Y-82388408D01*
X76122819Y-82388408D02*
X76456152Y-82388408D01*
X76456152Y-82388408D02*
X76456152Y-82236027D01*
X76027580Y-82731265D02*
X77027580Y-82731265D01*
X77027580Y-82731265D02*
X76027580Y-83188408D01*
X76027580Y-83188408D02*
X77027580Y-83188408D01*
X76027580Y-83569360D02*
X77027580Y-83569360D01*
X77027580Y-83569360D02*
X77027580Y-83759836D01*
X77027580Y-83759836D02*
X76979961Y-83874122D01*
X76979961Y-83874122D02*
X76884723Y-83950312D01*
X76884723Y-83950312D02*
X76789485Y-83988407D01*
X76789485Y-83988407D02*
X76599009Y-84026503D01*
X76599009Y-84026503D02*
X76456152Y-84026503D01*
X76456152Y-84026503D02*
X76265676Y-83988407D01*
X76265676Y-83988407D02*
X76170438Y-83950312D01*
X76170438Y-83950312D02*
X76075200Y-83874122D01*
X76075200Y-83874122D02*
X76027580Y-83759836D01*
X76027580Y-83759836D02*
X76027580Y-83569360D01*
X79513704Y-86127329D02*
X79475608Y-86165425D01*
X79475608Y-86165425D02*
X79361323Y-86203520D01*
X79361323Y-86203520D02*
X79285132Y-86203520D01*
X79285132Y-86203520D02*
X79170846Y-86165425D01*
X79170846Y-86165425D02*
X79094656Y-86089234D01*
X79094656Y-86089234D02*
X79056561Y-86013044D01*
X79056561Y-86013044D02*
X79018465Y-85860663D01*
X79018465Y-85860663D02*
X79018465Y-85746377D01*
X79018465Y-85746377D02*
X79056561Y-85593996D01*
X79056561Y-85593996D02*
X79094656Y-85517805D01*
X79094656Y-85517805D02*
X79170846Y-85441615D01*
X79170846Y-85441615D02*
X79285132Y-85403520D01*
X79285132Y-85403520D02*
X79361323Y-85403520D01*
X79361323Y-85403520D02*
X79475608Y-85441615D01*
X79475608Y-85441615D02*
X79513704Y-85479710D01*
X79780370Y-85403520D02*
X80313704Y-85403520D01*
X80313704Y-85403520D02*
X79970846Y-86203520D01*
X77654167Y-80732419D02*
X77387500Y-80256228D01*
X77197024Y-80732419D02*
X77197024Y-79732419D01*
X77197024Y-79732419D02*
X77501786Y-79732419D01*
X77501786Y-79732419D02*
X77577976Y-79780038D01*
X77577976Y-79780038D02*
X77616071Y-79827657D01*
X77616071Y-79827657D02*
X77654167Y-79922895D01*
X77654167Y-79922895D02*
X77654167Y-80065752D01*
X77654167Y-80065752D02*
X77616071Y-80160990D01*
X77616071Y-80160990D02*
X77577976Y-80208609D01*
X77577976Y-80208609D02*
X77501786Y-80256228D01*
X77501786Y-80256228D02*
X77197024Y-80256228D01*
X78416071Y-80732419D02*
X77958928Y-80732419D01*
X78187500Y-80732419D02*
X78187500Y-79732419D01*
X78187500Y-79732419D02*
X78111309Y-79875276D01*
X78111309Y-79875276D02*
X78035119Y-79970514D01*
X78035119Y-79970514D02*
X77958928Y-80018133D01*
X81668704Y-88428332D02*
X81706800Y-88466428D01*
X81706800Y-88466428D02*
X81744895Y-88580713D01*
X81744895Y-88580713D02*
X81744895Y-88656904D01*
X81744895Y-88656904D02*
X81706800Y-88771190D01*
X81706800Y-88771190D02*
X81630609Y-88847380D01*
X81630609Y-88847380D02*
X81554419Y-88885475D01*
X81554419Y-88885475D02*
X81402038Y-88923571D01*
X81402038Y-88923571D02*
X81287752Y-88923571D01*
X81287752Y-88923571D02*
X81135371Y-88885475D01*
X81135371Y-88885475D02*
X81059180Y-88847380D01*
X81059180Y-88847380D02*
X80982990Y-88771190D01*
X80982990Y-88771190D02*
X80944895Y-88656904D01*
X80944895Y-88656904D02*
X80944895Y-88580713D01*
X80944895Y-88580713D02*
X80982990Y-88466428D01*
X80982990Y-88466428D02*
X81021085Y-88428332D01*
X81021085Y-88123571D02*
X80982990Y-88085475D01*
X80982990Y-88085475D02*
X80944895Y-88009285D01*
X80944895Y-88009285D02*
X80944895Y-87818809D01*
X80944895Y-87818809D02*
X80982990Y-87742618D01*
X80982990Y-87742618D02*
X81021085Y-87704523D01*
X81021085Y-87704523D02*
X81097276Y-87666428D01*
X81097276Y-87666428D02*
X81173466Y-87666428D01*
X81173466Y-87666428D02*
X81287752Y-87704523D01*
X81287752Y-87704523D02*
X81744895Y-88161666D01*
X81744895Y-88161666D02*
X81744895Y-87666428D01*
X86041667Y-80732419D02*
X85775000Y-80256228D01*
X85584524Y-80732419D02*
X85584524Y-79732419D01*
X85584524Y-79732419D02*
X85889286Y-79732419D01*
X85889286Y-79732419D02*
X85965476Y-79780038D01*
X85965476Y-79780038D02*
X86003571Y-79827657D01*
X86003571Y-79827657D02*
X86041667Y-79922895D01*
X86041667Y-79922895D02*
X86041667Y-80065752D01*
X86041667Y-80065752D02*
X86003571Y-80160990D01*
X86003571Y-80160990D02*
X85965476Y-80208609D01*
X85965476Y-80208609D02*
X85889286Y-80256228D01*
X85889286Y-80256228D02*
X85584524Y-80256228D01*
X86346428Y-79827657D02*
X86384524Y-79780038D01*
X86384524Y-79780038D02*
X86460714Y-79732419D01*
X86460714Y-79732419D02*
X86651190Y-79732419D01*
X86651190Y-79732419D02*
X86727381Y-79780038D01*
X86727381Y-79780038D02*
X86765476Y-79827657D01*
X86765476Y-79827657D02*
X86803571Y-79922895D01*
X86803571Y-79922895D02*
X86803571Y-80018133D01*
X86803571Y-80018133D02*
X86765476Y-80160990D01*
X86765476Y-80160990D02*
X86308333Y-80732419D01*
X86308333Y-80732419D02*
X86803571Y-80732419D01*
X84063704Y-88433332D02*
X84101800Y-88471428D01*
X84101800Y-88471428D02*
X84139895Y-88585713D01*
X84139895Y-88585713D02*
X84139895Y-88661904D01*
X84139895Y-88661904D02*
X84101800Y-88776190D01*
X84101800Y-88776190D02*
X84025609Y-88852380D01*
X84025609Y-88852380D02*
X83949419Y-88890475D01*
X83949419Y-88890475D02*
X83797038Y-88928571D01*
X83797038Y-88928571D02*
X83682752Y-88928571D01*
X83682752Y-88928571D02*
X83530371Y-88890475D01*
X83530371Y-88890475D02*
X83454180Y-88852380D01*
X83454180Y-88852380D02*
X83377990Y-88776190D01*
X83377990Y-88776190D02*
X83339895Y-88661904D01*
X83339895Y-88661904D02*
X83339895Y-88585713D01*
X83339895Y-88585713D02*
X83377990Y-88471428D01*
X83377990Y-88471428D02*
X83416085Y-88433332D01*
X83339895Y-88166666D02*
X83339895Y-87671428D01*
X83339895Y-87671428D02*
X83644657Y-87938094D01*
X83644657Y-87938094D02*
X83644657Y-87823809D01*
X83644657Y-87823809D02*
X83682752Y-87747618D01*
X83682752Y-87747618D02*
X83720847Y-87709523D01*
X83720847Y-87709523D02*
X83797038Y-87671428D01*
X83797038Y-87671428D02*
X83987514Y-87671428D01*
X83987514Y-87671428D02*
X84063704Y-87709523D01*
X84063704Y-87709523D02*
X84101800Y-87747618D01*
X84101800Y-87747618D02*
X84139895Y-87823809D01*
X84139895Y-87823809D02*
X84139895Y-88052380D01*
X84139895Y-88052380D02*
X84101800Y-88128571D01*
X84101800Y-88128571D02*
X84063704Y-88166666D01*
D11*
X87909580Y-84516666D02*
X87957200Y-84564285D01*
X87957200Y-84564285D02*
X88004819Y-84707142D01*
X88004819Y-84707142D02*
X88004819Y-84802380D01*
X88004819Y-84802380D02*
X87957200Y-84945237D01*
X87957200Y-84945237D02*
X87861961Y-85040475D01*
X87861961Y-85040475D02*
X87766723Y-85088094D01*
X87766723Y-85088094D02*
X87576247Y-85135713D01*
X87576247Y-85135713D02*
X87433390Y-85135713D01*
X87433390Y-85135713D02*
X87242914Y-85088094D01*
X87242914Y-85088094D02*
X87147676Y-85040475D01*
X87147676Y-85040475D02*
X87052438Y-84945237D01*
X87052438Y-84945237D02*
X87004819Y-84802380D01*
X87004819Y-84802380D02*
X87004819Y-84707142D01*
X87004819Y-84707142D02*
X87052438Y-84564285D01*
X87052438Y-84564285D02*
X87100057Y-84516666D01*
X87004819Y-83611904D02*
X87004819Y-84088094D01*
X87004819Y-84088094D02*
X87481009Y-84135713D01*
X87481009Y-84135713D02*
X87433390Y-84088094D01*
X87433390Y-84088094D02*
X87385771Y-83992856D01*
X87385771Y-83992856D02*
X87385771Y-83754761D01*
X87385771Y-83754761D02*
X87433390Y-83659523D01*
X87433390Y-83659523D02*
X87481009Y-83611904D01*
X87481009Y-83611904D02*
X87576247Y-83564285D01*
X87576247Y-83564285D02*
X87814342Y-83564285D01*
X87814342Y-83564285D02*
X87909580Y-83611904D01*
X87909580Y-83611904D02*
X87957200Y-83659523D01*
X87957200Y-83659523D02*
X88004819Y-83754761D01*
X88004819Y-83754761D02*
X88004819Y-83992856D01*
X88004819Y-83992856D02*
X87957200Y-84088094D01*
X87957200Y-84088094D02*
X87909580Y-84135713D01*
D10*
X83565476Y-85314895D02*
X83565476Y-85962514D01*
X83565476Y-85962514D02*
X83603571Y-86038704D01*
X83603571Y-86038704D02*
X83641666Y-86076800D01*
X83641666Y-86076800D02*
X83717857Y-86114895D01*
X83717857Y-86114895D02*
X83870238Y-86114895D01*
X83870238Y-86114895D02*
X83946428Y-86076800D01*
X83946428Y-86076800D02*
X83984523Y-86038704D01*
X83984523Y-86038704D02*
X84022619Y-85962514D01*
X84022619Y-85962514D02*
X84022619Y-85314895D01*
X84365475Y-85391085D02*
X84403571Y-85352990D01*
X84403571Y-85352990D02*
X84479761Y-85314895D01*
X84479761Y-85314895D02*
X84670237Y-85314895D01*
X84670237Y-85314895D02*
X84746428Y-85352990D01*
X84746428Y-85352990D02*
X84784523Y-85391085D01*
X84784523Y-85391085D02*
X84822618Y-85467276D01*
X84822618Y-85467276D02*
X84822618Y-85543466D01*
X84822618Y-85543466D02*
X84784523Y-85657752D01*
X84784523Y-85657752D02*
X84327380Y-86114895D01*
X84327380Y-86114895D02*
X84822618Y-86114895D01*
X86363704Y-88433332D02*
X86401800Y-88471428D01*
X86401800Y-88471428D02*
X86439895Y-88585713D01*
X86439895Y-88585713D02*
X86439895Y-88661904D01*
X86439895Y-88661904D02*
X86401800Y-88776190D01*
X86401800Y-88776190D02*
X86325609Y-88852380D01*
X86325609Y-88852380D02*
X86249419Y-88890475D01*
X86249419Y-88890475D02*
X86097038Y-88928571D01*
X86097038Y-88928571D02*
X85982752Y-88928571D01*
X85982752Y-88928571D02*
X85830371Y-88890475D01*
X85830371Y-88890475D02*
X85754180Y-88852380D01*
X85754180Y-88852380D02*
X85677990Y-88776190D01*
X85677990Y-88776190D02*
X85639895Y-88661904D01*
X85639895Y-88661904D02*
X85639895Y-88585713D01*
X85639895Y-88585713D02*
X85677990Y-88471428D01*
X85677990Y-88471428D02*
X85716085Y-88433332D01*
X85906561Y-87747618D02*
X86439895Y-87747618D01*
X85601800Y-87938094D02*
X86173228Y-88128571D01*
X86173228Y-88128571D02*
X86173228Y-87633332D01*
X79413704Y-88488332D02*
X79451800Y-88526428D01*
X79451800Y-88526428D02*
X79489895Y-88640713D01*
X79489895Y-88640713D02*
X79489895Y-88716904D01*
X79489895Y-88716904D02*
X79451800Y-88831190D01*
X79451800Y-88831190D02*
X79375609Y-88907380D01*
X79375609Y-88907380D02*
X79299419Y-88945475D01*
X79299419Y-88945475D02*
X79147038Y-88983571D01*
X79147038Y-88983571D02*
X79032752Y-88983571D01*
X79032752Y-88983571D02*
X78880371Y-88945475D01*
X78880371Y-88945475D02*
X78804180Y-88907380D01*
X78804180Y-88907380D02*
X78727990Y-88831190D01*
X78727990Y-88831190D02*
X78689895Y-88716904D01*
X78689895Y-88716904D02*
X78689895Y-88640713D01*
X78689895Y-88640713D02*
X78727990Y-88526428D01*
X78727990Y-88526428D02*
X78766085Y-88488332D01*
X79489895Y-87726428D02*
X79489895Y-88183571D01*
X79489895Y-87954999D02*
X78689895Y-87954999D01*
X78689895Y-87954999D02*
X78804180Y-88031190D01*
X78804180Y-88031190D02*
X78880371Y-88107380D01*
X78880371Y-88107380D02*
X78918466Y-88183571D01*
D11*
X92804819Y-86416666D02*
X92804819Y-86892856D01*
X92804819Y-86892856D02*
X91804819Y-86892856D01*
X92804819Y-85559523D02*
X92804819Y-86130951D01*
X92804819Y-85845237D02*
X91804819Y-85845237D01*
X91804819Y-85845237D02*
X91947676Y-85940475D01*
X91947676Y-85940475D02*
X92042914Y-86035713D01*
X92042914Y-86035713D02*
X92090533Y-86130951D01*
D10*
X77716667Y-82612180D02*
X77678571Y-82659800D01*
X77678571Y-82659800D02*
X77564286Y-82707419D01*
X77564286Y-82707419D02*
X77488095Y-82707419D01*
X77488095Y-82707419D02*
X77373809Y-82659800D01*
X77373809Y-82659800D02*
X77297619Y-82564561D01*
X77297619Y-82564561D02*
X77259524Y-82469323D01*
X77259524Y-82469323D02*
X77221428Y-82278847D01*
X77221428Y-82278847D02*
X77221428Y-82135990D01*
X77221428Y-82135990D02*
X77259524Y-81945514D01*
X77259524Y-81945514D02*
X77297619Y-81850276D01*
X77297619Y-81850276D02*
X77373809Y-81755038D01*
X77373809Y-81755038D02*
X77488095Y-81707419D01*
X77488095Y-81707419D02*
X77564286Y-81707419D01*
X77564286Y-81707419D02*
X77678571Y-81755038D01*
X77678571Y-81755038D02*
X77716667Y-81802657D01*
X78402381Y-81707419D02*
X78250000Y-81707419D01*
X78250000Y-81707419D02*
X78173809Y-81755038D01*
X78173809Y-81755038D02*
X78135714Y-81802657D01*
X78135714Y-81802657D02*
X78059524Y-81945514D01*
X78059524Y-81945514D02*
X78021428Y-82135990D01*
X78021428Y-82135990D02*
X78021428Y-82516942D01*
X78021428Y-82516942D02*
X78059524Y-82612180D01*
X78059524Y-82612180D02*
X78097619Y-82659800D01*
X78097619Y-82659800D02*
X78173809Y-82707419D01*
X78173809Y-82707419D02*
X78326190Y-82707419D01*
X78326190Y-82707419D02*
X78402381Y-82659800D01*
X78402381Y-82659800D02*
X78440476Y-82612180D01*
X78440476Y-82612180D02*
X78478571Y-82516942D01*
X78478571Y-82516942D02*
X78478571Y-82278847D01*
X78478571Y-82278847D02*
X78440476Y-82183609D01*
X78440476Y-82183609D02*
X78402381Y-82135990D01*
X78402381Y-82135990D02*
X78326190Y-82088371D01*
X78326190Y-82088371D02*
X78173809Y-82088371D01*
X78173809Y-82088371D02*
X78097619Y-82135990D01*
X78097619Y-82135990D02*
X78059524Y-82183609D01*
X78059524Y-82183609D02*
X78021428Y-82278847D01*
D12*
%TO.C,C7*%
X80433289Y-83453625D02*
X79010785Y-83453625D01*
X80433289Y-85273625D02*
X79010785Y-85273625D01*
%TO.C,R1*%
X80097936Y-79515000D02*
X80552064Y-79515000D01*
X80097936Y-80985000D02*
X80552064Y-80985000D01*
%TO.C,C2*%
X80540000Y-89036252D02*
X80540000Y-87613748D01*
X82360000Y-89036252D02*
X82360000Y-87613748D01*
%TO.C,R2*%
X83747936Y-79515000D02*
X84202064Y-79515000D01*
X83747936Y-80985000D02*
X84202064Y-80985000D01*
%TO.C,C3*%
X82865000Y-89011252D02*
X82865000Y-87588748D01*
X84685000Y-89011252D02*
X84685000Y-87588748D01*
%TO.C,C5*%
X86890000Y-81986252D02*
X86890000Y-81463748D01*
X88360000Y-81986252D02*
X88360000Y-81463748D01*
%TO.C,J1*%
X73670000Y-81605000D02*
X75000000Y-81605000D01*
X73670000Y-82935000D02*
X73670000Y-81605000D01*
X73670000Y-84205000D02*
X73670000Y-89345000D01*
X73670000Y-84205000D02*
X76330000Y-84205000D01*
X73670000Y-89345000D02*
X76330000Y-89345000D01*
X76330000Y-84205000D02*
X76330000Y-89345000D01*
%TO.C,U2*%
X84250000Y-82040000D02*
X83450000Y-82040000D01*
X84250000Y-82040000D02*
X85050000Y-82040000D01*
X84250000Y-85160000D02*
X83450000Y-85160000D01*
X84250000Y-85160000D02*
X85050000Y-85160000D01*
X82950000Y-82090000D02*
X82710000Y-81760000D01*
X83190000Y-81760000D01*
X82950000Y-82090000D01*
G36*
X82950000Y-82090000D02*
G01*
X82710000Y-81760000D01*
X83190000Y-81760000D01*
X82950000Y-82090000D01*
G37*
%TO.C,C4*%
X85165000Y-89011252D02*
X85165000Y-87588748D01*
X86985000Y-89011252D02*
X86985000Y-87588748D01*
%TO.C,C1*%
X78215000Y-89036252D02*
X78215000Y-87613748D01*
X80035000Y-89036252D02*
X80035000Y-87613748D01*
%TO.C,L1*%
X89150000Y-82950000D02*
X90850000Y-82950000D01*
X89150000Y-89550000D02*
X89150000Y-82950000D01*
X90850000Y-89550000D02*
X89150000Y-89550000D01*
X93850000Y-82950000D02*
X95550000Y-82950000D01*
X95550000Y-82950000D02*
X95550000Y-89550000D01*
X95550000Y-89550000D02*
X93850000Y-89550000D01*
%TO.C,C6*%
X80063748Y-81490000D02*
X80586252Y-81490000D01*
X80063748Y-82960000D02*
X80586252Y-82960000D01*
%TD*%
M02*
