%TF.GenerationSoftware,KiCad,Pcbnew,8.0.5-dirty*%
%TF.CreationDate,2025-03-26T08:57:05-07:00*%
%TF.ProjectId,yorp,796f7270-2e6b-4696-9361-645f70636258,rev?*%
%TF.SameCoordinates,Original*%
%TF.FileFunction,Copper,L3,Inr*%
%TF.FilePolarity,Positive*%
%FSLAX46Y46*%
G04 Gerber Fmt 4.6, Leading zero omitted, Abs format (unit mm)*
G04 Created by KiCad (PCBNEW 8.0.5-dirty) date 2025-03-26 08:57:05*
%MOMM*%
%LPD*%
G01*
G04 APERTURE LIST*
%TA.AperFunction,ComponentPad*%
%ADD10R,1.700000X1.700000*%
%TD*%
%TA.AperFunction,ComponentPad*%
%ADD11O,1.700000X1.700000*%
%TD*%
%TA.AperFunction,ViaPad*%
%ADD12C,0.600000*%
%TD*%
G04 APERTURE END LIST*
D10*
%TO.N,GND*%
%TO.C,J1*%
X75000000Y-82935000D03*
D11*
%TO.N,/3.3V*%
X75000000Y-85475000D03*
%TO.N,/5V*%
X75000000Y-88015000D03*
%TD*%
D12*
%TO.N,GND*%
X85350000Y-85250000D03*
X78100000Y-84750000D03*
X76750000Y-89500000D03*
X84925000Y-86525000D03*
X92050000Y-80600000D03*
X80500000Y-90800000D03*
X80200000Y-87650000D03*
X86075000Y-87675000D03*
X74350000Y-80600000D03*
X76850000Y-80600000D03*
X80200000Y-86500000D03*
X84250000Y-90800000D03*
X86500000Y-85250000D03*
X79500000Y-80600000D03*
X82600000Y-87650000D03*
X82600000Y-86500000D03*
X84925000Y-87675000D03*
X82375000Y-80600000D03*
X79250000Y-90800000D03*
X76300000Y-81300000D03*
X86275000Y-80600000D03*
X78000000Y-83500000D03*
X78000000Y-90800000D03*
X79375000Y-83500000D03*
X89525000Y-80600000D03*
X75500000Y-89500000D03*
X76700000Y-84250000D03*
X84775000Y-82025000D03*
X86925000Y-84350000D03*
X94700000Y-80600000D03*
X76750000Y-90800000D03*
X83625000Y-80600000D03*
X93425000Y-80600000D03*
X84875000Y-84350000D03*
X83000000Y-90800000D03*
X75600000Y-80600000D03*
X74250000Y-90800000D03*
X82500000Y-85250000D03*
X90800000Y-80600000D03*
X78100000Y-80600000D03*
X81750000Y-90800000D03*
X78950000Y-87650000D03*
X81100000Y-80600000D03*
X75500000Y-90800000D03*
X85000000Y-80600000D03*
%TO.N,/3.3V*%
X83700000Y-81700000D03*
%TO.N,/5V*%
X80525000Y-82475000D03*
X80525000Y-81700000D03*
%TD*%
%TA.AperFunction,Conductor*%
%TO.N,GND*%
G36*
X95267539Y-79910185D02*
G01*
X95313294Y-79962989D01*
X95324500Y-80014500D01*
X95324500Y-91005500D01*
X95304815Y-91072539D01*
X95252011Y-91118294D01*
X95200500Y-91129500D01*
X73699500Y-91129500D01*
X73632461Y-91109815D01*
X73586706Y-91057011D01*
X73575500Y-91005500D01*
X73575500Y-88015000D01*
X73944417Y-88015000D01*
X73964699Y-88220932D01*
X73964700Y-88220934D01*
X74024768Y-88418954D01*
X74122315Y-88601450D01*
X74122317Y-88601452D01*
X74253589Y-88761410D01*
X74350209Y-88840702D01*
X74413550Y-88892685D01*
X74596046Y-88990232D01*
X74794066Y-89050300D01*
X74794065Y-89050300D01*
X74812529Y-89052118D01*
X75000000Y-89070583D01*
X75205934Y-89050300D01*
X75403954Y-88990232D01*
X75586450Y-88892685D01*
X75746410Y-88761410D01*
X75877685Y-88601450D01*
X75975232Y-88418954D01*
X76035300Y-88220934D01*
X76055583Y-88015000D01*
X76035300Y-87809066D01*
X75975232Y-87611046D01*
X75877685Y-87428550D01*
X75825702Y-87365209D01*
X75746410Y-87268589D01*
X75586452Y-87137317D01*
X75586453Y-87137317D01*
X75586450Y-87137315D01*
X75403954Y-87039768D01*
X75205934Y-86979700D01*
X75205932Y-86979699D01*
X75205934Y-86979699D01*
X75000000Y-86959417D01*
X74794067Y-86979699D01*
X74596043Y-87039769D01*
X74485898Y-87098643D01*
X74413550Y-87137315D01*
X74413548Y-87137316D01*
X74413547Y-87137317D01*
X74253589Y-87268589D01*
X74122317Y-87428547D01*
X74024769Y-87611043D01*
X73964699Y-87809067D01*
X73944417Y-88015000D01*
X73575500Y-88015000D01*
X73575500Y-85475000D01*
X73944417Y-85475000D01*
X73964699Y-85680932D01*
X73964700Y-85680934D01*
X74024768Y-85878954D01*
X74122315Y-86061450D01*
X74122317Y-86061452D01*
X74253589Y-86221410D01*
X74350209Y-86300702D01*
X74413550Y-86352685D01*
X74596046Y-86450232D01*
X74794066Y-86510300D01*
X74794065Y-86510300D01*
X74812529Y-86512118D01*
X75000000Y-86530583D01*
X75205934Y-86510300D01*
X75403954Y-86450232D01*
X75586450Y-86352685D01*
X75746410Y-86221410D01*
X75877685Y-86061450D01*
X75975232Y-85878954D01*
X76035300Y-85680934D01*
X76055583Y-85475000D01*
X76035300Y-85269066D01*
X75975232Y-85071046D01*
X75877685Y-84888550D01*
X75825702Y-84825209D01*
X75746410Y-84728589D01*
X75586452Y-84597317D01*
X75586453Y-84597317D01*
X75586450Y-84597315D01*
X75403954Y-84499768D01*
X75205934Y-84439700D01*
X75205932Y-84439699D01*
X75205934Y-84439699D01*
X75000000Y-84419417D01*
X74794067Y-84439699D01*
X74596043Y-84499769D01*
X74485898Y-84558643D01*
X74413550Y-84597315D01*
X74413548Y-84597316D01*
X74413547Y-84597317D01*
X74253589Y-84728589D01*
X74122317Y-84888547D01*
X74024769Y-85071043D01*
X73964699Y-85269067D01*
X73944417Y-85475000D01*
X73575500Y-85475000D01*
X73575500Y-81700000D01*
X80019353Y-81700000D01*
X80039834Y-81842456D01*
X80099622Y-81973371D01*
X80099625Y-81973377D01*
X80128152Y-82006299D01*
X80157176Y-82069855D01*
X80147232Y-82139013D01*
X80128152Y-82168701D01*
X80099625Y-82201622D01*
X80099622Y-82201628D01*
X80039834Y-82332543D01*
X80019353Y-82475000D01*
X80039834Y-82617456D01*
X80099622Y-82748371D01*
X80099623Y-82748373D01*
X80193872Y-82857143D01*
X80314947Y-82934953D01*
X80314950Y-82934954D01*
X80314949Y-82934954D01*
X80453036Y-82975499D01*
X80453038Y-82975500D01*
X80453039Y-82975500D01*
X80596962Y-82975500D01*
X80596962Y-82975499D01*
X80735053Y-82934953D01*
X80856128Y-82857143D01*
X80950377Y-82748373D01*
X81010165Y-82617457D01*
X81030647Y-82475000D01*
X81010165Y-82332543D01*
X80950377Y-82201627D01*
X80921847Y-82168701D01*
X80892823Y-82105147D01*
X80902767Y-82035989D01*
X80921848Y-82006297D01*
X80950377Y-81973373D01*
X81010165Y-81842457D01*
X81030647Y-81700000D01*
X83194353Y-81700000D01*
X83214834Y-81842456D01*
X83274622Y-81973371D01*
X83274623Y-81973373D01*
X83368872Y-82082143D01*
X83489947Y-82159953D01*
X83489950Y-82159954D01*
X83489949Y-82159954D01*
X83628036Y-82200499D01*
X83628038Y-82200500D01*
X83628039Y-82200500D01*
X83771962Y-82200500D01*
X83771962Y-82200499D01*
X83910053Y-82159953D01*
X84031128Y-82082143D01*
X84125377Y-81973373D01*
X84185165Y-81842457D01*
X84205647Y-81700000D01*
X84185165Y-81557543D01*
X84125377Y-81426627D01*
X84031128Y-81317857D01*
X83910053Y-81240047D01*
X83910051Y-81240046D01*
X83910049Y-81240045D01*
X83910050Y-81240045D01*
X83771963Y-81199500D01*
X83771961Y-81199500D01*
X83628039Y-81199500D01*
X83628036Y-81199500D01*
X83489949Y-81240045D01*
X83368873Y-81317856D01*
X83274623Y-81426626D01*
X83274622Y-81426628D01*
X83214834Y-81557543D01*
X83194353Y-81700000D01*
X81030647Y-81700000D01*
X81010165Y-81557543D01*
X80950377Y-81426627D01*
X80856128Y-81317857D01*
X80735053Y-81240047D01*
X80735051Y-81240046D01*
X80735049Y-81240045D01*
X80735050Y-81240045D01*
X80596963Y-81199500D01*
X80596961Y-81199500D01*
X80453039Y-81199500D01*
X80453036Y-81199500D01*
X80314949Y-81240045D01*
X80193873Y-81317856D01*
X80099623Y-81426626D01*
X80099622Y-81426628D01*
X80039834Y-81557543D01*
X80019353Y-81700000D01*
X73575500Y-81700000D01*
X73575500Y-80014500D01*
X73595185Y-79947461D01*
X73647989Y-79901706D01*
X73699500Y-79890500D01*
X95200500Y-79890500D01*
X95267539Y-79910185D01*
G37*
%TD.AperFunction*%
%TD*%
M02*
