%TF.GenerationSoftware,KiCad,Pcbnew,8.0.5-dirty*%
%TF.CreationDate,2025-03-26T08:57:05-07:00*%
%TF.ProjectId,yorp,796f7270-2e6b-4696-9361-645f70636258,rev?*%
%TF.SameCoordinates,Original*%
%TF.FileFunction,Copper,L4,Bot*%
%TF.FilePolarity,Positive*%
%FSLAX46Y46*%
G04 Gerber Fmt 4.6, Leading zero omitted, Abs format (unit mm)*
G04 Created by KiCad (PCBNEW 8.0.5-dirty) date 2025-03-26 08:57:05*
%MOMM*%
%LPD*%
G01*
G04 APERTURE LIST*
%TA.AperFunction,ComponentPad*%
%ADD10R,1.700000X1.700000*%
%TD*%
%TA.AperFunction,ComponentPad*%
%ADD11O,1.700000X1.700000*%
%TD*%
%TA.AperFunction,ViaPad*%
%ADD12C,0.600000*%
%TD*%
%TA.AperFunction,Conductor*%
%ADD13C,0.200000*%
%TD*%
%TA.AperFunction,Conductor*%
%ADD14C,1.300000*%
%TD*%
G04 APERTURE END LIST*
D10*
%TO.P,J1,1,Pin_1*%
%TO.N,GND*%
X75000000Y-82935000D03*
D11*
%TO.P,J1,2,Pin_2*%
%TO.N,/3.3V*%
X75000000Y-85475000D03*
%TO.P,J1,3,Pin_3*%
%TO.N,/5V*%
X75000000Y-88015000D03*
%TD*%
D12*
%TO.N,GND*%
X85350000Y-85250000D03*
X78100000Y-84750000D03*
X76750000Y-89500000D03*
X84925000Y-86525000D03*
X92050000Y-80600000D03*
X80500000Y-90800000D03*
X80200000Y-87650000D03*
X86075000Y-87675000D03*
X74350000Y-80600000D03*
X76850000Y-80600000D03*
X80200000Y-86500000D03*
X84250000Y-90800000D03*
X86500000Y-85250000D03*
X79500000Y-80600000D03*
X82600000Y-87650000D03*
X82600000Y-86500000D03*
X84925000Y-87675000D03*
X82375000Y-80600000D03*
X79250000Y-90800000D03*
X76300000Y-81300000D03*
X86275000Y-80600000D03*
X78000000Y-83500000D03*
X78000000Y-90800000D03*
X79375000Y-83500000D03*
X89525000Y-80600000D03*
X75500000Y-89500000D03*
X76700000Y-84250000D03*
X84775000Y-82025000D03*
X86925000Y-84350000D03*
X94700000Y-80600000D03*
X76750000Y-90800000D03*
X83625000Y-80600000D03*
X93425000Y-80600000D03*
X84875000Y-84350000D03*
X83000000Y-90800000D03*
X75600000Y-80600000D03*
X74250000Y-90800000D03*
X82500000Y-85250000D03*
X90800000Y-80600000D03*
X78100000Y-80600000D03*
X81750000Y-90800000D03*
X78950000Y-87650000D03*
X81100000Y-80600000D03*
X75500000Y-90800000D03*
X85000000Y-80600000D03*
%TO.N,/3.3V*%
X83700000Y-81700000D03*
%TO.N,/5V*%
X80525000Y-82475000D03*
X80525000Y-81700000D03*
%TD*%
D13*
%TO.N,/3.3V*%
X73850000Y-86625000D02*
X75000000Y-85475000D01*
X73850000Y-89425000D02*
X73850000Y-86625000D01*
X83700000Y-81700000D02*
X84000000Y-82000000D01*
X74625000Y-90200000D02*
X73850000Y-89425000D01*
X84000000Y-89000000D02*
X82800000Y-90200000D01*
X84000000Y-82000000D02*
X84000000Y-89000000D01*
X82800000Y-90200000D02*
X74625000Y-90200000D01*
D14*
%TO.N,/5V*%
X80525000Y-84248654D02*
X76758654Y-88015000D01*
X76758654Y-88015000D02*
X75000000Y-88015000D01*
X80525000Y-81700000D02*
X80525000Y-82475000D01*
X80525000Y-82475000D02*
X80525000Y-84248654D01*
%TD*%
%TA.AperFunction,Conductor*%
%TO.N,GND*%
G36*
X95267539Y-79910185D02*
G01*
X95313294Y-79962989D01*
X95324500Y-80014500D01*
X95324500Y-91005500D01*
X95304815Y-91072539D01*
X95252011Y-91118294D01*
X95200500Y-91129500D01*
X73699500Y-91129500D01*
X73632461Y-91109815D01*
X73586706Y-91057011D01*
X73575500Y-91005500D01*
X73575500Y-89874833D01*
X73595185Y-89807794D01*
X73647989Y-89762039D01*
X73717147Y-89752095D01*
X73780703Y-89781120D01*
X73787181Y-89787152D01*
X74440489Y-90440460D01*
X74499829Y-90474720D01*
X74509008Y-90480020D01*
X74509012Y-90480022D01*
X74585438Y-90500500D01*
X74585440Y-90500500D01*
X82839560Y-90500500D01*
X82839562Y-90500500D01*
X82915989Y-90480021D01*
X82984511Y-90440460D01*
X83040460Y-90384511D01*
X84240460Y-89184511D01*
X84280021Y-89115989D01*
X84300500Y-89039562D01*
X84300500Y-81960438D01*
X84280021Y-81884011D01*
X84256030Y-81842457D01*
X84240464Y-81815495D01*
X84240458Y-81815487D01*
X84239395Y-81814424D01*
X84238784Y-81813305D01*
X84235514Y-81809044D01*
X84236178Y-81808533D01*
X84205910Y-81753101D01*
X84204339Y-81709094D01*
X84205647Y-81700000D01*
X84185165Y-81557543D01*
X84125377Y-81426627D01*
X84031128Y-81317857D01*
X83910053Y-81240047D01*
X83910051Y-81240046D01*
X83910049Y-81240045D01*
X83910050Y-81240045D01*
X83771963Y-81199500D01*
X83771961Y-81199500D01*
X83628039Y-81199500D01*
X83628036Y-81199500D01*
X83489949Y-81240045D01*
X83368873Y-81317856D01*
X83274623Y-81426626D01*
X83274622Y-81426628D01*
X83214834Y-81557543D01*
X83194353Y-81700000D01*
X83214834Y-81842456D01*
X83233809Y-81884004D01*
X83274623Y-81973373D01*
X83368872Y-82082143D01*
X83489947Y-82159953D01*
X83489950Y-82159954D01*
X83489949Y-82159954D01*
X83610434Y-82195331D01*
X83669212Y-82233105D01*
X83698238Y-82296660D01*
X83699500Y-82314308D01*
X83699500Y-88824167D01*
X83679815Y-88891206D01*
X83663181Y-88911848D01*
X82711848Y-89863181D01*
X82650525Y-89896666D01*
X82624167Y-89899500D01*
X74800833Y-89899500D01*
X74733794Y-89879815D01*
X74713152Y-89863181D01*
X74186819Y-89336848D01*
X74153334Y-89275525D01*
X74150500Y-89249167D01*
X74150500Y-88938982D01*
X74170185Y-88871943D01*
X74222989Y-88826188D01*
X74292147Y-88816244D01*
X74353165Y-88843129D01*
X74413544Y-88892680D01*
X74413550Y-88892685D01*
X74596046Y-88990232D01*
X74794066Y-89050300D01*
X74794065Y-89050300D01*
X74812529Y-89052118D01*
X75000000Y-89070583D01*
X75205934Y-89050300D01*
X75403954Y-88990232D01*
X75586450Y-88892685D01*
X75586456Y-88892679D01*
X75591520Y-88889298D01*
X75592404Y-88890621D01*
X75649583Y-88866334D01*
X75663943Y-88865500D01*
X76842422Y-88865500D01*
X76842423Y-88865499D01*
X76897192Y-88854605D01*
X77006728Y-88832818D01*
X77006732Y-88832816D01*
X77006736Y-88832816D01*
X77052069Y-88814037D01*
X77161517Y-88768704D01*
X77300816Y-88675627D01*
X81185627Y-84790816D01*
X81278704Y-84651516D01*
X81342816Y-84496735D01*
X81358196Y-84419417D01*
X81375500Y-84332421D01*
X81375500Y-82391233D01*
X81375500Y-81616233D01*
X81342816Y-81451918D01*
X81278703Y-81297137D01*
X81213464Y-81199500D01*
X81185626Y-81157837D01*
X81067162Y-81039373D01*
X80927860Y-80946295D01*
X80773082Y-80882184D01*
X80773074Y-80882182D01*
X80608771Y-80849500D01*
X80608767Y-80849500D01*
X80441233Y-80849500D01*
X80441228Y-80849500D01*
X80276925Y-80882182D01*
X80276917Y-80882184D01*
X80122139Y-80946295D01*
X79982837Y-81039373D01*
X79864373Y-81157837D01*
X79771295Y-81297139D01*
X79707184Y-81451917D01*
X79707182Y-81451925D01*
X79674500Y-81616228D01*
X79674500Y-83845003D01*
X79654815Y-83912042D01*
X79638181Y-83932684D01*
X76442684Y-87128181D01*
X76381361Y-87161666D01*
X76355003Y-87164500D01*
X75663943Y-87164500D01*
X75596904Y-87144815D01*
X75588269Y-87138530D01*
X75586456Y-87137319D01*
X75586452Y-87137317D01*
X75586450Y-87137315D01*
X75403954Y-87039768D01*
X75205934Y-86979700D01*
X75205932Y-86979699D01*
X75205934Y-86979699D01*
X75000000Y-86959417D01*
X74794067Y-86979699D01*
X74596043Y-87039769D01*
X74413546Y-87137317D01*
X74353164Y-87186871D01*
X74288853Y-87214183D01*
X74219986Y-87202391D01*
X74168426Y-87155238D01*
X74150500Y-87091017D01*
X74150500Y-86800832D01*
X74170185Y-86733793D01*
X74186815Y-86713155D01*
X74435672Y-86464297D01*
X74496995Y-86430813D01*
X74566687Y-86435797D01*
X74581805Y-86442620D01*
X74596046Y-86450232D01*
X74794066Y-86510300D01*
X74794065Y-86510300D01*
X74812529Y-86512118D01*
X75000000Y-86530583D01*
X75205934Y-86510300D01*
X75403954Y-86450232D01*
X75586450Y-86352685D01*
X75746410Y-86221410D01*
X75877685Y-86061450D01*
X75975232Y-85878954D01*
X76035300Y-85680934D01*
X76055583Y-85475000D01*
X76035300Y-85269066D01*
X75975232Y-85071046D01*
X75877685Y-84888550D01*
X75797480Y-84790819D01*
X75746410Y-84728589D01*
X75586452Y-84597317D01*
X75586453Y-84597317D01*
X75586450Y-84597315D01*
X75403954Y-84499768D01*
X75205934Y-84439700D01*
X75205932Y-84439699D01*
X75205934Y-84439699D01*
X75000000Y-84419417D01*
X74794067Y-84439699D01*
X74618692Y-84492898D01*
X74606032Y-84496739D01*
X74596043Y-84499769D01*
X74485898Y-84558643D01*
X74413550Y-84597315D01*
X74413548Y-84597316D01*
X74413547Y-84597317D01*
X74253589Y-84728589D01*
X74122317Y-84888547D01*
X74024769Y-85071043D01*
X73964699Y-85269067D01*
X73944417Y-85475000D01*
X73964699Y-85680932D01*
X74024769Y-85878956D01*
X74032379Y-85893193D01*
X74046620Y-85961596D01*
X74021619Y-86026840D01*
X74010701Y-86039326D01*
X73787181Y-86262847D01*
X73725858Y-86296332D01*
X73656167Y-86291348D01*
X73600233Y-86249477D01*
X73575816Y-86184012D01*
X73575500Y-86175166D01*
X73575500Y-80014500D01*
X73595185Y-79947461D01*
X73647989Y-79901706D01*
X73699500Y-79890500D01*
X95200500Y-79890500D01*
X95267539Y-79910185D01*
G37*
%TD.AperFunction*%
%TD*%
M02*
