%TF.GenerationSoftware,KiCad,Pcbnew,8.0.5-dirty*%
%TF.CreationDate,2025-03-26T08:57:05-07:00*%
%TF.ProjectId,yorp,796f7270-2e6b-4696-9361-645f70636258,rev?*%
%TF.SameCoordinates,Original*%
%TF.FileFunction,Legend,Top*%
%TF.FilePolarity,Positive*%
%FSLAX46Y46*%
G04 Gerber Fmt 4.6, Leading zero omitted, Abs format (unit mm)*
G04 Created by KiCad (PCBNEW 8.0.5-dirty) date 2025-03-26 08:57:05*
%MOMM*%
%LPD*%
G01*
G04 APERTURE LIST*
%ADD10C,0.100000*%
%ADD11C,0.150000*%
%ADD12C,0.120000*%
G04 APERTURE END LIST*
D10*
X77602580Y-84705074D02*
X77602580Y-85200312D01*
X77602580Y-85200312D02*
X77221628Y-84933646D01*
X77221628Y-84933646D02*
X77221628Y-85047931D01*
X77221628Y-85047931D02*
X77174009Y-85124122D01*
X77174009Y-85124122D02*
X77126390Y-85162217D01*
X77126390Y-85162217D02*
X77031152Y-85200312D01*
X77031152Y-85200312D02*
X76793057Y-85200312D01*
X76793057Y-85200312D02*
X76697819Y-85162217D01*
X76697819Y-85162217D02*
X76650200Y-85124122D01*
X76650200Y-85124122D02*
X76602580Y-85047931D01*
X76602580Y-85047931D02*
X76602580Y-84819360D01*
X76602580Y-84819360D02*
X76650200Y-84743169D01*
X76650200Y-84743169D02*
X76697819Y-84705074D01*
X76697819Y-85543170D02*
X76650200Y-85581265D01*
X76650200Y-85581265D02*
X76602580Y-85543170D01*
X76602580Y-85543170D02*
X76650200Y-85505074D01*
X76650200Y-85505074D02*
X76697819Y-85543170D01*
X76697819Y-85543170D02*
X76602580Y-85543170D01*
X77602580Y-85847931D02*
X77602580Y-86343169D01*
X77602580Y-86343169D02*
X77221628Y-86076503D01*
X77221628Y-86076503D02*
X77221628Y-86190788D01*
X77221628Y-86190788D02*
X77174009Y-86266979D01*
X77174009Y-86266979D02*
X77126390Y-86305074D01*
X77126390Y-86305074D02*
X77031152Y-86343169D01*
X77031152Y-86343169D02*
X76793057Y-86343169D01*
X76793057Y-86343169D02*
X76697819Y-86305074D01*
X76697819Y-86305074D02*
X76650200Y-86266979D01*
X76650200Y-86266979D02*
X76602580Y-86190788D01*
X76602580Y-86190788D02*
X76602580Y-85962217D01*
X76602580Y-85962217D02*
X76650200Y-85886026D01*
X76650200Y-85886026D02*
X76697819Y-85847931D01*
X77602580Y-86571741D02*
X76602580Y-86838408D01*
X76602580Y-86838408D02*
X77602580Y-87105074D01*
X77627580Y-88080074D02*
X77627580Y-87603884D01*
X77627580Y-87603884D02*
X77151390Y-87556265D01*
X77151390Y-87556265D02*
X77199009Y-87603884D01*
X77199009Y-87603884D02*
X77246628Y-87699122D01*
X77246628Y-87699122D02*
X77246628Y-87937217D01*
X77246628Y-87937217D02*
X77199009Y-88032455D01*
X77199009Y-88032455D02*
X77151390Y-88080074D01*
X77151390Y-88080074D02*
X77056152Y-88127693D01*
X77056152Y-88127693D02*
X76818057Y-88127693D01*
X76818057Y-88127693D02*
X76722819Y-88080074D01*
X76722819Y-88080074D02*
X76675200Y-88032455D01*
X76675200Y-88032455D02*
X76627580Y-87937217D01*
X76627580Y-87937217D02*
X76627580Y-87699122D01*
X76627580Y-87699122D02*
X76675200Y-87603884D01*
X76675200Y-87603884D02*
X76722819Y-87556265D01*
X77627580Y-88413408D02*
X76627580Y-88746741D01*
X76627580Y-88746741D02*
X77627580Y-89080074D01*
X77579961Y-82375312D02*
X77627580Y-82299122D01*
X77627580Y-82299122D02*
X77627580Y-82184836D01*
X77627580Y-82184836D02*
X77579961Y-82070550D01*
X77579961Y-82070550D02*
X77484723Y-81994360D01*
X77484723Y-81994360D02*
X77389485Y-81956265D01*
X77389485Y-81956265D02*
X77199009Y-81918169D01*
X77199009Y-81918169D02*
X77056152Y-81918169D01*
X77056152Y-81918169D02*
X76865676Y-81956265D01*
X76865676Y-81956265D02*
X76770438Y-81994360D01*
X76770438Y-81994360D02*
X76675200Y-82070550D01*
X76675200Y-82070550D02*
X76627580Y-82184836D01*
X76627580Y-82184836D02*
X76627580Y-82261027D01*
X76627580Y-82261027D02*
X76675200Y-82375312D01*
X76675200Y-82375312D02*
X76722819Y-82413408D01*
X76722819Y-82413408D02*
X77056152Y-82413408D01*
X77056152Y-82413408D02*
X77056152Y-82261027D01*
X76627580Y-82756265D02*
X77627580Y-82756265D01*
X77627580Y-82756265D02*
X76627580Y-83213408D01*
X76627580Y-83213408D02*
X77627580Y-83213408D01*
X76627580Y-83594360D02*
X77627580Y-83594360D01*
X77627580Y-83594360D02*
X77627580Y-83784836D01*
X77627580Y-83784836D02*
X77579961Y-83899122D01*
X77579961Y-83899122D02*
X77484723Y-83975312D01*
X77484723Y-83975312D02*
X77389485Y-84013407D01*
X77389485Y-84013407D02*
X77199009Y-84051503D01*
X77199009Y-84051503D02*
X77056152Y-84051503D01*
X77056152Y-84051503D02*
X76865676Y-84013407D01*
X76865676Y-84013407D02*
X76770438Y-83975312D01*
X76770438Y-83975312D02*
X76675200Y-83899122D01*
X76675200Y-83899122D02*
X76627580Y-83784836D01*
X76627580Y-83784836D02*
X76627580Y-83594360D01*
D11*
X80216667Y-84059580D02*
X80178571Y-84107200D01*
X80178571Y-84107200D02*
X80064286Y-84154819D01*
X80064286Y-84154819D02*
X79988095Y-84154819D01*
X79988095Y-84154819D02*
X79873809Y-84107200D01*
X79873809Y-84107200D02*
X79797619Y-84011961D01*
X79797619Y-84011961D02*
X79759524Y-83916723D01*
X79759524Y-83916723D02*
X79721428Y-83726247D01*
X79721428Y-83726247D02*
X79721428Y-83583390D01*
X79721428Y-83583390D02*
X79759524Y-83392914D01*
X79759524Y-83392914D02*
X79797619Y-83297676D01*
X79797619Y-83297676D02*
X79873809Y-83202438D01*
X79873809Y-83202438D02*
X79988095Y-83154819D01*
X79988095Y-83154819D02*
X80064286Y-83154819D01*
X80064286Y-83154819D02*
X80178571Y-83202438D01*
X80178571Y-83202438D02*
X80216667Y-83250057D01*
X80483333Y-83154819D02*
X81016667Y-83154819D01*
X81016667Y-83154819D02*
X80673809Y-84154819D01*
D10*
X81668704Y-88303332D02*
X81706800Y-88341428D01*
X81706800Y-88341428D02*
X81744895Y-88455713D01*
X81744895Y-88455713D02*
X81744895Y-88531904D01*
X81744895Y-88531904D02*
X81706800Y-88646190D01*
X81706800Y-88646190D02*
X81630609Y-88722380D01*
X81630609Y-88722380D02*
X81554419Y-88760475D01*
X81554419Y-88760475D02*
X81402038Y-88798571D01*
X81402038Y-88798571D02*
X81287752Y-88798571D01*
X81287752Y-88798571D02*
X81135371Y-88760475D01*
X81135371Y-88760475D02*
X81059180Y-88722380D01*
X81059180Y-88722380D02*
X80982990Y-88646190D01*
X80982990Y-88646190D02*
X80944895Y-88531904D01*
X80944895Y-88531904D02*
X80944895Y-88455713D01*
X80944895Y-88455713D02*
X80982990Y-88341428D01*
X80982990Y-88341428D02*
X81021085Y-88303332D01*
X81021085Y-87998571D02*
X80982990Y-87960475D01*
X80982990Y-87960475D02*
X80944895Y-87884285D01*
X80944895Y-87884285D02*
X80944895Y-87693809D01*
X80944895Y-87693809D02*
X80982990Y-87617618D01*
X80982990Y-87617618D02*
X81021085Y-87579523D01*
X81021085Y-87579523D02*
X81097276Y-87541428D01*
X81097276Y-87541428D02*
X81173466Y-87541428D01*
X81173466Y-87541428D02*
X81287752Y-87579523D01*
X81287752Y-87579523D02*
X81744895Y-88036666D01*
X81744895Y-88036666D02*
X81744895Y-87541428D01*
X84063704Y-88333332D02*
X84101800Y-88371428D01*
X84101800Y-88371428D02*
X84139895Y-88485713D01*
X84139895Y-88485713D02*
X84139895Y-88561904D01*
X84139895Y-88561904D02*
X84101800Y-88676190D01*
X84101800Y-88676190D02*
X84025609Y-88752380D01*
X84025609Y-88752380D02*
X83949419Y-88790475D01*
X83949419Y-88790475D02*
X83797038Y-88828571D01*
X83797038Y-88828571D02*
X83682752Y-88828571D01*
X83682752Y-88828571D02*
X83530371Y-88790475D01*
X83530371Y-88790475D02*
X83454180Y-88752380D01*
X83454180Y-88752380D02*
X83377990Y-88676190D01*
X83377990Y-88676190D02*
X83339895Y-88561904D01*
X83339895Y-88561904D02*
X83339895Y-88485713D01*
X83339895Y-88485713D02*
X83377990Y-88371428D01*
X83377990Y-88371428D02*
X83416085Y-88333332D01*
X83339895Y-88066666D02*
X83339895Y-87571428D01*
X83339895Y-87571428D02*
X83644657Y-87838094D01*
X83644657Y-87838094D02*
X83644657Y-87723809D01*
X83644657Y-87723809D02*
X83682752Y-87647618D01*
X83682752Y-87647618D02*
X83720847Y-87609523D01*
X83720847Y-87609523D02*
X83797038Y-87571428D01*
X83797038Y-87571428D02*
X83987514Y-87571428D01*
X83987514Y-87571428D02*
X84063704Y-87609523D01*
X84063704Y-87609523D02*
X84101800Y-87647618D01*
X84101800Y-87647618D02*
X84139895Y-87723809D01*
X84139895Y-87723809D02*
X84139895Y-87952380D01*
X84139895Y-87952380D02*
X84101800Y-88028571D01*
X84101800Y-88028571D02*
X84063704Y-88066666D01*
D11*
X88134580Y-84791666D02*
X88182200Y-84839285D01*
X88182200Y-84839285D02*
X88229819Y-84982142D01*
X88229819Y-84982142D02*
X88229819Y-85077380D01*
X88229819Y-85077380D02*
X88182200Y-85220237D01*
X88182200Y-85220237D02*
X88086961Y-85315475D01*
X88086961Y-85315475D02*
X87991723Y-85363094D01*
X87991723Y-85363094D02*
X87801247Y-85410713D01*
X87801247Y-85410713D02*
X87658390Y-85410713D01*
X87658390Y-85410713D02*
X87467914Y-85363094D01*
X87467914Y-85363094D02*
X87372676Y-85315475D01*
X87372676Y-85315475D02*
X87277438Y-85220237D01*
X87277438Y-85220237D02*
X87229819Y-85077380D01*
X87229819Y-85077380D02*
X87229819Y-84982142D01*
X87229819Y-84982142D02*
X87277438Y-84839285D01*
X87277438Y-84839285D02*
X87325057Y-84791666D01*
X87229819Y-83886904D02*
X87229819Y-84363094D01*
X87229819Y-84363094D02*
X87706009Y-84410713D01*
X87706009Y-84410713D02*
X87658390Y-84363094D01*
X87658390Y-84363094D02*
X87610771Y-84267856D01*
X87610771Y-84267856D02*
X87610771Y-84029761D01*
X87610771Y-84029761D02*
X87658390Y-83934523D01*
X87658390Y-83934523D02*
X87706009Y-83886904D01*
X87706009Y-83886904D02*
X87801247Y-83839285D01*
X87801247Y-83839285D02*
X88039342Y-83839285D01*
X88039342Y-83839285D02*
X88134580Y-83886904D01*
X88134580Y-83886904D02*
X88182200Y-83934523D01*
X88182200Y-83934523D02*
X88229819Y-84029761D01*
X88229819Y-84029761D02*
X88229819Y-84267856D01*
X88229819Y-84267856D02*
X88182200Y-84363094D01*
X88182200Y-84363094D02*
X88134580Y-84410713D01*
D10*
X84414895Y-84009523D02*
X85062514Y-84009523D01*
X85062514Y-84009523D02*
X85138704Y-83971428D01*
X85138704Y-83971428D02*
X85176800Y-83933333D01*
X85176800Y-83933333D02*
X85214895Y-83857142D01*
X85214895Y-83857142D02*
X85214895Y-83704761D01*
X85214895Y-83704761D02*
X85176800Y-83628571D01*
X85176800Y-83628571D02*
X85138704Y-83590476D01*
X85138704Y-83590476D02*
X85062514Y-83552380D01*
X85062514Y-83552380D02*
X84414895Y-83552380D01*
X85214895Y-82752381D02*
X85214895Y-83209524D01*
X85214895Y-82980952D02*
X84414895Y-82980952D01*
X84414895Y-82980952D02*
X84529180Y-83057143D01*
X84529180Y-83057143D02*
X84605371Y-83133333D01*
X84605371Y-83133333D02*
X84643466Y-83209524D01*
X86363704Y-88333332D02*
X86401800Y-88371428D01*
X86401800Y-88371428D02*
X86439895Y-88485713D01*
X86439895Y-88485713D02*
X86439895Y-88561904D01*
X86439895Y-88561904D02*
X86401800Y-88676190D01*
X86401800Y-88676190D02*
X86325609Y-88752380D01*
X86325609Y-88752380D02*
X86249419Y-88790475D01*
X86249419Y-88790475D02*
X86097038Y-88828571D01*
X86097038Y-88828571D02*
X85982752Y-88828571D01*
X85982752Y-88828571D02*
X85830371Y-88790475D01*
X85830371Y-88790475D02*
X85754180Y-88752380D01*
X85754180Y-88752380D02*
X85677990Y-88676190D01*
X85677990Y-88676190D02*
X85639895Y-88561904D01*
X85639895Y-88561904D02*
X85639895Y-88485713D01*
X85639895Y-88485713D02*
X85677990Y-88371428D01*
X85677990Y-88371428D02*
X85716085Y-88333332D01*
X85906561Y-87647618D02*
X86439895Y-87647618D01*
X85601800Y-87838094D02*
X86173228Y-88028571D01*
X86173228Y-88028571D02*
X86173228Y-87533332D01*
X79413704Y-88363332D02*
X79451800Y-88401428D01*
X79451800Y-88401428D02*
X79489895Y-88515713D01*
X79489895Y-88515713D02*
X79489895Y-88591904D01*
X79489895Y-88591904D02*
X79451800Y-88706190D01*
X79451800Y-88706190D02*
X79375609Y-88782380D01*
X79375609Y-88782380D02*
X79299419Y-88820475D01*
X79299419Y-88820475D02*
X79147038Y-88858571D01*
X79147038Y-88858571D02*
X79032752Y-88858571D01*
X79032752Y-88858571D02*
X78880371Y-88820475D01*
X78880371Y-88820475D02*
X78804180Y-88782380D01*
X78804180Y-88782380D02*
X78727990Y-88706190D01*
X78727990Y-88706190D02*
X78689895Y-88591904D01*
X78689895Y-88591904D02*
X78689895Y-88515713D01*
X78689895Y-88515713D02*
X78727990Y-88401428D01*
X78727990Y-88401428D02*
X78766085Y-88363332D01*
X79489895Y-87601428D02*
X79489895Y-88058571D01*
X79489895Y-87829999D02*
X78689895Y-87829999D01*
X78689895Y-87829999D02*
X78804180Y-87906190D01*
X78804180Y-87906190D02*
X78880371Y-87982380D01*
X78880371Y-87982380D02*
X78918466Y-88058571D01*
D11*
X92704819Y-86416666D02*
X92704819Y-86892856D01*
X92704819Y-86892856D02*
X91704819Y-86892856D01*
X92704819Y-85559523D02*
X92704819Y-86130951D01*
X92704819Y-85845237D02*
X91704819Y-85845237D01*
X91704819Y-85845237D02*
X91847676Y-85940475D01*
X91847676Y-85940475D02*
X91942914Y-86035713D01*
X91942914Y-86035713D02*
X91990533Y-86130951D01*
D12*
%TO.C,C7*%
X81011252Y-81140000D02*
X79588748Y-81140000D01*
X81011252Y-82960000D02*
X79588748Y-82960000D01*
%TO.C,C2*%
X80540000Y-88911252D02*
X80540000Y-87488748D01*
X82360000Y-88911252D02*
X82360000Y-87488748D01*
%TO.C,C3*%
X82865000Y-88911252D02*
X82865000Y-87488748D01*
X84685000Y-88911252D02*
X84685000Y-87488748D01*
%TO.C,C5*%
X87115000Y-82261252D02*
X87115000Y-81738748D01*
X88585000Y-82261252D02*
X88585000Y-81738748D01*
%TO.C,J1*%
X73670000Y-81605000D02*
X75000000Y-81605000D01*
X73670000Y-82935000D02*
X73670000Y-81605000D01*
X73670000Y-84205000D02*
X73670000Y-89345000D01*
X73670000Y-84205000D02*
X76330000Y-84205000D01*
X73670000Y-89345000D02*
X76330000Y-89345000D01*
X76330000Y-84205000D02*
X76330000Y-89345000D01*
%TO.C,U1*%
X84800000Y-81840000D02*
X84000000Y-81840000D01*
X84800000Y-81840000D02*
X85600000Y-81840000D01*
X84800000Y-84960000D02*
X84000000Y-84960000D01*
X84800000Y-84960000D02*
X85600000Y-84960000D01*
X83500000Y-81890000D02*
X83260000Y-81560000D01*
X83740000Y-81560000D01*
X83500000Y-81890000D01*
G36*
X83500000Y-81890000D02*
G01*
X83260000Y-81560000D01*
X83740000Y-81560000D01*
X83500000Y-81890000D01*
G37*
%TO.C,C4*%
X85165000Y-88911252D02*
X85165000Y-87488748D01*
X86985000Y-88911252D02*
X86985000Y-87488748D01*
%TO.C,C1*%
X78215000Y-88911252D02*
X78215000Y-87488748D01*
X80035000Y-88911252D02*
X80035000Y-87488748D01*
%TO.C,L1*%
X89050000Y-82950000D02*
X90750000Y-82950000D01*
X89050000Y-89550000D02*
X89050000Y-82950000D01*
X90750000Y-89550000D02*
X89050000Y-89550000D01*
X93750000Y-82950000D02*
X95450000Y-82950000D01*
X95450000Y-82950000D02*
X95450000Y-89550000D01*
X95450000Y-89550000D02*
X93750000Y-89550000D01*
%TD*%
M02*
