M48
; DRILL file {KiCad 8.0.5-dirty} date 2025-05-16T12:44:24-0700
; FORMAT={-:-/ absolute / inch / decimal}
; #@! TF.CreationDate,2025-05-16T12:44:24-07:00
; #@! TF.GenerationSoftware,Kicad,Pcbnew,8.0.5-dirty
; #@! TF.FileFunction,Plated,1,4,PTH
FMAT,2
INCH
; #@! TA.AperFunction,Plated,PTH,ViaDrill
T1C0.0118
; #@! TA.AperFunction,Plated,PTH,ComponentDrill
T2C0.0394
%
G90
G05
T1
X2.9232Y-3.5787
X2.9291Y-3.1732
X2.9488Y-3.5551
X2.9547Y-3.2008
X2.9724Y-3.5787
X2.9783Y-3.1732
X3.0Y-3.5551
X3.0039Y-3.5
X3.0059Y-3.2008
X3.0118Y-3.3061
X3.0217Y-3.5787
X3.0276Y-3.1732
X3.0413Y-3.2746
X3.0709Y-3.5787
X3.0827Y-3.2421
X3.1201Y-3.5787
X3.125Y-3.1978
X3.126Y-3.4508
X3.1299Y-3.3789
X3.1594Y-3.1987
X3.1663Y-3.4055
X3.1663Y-3.4508
X3.1693Y-3.5787
X3.2185Y-3.5787
X3.2352Y-3.2953
X3.2352Y-3.3248
X3.2362Y-3.3789
X3.252Y-3.4055
X3.252Y-3.4508
X3.2677Y-3.5787
X3.3169Y-3.2677
X3.3169Y-3.3563
X3.3169Y-3.5787
X3.3435Y-3.4065
X3.3435Y-3.4518
X3.3602Y-3.3563
X3.3888Y-3.4518
X3.3967Y-3.1732
X3.4055Y-3.3563
X3.4242Y-3.1398
X3.435Y-3.3366
X3.4744Y-3.1398
X3.5246Y-3.1398
X3.5748Y-3.1398
X3.624Y-3.1398
X3.6781Y-3.1398
X3.7283Y-3.1398
T2
X2.9528Y-3.2652
X2.9528Y-3.3652
X2.9528Y-3.4652
M30
