%TF.GenerationSoftware,KiCad,Pcbnew,8.0.5-dirty*%
%TF.CreationDate,2025-05-16T12:44:22-07:00*%
%TF.ProjectId,yorp,796f7270-2e6b-4696-9361-645f70636258,rev?*%
%TF.SameCoordinates,Original*%
%TF.FileFunction,Copper,L1,Top*%
%TF.FilePolarity,Positive*%
%FSLAX46Y46*%
G04 Gerber Fmt 4.6, Leading zero omitted, Abs format (unit mm)*
G04 Created by KiCad (PCBNEW 8.0.5-dirty) date 2025-05-16 12:44:22*
%MOMM*%
%LPD*%
G01*
G04 APERTURE LIST*
G04 Aperture macros list*
%AMRoundRect*
0 Rectangle with rounded corners*
0 $1 Rounding radius*
0 $2 $3 $4 $5 $6 $7 $8 $9 X,Y pos of 4 corners*
0 Add a 4 corners polygon primitive as box body*
4,1,4,$2,$3,$4,$5,$6,$7,$8,$9,$2,$3,0*
0 Add four circle primitives for the rounded corners*
1,1,$1+$1,$2,$3*
1,1,$1+$1,$4,$5*
1,1,$1+$1,$6,$7*
1,1,$1+$1,$8,$9*
0 Add four rect primitives between the rounded corners*
20,1,$1+$1,$2,$3,$4,$5,0*
20,1,$1+$1,$4,$5,$6,$7,0*
20,1,$1+$1,$6,$7,$8,$9,0*
20,1,$1+$1,$8,$9,$2,$3,0*%
G04 Aperture macros list end*
%TA.AperFunction,SMDPad,CuDef*%
%ADD10RoundRect,0.250000X0.325000X0.650000X-0.325000X0.650000X-0.325000X-0.650000X0.325000X-0.650000X0*%
%TD*%
%TA.AperFunction,SMDPad,CuDef*%
%ADD11RoundRect,0.250000X-0.262500X-0.450000X0.262500X-0.450000X0.262500X0.450000X-0.262500X0.450000X0*%
%TD*%
%TA.AperFunction,SMDPad,CuDef*%
%ADD12RoundRect,0.250000X0.650000X-0.325000X0.650000X0.325000X-0.650000X0.325000X-0.650000X-0.325000X0*%
%TD*%
%TA.AperFunction,SMDPad,CuDef*%
%ADD13RoundRect,0.250000X0.475000X-0.250000X0.475000X0.250000X-0.475000X0.250000X-0.475000X-0.250000X0*%
%TD*%
%TA.AperFunction,ComponentPad*%
%ADD14R,1.700000X1.700000*%
%TD*%
%TA.AperFunction,ComponentPad*%
%ADD15O,1.700000X1.700000*%
%TD*%
%TA.AperFunction,SMDPad,CuDef*%
%ADD16RoundRect,0.150000X-0.512500X-0.150000X0.512500X-0.150000X0.512500X0.150000X-0.512500X0.150000X0*%
%TD*%
%TA.AperFunction,SMDPad,CuDef*%
%ADD17R,2.400000X1.500000*%
%TD*%
%TA.AperFunction,SMDPad,CuDef*%
%ADD18RoundRect,0.250000X-0.250000X-0.475000X0.250000X-0.475000X0.250000X0.475000X-0.250000X0.475000X0*%
%TD*%
%TA.AperFunction,ViaPad*%
%ADD19C,0.600000*%
%TD*%
%TA.AperFunction,Conductor*%
%ADD20C,0.750000*%
%TD*%
%TA.AperFunction,Conductor*%
%ADD21C,0.200000*%
%TD*%
G04 APERTURE END LIST*
D10*
%TO.P,C7,1*%
%TO.N,/5V*%
X81197037Y-84363625D03*
%TO.P,C7,2*%
%TO.N,GND*%
X78247037Y-84363625D03*
%TD*%
D11*
%TO.P,R1,1*%
%TO.N,/3.6V*%
X79412500Y-80250000D03*
%TO.P,R1,2*%
%TO.N,Net-(U2-FB)*%
X81237500Y-80250000D03*
%TD*%
D12*
%TO.P,C2,1*%
%TO.N,/3.6V*%
X81450000Y-89800000D03*
%TO.P,C2,2*%
%TO.N,GND*%
X81450000Y-86850000D03*
%TD*%
D11*
%TO.P,R2,1*%
%TO.N,Net-(U2-FB)*%
X83062500Y-80250000D03*
%TO.P,R2,2*%
%TO.N,GND*%
X84887500Y-80250000D03*
%TD*%
D12*
%TO.P,C3,1*%
%TO.N,/3.6V*%
X83775000Y-89775000D03*
%TO.P,C3,2*%
%TO.N,GND*%
X83775000Y-86825000D03*
%TD*%
D13*
%TO.P,C5,1*%
%TO.N,Net-(U2-SW)*%
X87625000Y-82675000D03*
%TO.P,C5,2*%
%TO.N,Net-(U2-BST)*%
X87625000Y-80775000D03*
%TD*%
D14*
%TO.P,J1,1,Pin_1*%
%TO.N,GND*%
X75000000Y-82935000D03*
D15*
%TO.P,J1,2,Pin_2*%
%TO.N,/3.6V*%
X75000000Y-85475000D03*
%TO.P,J1,3,Pin_3*%
%TO.N,/5V*%
X75000000Y-88015000D03*
%TD*%
D16*
%TO.P,U2,1,FB*%
%TO.N,Net-(U2-FB)*%
X83112500Y-82650000D03*
%TO.P,U2,2,EN*%
%TO.N,/5V*%
X83112500Y-83600000D03*
%TO.P,U2,3,IN*%
X83112500Y-84550000D03*
%TO.P,U2,4,GND*%
%TO.N,GND*%
X85387500Y-84550000D03*
%TO.P,U2,5,SW*%
%TO.N,Net-(U2-SW)*%
X85387500Y-83600000D03*
%TO.P,U2,6,BST*%
%TO.N,Net-(U2-BST)*%
X85387500Y-82650000D03*
%TD*%
D12*
%TO.P,C4,1*%
%TO.N,/3.6V*%
X86075000Y-89775000D03*
%TO.P,C4,2*%
%TO.N,GND*%
X86075000Y-86825000D03*
%TD*%
%TO.P,C1,1*%
%TO.N,/3.6V*%
X79125000Y-89800000D03*
%TO.P,C1,2*%
%TO.N,GND*%
X79125000Y-86850000D03*
%TD*%
D17*
%TO.P,L1,1*%
%TO.N,Net-(U2-SW)*%
X92350000Y-83500000D03*
%TO.P,L1,2*%
%TO.N,/3.6V*%
X92350000Y-89000000D03*
%TD*%
D18*
%TO.P,C6,1*%
%TO.N,/3.6V*%
X79375000Y-82225000D03*
%TO.P,C6,2*%
%TO.N,Net-(U2-FB)*%
X81275000Y-82225000D03*
%TD*%
D19*
%TO.N,GND*%
X85350000Y-85250000D03*
X76300000Y-88900000D03*
X76200000Y-90300000D03*
X84925000Y-86525000D03*
X80250000Y-81246835D03*
X92050000Y-79750000D03*
X80500000Y-90900000D03*
X86975000Y-79750000D03*
X80425000Y-87650000D03*
X86075000Y-87675000D03*
X74400000Y-80600000D03*
X76900000Y-80600000D03*
X80425000Y-86500000D03*
X84250000Y-90900000D03*
X86500000Y-85250000D03*
X82600000Y-87650000D03*
X82600000Y-86500000D03*
X79500000Y-85825000D03*
X84925000Y-87675000D03*
X79250000Y-90900000D03*
X76350000Y-81300000D03*
X86275000Y-80600000D03*
X77250000Y-83175000D03*
X78000000Y-90900000D03*
X78300000Y-82350000D03*
X89525000Y-79750000D03*
X88250000Y-79750000D03*
X74900000Y-90300000D03*
X76500000Y-83975000D03*
X87250000Y-84750000D03*
X94700000Y-79750000D03*
X75050000Y-81300000D03*
X84250000Y-83000000D03*
X76750000Y-90900000D03*
X84250000Y-85250000D03*
X93425000Y-79750000D03*
X83000000Y-90900000D03*
X75650000Y-80600000D03*
X74250000Y-90900000D03*
X82200000Y-85825000D03*
X90800000Y-79750000D03*
X81750000Y-90900000D03*
X79400000Y-87650000D03*
X75500000Y-90900000D03*
%TO.N,/3.6V*%
X79375000Y-81225000D03*
%TO.N,/5V*%
X82175000Y-84450000D03*
X82175000Y-83700000D03*
%TD*%
D20*
%TO.N,/3.6V*%
X79375000Y-80287500D02*
X79375000Y-82225000D01*
X79412500Y-80250000D02*
X79375000Y-80287500D01*
D21*
X79375000Y-81225000D02*
X79375000Y-82225000D01*
X79412500Y-81187500D02*
X79412500Y-80250000D01*
X79375000Y-81225000D02*
X79412500Y-81187500D01*
%TO.N,Net-(U2-BST)*%
X87575000Y-80800000D02*
X87600000Y-80800000D01*
X87600000Y-80800000D02*
X87625000Y-80775000D01*
X87625000Y-80775000D02*
X87612500Y-80775000D01*
X87612500Y-80775000D02*
X85937500Y-82450000D01*
D20*
%TO.N,/5V*%
X75050000Y-88050000D02*
X75000000Y-88000000D01*
%TD*%
%TA.AperFunction,Conductor*%
%TO.N,/5V*%
G36*
X83717934Y-83322172D02*
G01*
X83763742Y-83374930D01*
X83775000Y-83426555D01*
X83775000Y-85058310D01*
X83766213Y-85098707D01*
X83767333Y-85099036D01*
X83764835Y-85107542D01*
X83754992Y-85175998D01*
X83725966Y-85239554D01*
X83667188Y-85277327D01*
X83632235Y-85282350D01*
X80828026Y-85281918D01*
X80760989Y-85262223D01*
X80740067Y-85245301D01*
X80661022Y-85165718D01*
X80627745Y-85104282D01*
X80625000Y-85078335D01*
X80625000Y-83651362D01*
X80644685Y-83584323D01*
X80661319Y-83563681D01*
X80883419Y-83341580D01*
X80944740Y-83308097D01*
X80970971Y-83305263D01*
X83650876Y-83302555D01*
X83717934Y-83322172D01*
G37*
%TD.AperFunction*%
%TD*%
%TA.AperFunction,Conductor*%
%TO.N,Net-(U2-FB)*%
G36*
X83390677Y-79569685D02*
G01*
X83411319Y-79586319D01*
X83738681Y-79913681D01*
X83772166Y-79975004D01*
X83775000Y-80001362D01*
X83775000Y-82808310D01*
X83766213Y-82848706D01*
X83767333Y-82849035D01*
X83763838Y-82860937D01*
X83761929Y-82863906D01*
X83761154Y-82865605D01*
X83760909Y-82865493D01*
X83726063Y-82919715D01*
X83662507Y-82948738D01*
X83644862Y-82950000D01*
X80976362Y-82950000D01*
X80909323Y-82930315D01*
X80888681Y-82913681D01*
X80786319Y-82811319D01*
X80752834Y-82749996D01*
X80750000Y-82723638D01*
X80750000Y-81294980D01*
X80751262Y-81277333D01*
X80755647Y-81246835D01*
X80751262Y-81216335D01*
X80750000Y-81198689D01*
X80750000Y-79751362D01*
X80769685Y-79684323D01*
X80786319Y-79663681D01*
X80863681Y-79586319D01*
X80925004Y-79552834D01*
X80951362Y-79550000D01*
X83323638Y-79550000D01*
X83390677Y-79569685D01*
G37*
%TD.AperFunction*%
%TD*%
%TA.AperFunction,Conductor*%
%TO.N,/3.6V*%
G36*
X76015677Y-84419685D02*
G01*
X76036319Y-84436319D01*
X77963681Y-86363681D01*
X77997166Y-86425004D01*
X78000000Y-86451362D01*
X78000000Y-87300000D01*
X78043756Y-87343756D01*
X78066705Y-87380277D01*
X78067864Y-87379665D01*
X78072206Y-87387881D01*
X78072207Y-87387882D01*
X78152850Y-87497150D01*
X78228244Y-87552793D01*
X78262118Y-87577793D01*
X78270337Y-87582137D01*
X78269723Y-87583298D01*
X78306243Y-87606243D01*
X79350000Y-88650000D01*
X87898638Y-88650000D01*
X87965677Y-88669685D01*
X87986319Y-88686319D01*
X88900000Y-89600000D01*
X88975000Y-89600000D01*
X91150000Y-89600000D01*
X91150000Y-88386506D01*
X91169685Y-88319467D01*
X91222489Y-88273712D01*
X91273942Y-88262506D01*
X93437948Y-88261535D01*
X93504995Y-88281189D01*
X93550773Y-88333973D01*
X93562002Y-88385583D01*
X93561222Y-90387463D01*
X93541511Y-90454495D01*
X93524903Y-90475096D01*
X92930805Y-91069194D01*
X92869482Y-91102679D01*
X92843009Y-91105513D01*
X86917597Y-91100039D01*
X86850576Y-91080292D01*
X86841418Y-91073790D01*
X86835529Y-91069194D01*
X86580901Y-90870460D01*
X85946094Y-90375000D01*
X85946093Y-90375000D01*
X78526362Y-90375000D01*
X78459323Y-90355315D01*
X78438681Y-90338681D01*
X76720394Y-88620394D01*
X76714376Y-88613931D01*
X76631128Y-88517857D01*
X76605199Y-88501193D01*
X76584561Y-88484561D01*
X76111319Y-88011319D01*
X76077834Y-87949996D01*
X76075000Y-87923638D01*
X76075000Y-87600000D01*
X75763625Y-87288625D01*
X75755453Y-87279609D01*
X75746408Y-87268588D01*
X75735390Y-87259546D01*
X75726373Y-87251373D01*
X75250000Y-86775000D01*
X74176362Y-86775000D01*
X74109323Y-86755315D01*
X74088681Y-86738681D01*
X73786319Y-86436319D01*
X73752834Y-86374996D01*
X73750000Y-86348638D01*
X73750000Y-84701362D01*
X73769685Y-84634323D01*
X73786319Y-84613681D01*
X73963681Y-84436319D01*
X74025004Y-84402834D01*
X74051362Y-84400000D01*
X75948638Y-84400000D01*
X76015677Y-84419685D01*
G37*
%TD.AperFunction*%
%TD*%
%TA.AperFunction,Conductor*%
%TO.N,GND*%
G36*
X73780703Y-86721769D02*
G01*
X73787167Y-86727787D01*
X73874862Y-86815482D01*
X73943375Y-86883995D01*
X73959716Y-86898674D01*
X73959730Y-86898686D01*
X73959738Y-86898693D01*
X73968136Y-86905460D01*
X73980379Y-86915327D01*
X74051424Y-86952490D01*
X74118456Y-86972173D01*
X74118458Y-86972173D01*
X74118464Y-86972175D01*
X74176362Y-86980500D01*
X74258072Y-86980500D01*
X74325111Y-87000185D01*
X74370866Y-87052989D01*
X74380810Y-87122147D01*
X74351785Y-87185703D01*
X74336736Y-87200354D01*
X74253589Y-87268589D01*
X74156046Y-87387448D01*
X74122315Y-87428550D01*
X74105006Y-87460933D01*
X74024769Y-87611043D01*
X73964699Y-87809067D01*
X73944417Y-88015000D01*
X73964699Y-88220932D01*
X73964700Y-88220934D01*
X74024768Y-88418954D01*
X74122315Y-88601450D01*
X74122317Y-88601452D01*
X74253589Y-88761410D01*
X74350209Y-88840702D01*
X74413550Y-88892685D01*
X74596046Y-88990232D01*
X74794066Y-89050300D01*
X74794065Y-89050300D01*
X74812529Y-89052118D01*
X75000000Y-89070583D01*
X75205934Y-89050300D01*
X75403954Y-88990232D01*
X75586450Y-88892685D01*
X75746410Y-88761410D01*
X75877685Y-88601450D01*
X75975232Y-88418954D01*
X75975235Y-88418943D01*
X75977560Y-88413332D01*
X75979681Y-88414210D01*
X76012346Y-88364325D01*
X76076147Y-88335844D01*
X76145218Y-88346378D01*
X76180426Y-88371047D01*
X76439237Y-88629858D01*
X76439246Y-88629866D01*
X76439251Y-88629871D01*
X76455612Y-88644569D01*
X76455616Y-88644572D01*
X76476242Y-88661195D01*
X76476247Y-88661198D01*
X76476250Y-88661201D01*
X76483641Y-88666530D01*
X76504823Y-88685901D01*
X76559069Y-88748504D01*
X76559095Y-88748534D01*
X76563961Y-88753952D01*
X76570008Y-88760446D01*
X76575091Y-88765712D01*
X78011794Y-90202414D01*
X78041154Y-90249140D01*
X78072206Y-90337880D01*
X78072207Y-90337882D01*
X78152850Y-90447150D01*
X78262118Y-90527793D01*
X78304845Y-90542744D01*
X78390299Y-90572646D01*
X78420730Y-90575500D01*
X78420734Y-90575500D01*
X78482718Y-90575500D01*
X78500364Y-90576761D01*
X78526362Y-90580500D01*
X85832729Y-90580500D01*
X85899768Y-90600185D01*
X85909023Y-90606749D01*
X86454463Y-91032459D01*
X86518897Y-91082749D01*
X86559634Y-91139514D01*
X86563214Y-91209292D01*
X86528501Y-91269929D01*
X86466517Y-91302172D01*
X86442603Y-91304500D01*
X73699500Y-91304500D01*
X73632461Y-91284815D01*
X73586706Y-91232011D01*
X73575500Y-91180500D01*
X73575500Y-86815482D01*
X73595185Y-86748443D01*
X73647989Y-86702688D01*
X73717147Y-86692744D01*
X73780703Y-86721769D01*
G37*
%TD.AperFunction*%
%TA.AperFunction,Conductor*%
G36*
X78732177Y-79385185D02*
G01*
X78777932Y-79437989D01*
X78787876Y-79507147D01*
X78764909Y-79563133D01*
X78747207Y-79587118D01*
X78747206Y-79587119D01*
X78702353Y-79715298D01*
X78702353Y-79715300D01*
X78699500Y-79745730D01*
X78699500Y-80754269D01*
X78702353Y-80784699D01*
X78702353Y-80784701D01*
X78747206Y-80912880D01*
X78747207Y-80912882D01*
X78775270Y-80950906D01*
X78799241Y-81016533D01*
X78799500Y-81024539D01*
X78799500Y-81391586D01*
X78779815Y-81458625D01*
X78775270Y-81465219D01*
X78722209Y-81537113D01*
X78722206Y-81537119D01*
X78677353Y-81665298D01*
X78677353Y-81665300D01*
X78674500Y-81695730D01*
X78674500Y-82754269D01*
X78677353Y-82784699D01*
X78677353Y-82784701D01*
X78720126Y-82906935D01*
X78722207Y-82912882D01*
X78802850Y-83022150D01*
X78912118Y-83102793D01*
X78954845Y-83117744D01*
X79040299Y-83147646D01*
X79070730Y-83150500D01*
X79070734Y-83150500D01*
X79679270Y-83150500D01*
X79709699Y-83147646D01*
X79709701Y-83147646D01*
X79776767Y-83124178D01*
X79837882Y-83102793D01*
X79947150Y-83022150D01*
X80027793Y-82912882D01*
X80060853Y-82818402D01*
X80072646Y-82784701D01*
X80072646Y-82784699D01*
X80075500Y-82754269D01*
X80075500Y-81695730D01*
X80072646Y-81665300D01*
X80072646Y-81665298D01*
X80039006Y-81569163D01*
X80027793Y-81537118D01*
X80027791Y-81537115D01*
X80027790Y-81537113D01*
X79974730Y-81465219D01*
X79950759Y-81399590D01*
X79950500Y-81391586D01*
X79950500Y-81119176D01*
X79970185Y-81052137D01*
X79991383Y-81029525D01*
X79990579Y-81028721D01*
X79997146Y-81022152D01*
X79997150Y-81022150D01*
X80077793Y-80912882D01*
X80105500Y-80833699D01*
X80122646Y-80784701D01*
X80122646Y-80784699D01*
X80125500Y-80754269D01*
X80125500Y-79745730D01*
X80122646Y-79715300D01*
X80122646Y-79715298D01*
X80077793Y-79587119D01*
X80077793Y-79587118D01*
X80060090Y-79563132D01*
X80036121Y-79497504D01*
X80051437Y-79429334D01*
X80101177Y-79380266D01*
X80159862Y-79365500D01*
X80490138Y-79365500D01*
X80557177Y-79385185D01*
X80602932Y-79437989D01*
X80612876Y-79507147D01*
X80589909Y-79563133D01*
X80572207Y-79587118D01*
X80572206Y-79587119D01*
X80527353Y-79715298D01*
X80527353Y-79715300D01*
X80524500Y-79745730D01*
X80524500Y-80754269D01*
X80527352Y-80784689D01*
X80527355Y-80784703D01*
X80537541Y-80813811D01*
X80544500Y-80854766D01*
X80544500Y-81198686D01*
X80545023Y-81213346D01*
X80546287Y-81231006D01*
X80546564Y-81233580D01*
X80546563Y-81260083D01*
X80546285Y-81262664D01*
X80545023Y-81280318D01*
X80544500Y-81294977D01*
X80544500Y-82723638D01*
X80545678Y-82745618D01*
X80548511Y-82771965D01*
X80548512Y-82771967D01*
X80572470Y-82848478D01*
X80572471Y-82848483D01*
X80586872Y-82874855D01*
X80605956Y-82909805D01*
X80605958Y-82909808D01*
X80605960Y-82909811D01*
X80640998Y-82956615D01*
X80641002Y-82956619D01*
X80641009Y-82956629D01*
X80641016Y-82956636D01*
X80685909Y-83001529D01*
X80697998Y-83015577D01*
X80702848Y-83022149D01*
X80707377Y-83025491D01*
X80749631Y-83081136D01*
X80755093Y-83150792D01*
X80722029Y-83212343D01*
X80721431Y-83212946D01*
X80516004Y-83418374D01*
X80501328Y-83434712D01*
X80501306Y-83434739D01*
X80484672Y-83455379D01*
X80447509Y-83526424D01*
X80427826Y-83593456D01*
X80419500Y-83651365D01*
X80419500Y-85078335D01*
X80420639Y-85099955D01*
X80423384Y-85125899D01*
X80447049Y-85202158D01*
X80447050Y-85202159D01*
X80448722Y-85205245D01*
X80480326Y-85263592D01*
X80480329Y-85263596D01*
X80480335Y-85263606D01*
X80515212Y-85310525D01*
X80515216Y-85310530D01*
X80515220Y-85310535D01*
X80515223Y-85310538D01*
X80515229Y-85310545D01*
X80594237Y-85390090D01*
X80594265Y-85390118D01*
X80610835Y-85405080D01*
X80631757Y-85422002D01*
X80703063Y-85459390D01*
X80770100Y-85479085D01*
X80827994Y-85487418D01*
X83632203Y-85487850D01*
X83661467Y-85485760D01*
X83696413Y-85480738D01*
X83696415Y-85480738D01*
X83696416Y-85480737D01*
X83696420Y-85480737D01*
X83778287Y-85450206D01*
X83837065Y-85412433D01*
X83857342Y-85397575D01*
X83912894Y-85324924D01*
X83941920Y-85261368D01*
X83958400Y-85205245D01*
X83967631Y-85141043D01*
X83969201Y-85132346D01*
X83970603Y-85125902D01*
X83975805Y-85101988D01*
X83980500Y-85058310D01*
X83980500Y-83426555D01*
X83975781Y-83382770D01*
X83964523Y-83331145D01*
X83962004Y-83320869D01*
X83918913Y-83240200D01*
X83918911Y-83240198D01*
X83918909Y-83240194D01*
X83888046Y-83204650D01*
X83858956Y-83141124D01*
X83868829Y-83071955D01*
X83894898Y-83034777D01*
X83898941Y-83030816D01*
X83933787Y-82976594D01*
X83933786Y-82976593D01*
X83934782Y-82975046D01*
X83936691Y-82972077D01*
X83936692Y-82972073D01*
X83939057Y-82968396D01*
X83939087Y-82968346D01*
X83948153Y-82954237D01*
X83948380Y-82951075D01*
X83951745Y-82942945D01*
X83960220Y-82924365D01*
X83960122Y-82923004D01*
X83962322Y-82914377D01*
X83964508Y-82906935D01*
X83964510Y-82906919D01*
X83965192Y-82904004D01*
X83965571Y-82901395D01*
X83965573Y-82901393D01*
X83965784Y-82899941D01*
X83966335Y-82896504D01*
X83966803Y-82893831D01*
X83967753Y-82888998D01*
X83975804Y-82851989D01*
X83980500Y-82808310D01*
X83980500Y-80001362D01*
X83979322Y-79979393D01*
X83976488Y-79953035D01*
X83952529Y-79876518D01*
X83919044Y-79815195D01*
X83883991Y-79768371D01*
X83761292Y-79645672D01*
X83731931Y-79598945D01*
X83727793Y-79587118D01*
X83710090Y-79563132D01*
X83686121Y-79497504D01*
X83701437Y-79429334D01*
X83751177Y-79380266D01*
X83809862Y-79365500D01*
X95200500Y-79365500D01*
X95267539Y-79385185D01*
X95313294Y-79437989D01*
X95324500Y-79489500D01*
X95324500Y-82876000D01*
X95304815Y-82943039D01*
X95252011Y-82988794D01*
X95200500Y-83000000D01*
X93879500Y-83000000D01*
X93812461Y-82980315D01*
X93766706Y-82927511D01*
X93755500Y-82876000D01*
X93755500Y-82818402D01*
X93755011Y-82808309D01*
X93754541Y-82798586D01*
X93752233Y-82774776D01*
X93752232Y-82774774D01*
X93751661Y-82768875D01*
X93751939Y-82768848D01*
X93750500Y-82753916D01*
X93750500Y-82730249D01*
X93750499Y-82730247D01*
X93738868Y-82671770D01*
X93738867Y-82671769D01*
X93694554Y-82605450D01*
X93694552Y-82605449D01*
X93694552Y-82605448D01*
X93673279Y-82591233D01*
X93660550Y-82582728D01*
X93639942Y-82565450D01*
X92757898Y-81645597D01*
X92757869Y-81645569D01*
X92740179Y-81629171D01*
X92740178Y-81629170D01*
X92740168Y-81629162D01*
X92740164Y-81629158D01*
X92717678Y-81610650D01*
X92717677Y-81610649D01*
X92644932Y-81572126D01*
X92577888Y-81552457D01*
X92577890Y-81552457D01*
X92526580Y-81545093D01*
X92519990Y-81544147D01*
X92519989Y-81544147D01*
X88521720Y-81545093D01*
X88454676Y-81525424D01*
X88408909Y-81472631D01*
X88398949Y-81403475D01*
X88421921Y-81347459D01*
X88422147Y-81347151D01*
X88422150Y-81347150D01*
X88502793Y-81237882D01*
X88544330Y-81119176D01*
X88547646Y-81109701D01*
X88547646Y-81109699D01*
X88550500Y-81079269D01*
X88550500Y-80470730D01*
X88547646Y-80440300D01*
X88547646Y-80440298D01*
X88502793Y-80312119D01*
X88502792Y-80312117D01*
X88422150Y-80202850D01*
X88312882Y-80122207D01*
X88312880Y-80122206D01*
X88184700Y-80077353D01*
X88154270Y-80074500D01*
X88154266Y-80074500D01*
X87095734Y-80074500D01*
X87095730Y-80074500D01*
X87065300Y-80077353D01*
X87065298Y-80077353D01*
X86937119Y-80122206D01*
X86937117Y-80122207D01*
X86827850Y-80202850D01*
X86747207Y-80312117D01*
X86747206Y-80312119D01*
X86702353Y-80440298D01*
X86702353Y-80440300D01*
X86699500Y-80470730D01*
X86699500Y-81079269D01*
X86702353Y-81109699D01*
X86702353Y-81109700D01*
X86715625Y-81147629D01*
X86719186Y-81217408D01*
X86686264Y-81276263D01*
X85849348Y-82113181D01*
X85788025Y-82146666D01*
X85761667Y-82149500D01*
X84841739Y-82149500D01*
X84773608Y-82159426D01*
X84668514Y-82210803D01*
X84585803Y-82293514D01*
X84534426Y-82398608D01*
X84524500Y-82466739D01*
X84524500Y-82833260D01*
X84534426Y-82901391D01*
X84534427Y-82901393D01*
X84558624Y-82950890D01*
X84559905Y-82953509D01*
X84571664Y-83022382D01*
X84545466Y-83083983D01*
X84545969Y-83084360D01*
X84544434Y-83086410D01*
X84544320Y-83086679D01*
X84543546Y-83087596D01*
X84543314Y-83087906D01*
X84511689Y-83137113D01*
X84511688Y-83137114D01*
X84499276Y-83164293D01*
X84485401Y-83205980D01*
X84474196Y-83257489D01*
X84469500Y-83301172D01*
X84469500Y-83916007D01*
X84474197Y-83959686D01*
X84485397Y-84011174D01*
X84487890Y-84021372D01*
X84487891Y-84021375D01*
X84530899Y-84102083D01*
X84530901Y-84102086D01*
X84576660Y-84154895D01*
X84594242Y-84172839D01*
X84594246Y-84172843D01*
X84594247Y-84172844D01*
X84594249Y-84172845D01*
X84674059Y-84217488D01*
X84674063Y-84217490D01*
X84741102Y-84237175D01*
X84799000Y-84245500D01*
X87676000Y-84245500D01*
X87743039Y-84265185D01*
X87788794Y-84317989D01*
X87800000Y-84369500D01*
X87800000Y-88320500D01*
X87780315Y-88387539D01*
X87727511Y-88433294D01*
X87676000Y-88444500D01*
X79486482Y-88444500D01*
X79419443Y-88424815D01*
X79398801Y-88408181D01*
X78451550Y-87460930D01*
X78415578Y-87432244D01*
X78415576Y-87432242D01*
X78415569Y-87432237D01*
X78405298Y-87425784D01*
X78388509Y-87415235D01*
X78380846Y-87410010D01*
X78350274Y-87387447D01*
X78314839Y-87361295D01*
X78288701Y-87335157D01*
X78239998Y-87269165D01*
X78234775Y-87261505D01*
X78224506Y-87245162D01*
X78205500Y-87179190D01*
X78205500Y-86451361D01*
X78204321Y-86429381D01*
X78201488Y-86403034D01*
X78201487Y-86403032D01*
X78177529Y-86326518D01*
X78144044Y-86265195D01*
X78108991Y-86218371D01*
X77151983Y-85261363D01*
X76181634Y-84291013D01*
X76181633Y-84291012D01*
X76165283Y-84276325D01*
X76165269Y-84276313D01*
X76144620Y-84259672D01*
X76073575Y-84222509D01*
X76006543Y-84202826D01*
X76005894Y-84202732D01*
X75948638Y-84194500D01*
X74051362Y-84194500D01*
X74051361Y-84194500D01*
X74029381Y-84195678D01*
X74003034Y-84198511D01*
X74003032Y-84198512D01*
X73926521Y-84222470D01*
X73926516Y-84222471D01*
X73865188Y-84255960D01*
X73818384Y-84290998D01*
X73818370Y-84291010D01*
X73787180Y-84322200D01*
X73725856Y-84355684D01*
X73656165Y-84350698D01*
X73600232Y-84308826D01*
X73575816Y-84243361D01*
X73575500Y-84234517D01*
X73575500Y-79489500D01*
X73595185Y-79422461D01*
X73647989Y-79376706D01*
X73699500Y-79365500D01*
X78665138Y-79365500D01*
X78732177Y-79385185D01*
G37*
%TD.AperFunction*%
%TD*%
%TA.AperFunction,Conductor*%
%TO.N,Net-(U2-SW)*%
G36*
X92587082Y-81769316D02*
G01*
X92609568Y-81787824D01*
X93515501Y-82732590D01*
X93547692Y-82794603D01*
X93550000Y-82818413D01*
X93550000Y-84126000D01*
X93530315Y-84193039D01*
X93477511Y-84238794D01*
X93426000Y-84250000D01*
X91274000Y-84250000D01*
X91206961Y-84230315D01*
X91161206Y-84177511D01*
X91150000Y-84126000D01*
X91150000Y-83200000D01*
X90950000Y-83000000D01*
X89225000Y-83000000D01*
X88742713Y-83500500D01*
X88259422Y-84002042D01*
X88198730Y-84036657D01*
X88170131Y-84040000D01*
X84799000Y-84040000D01*
X84731961Y-84020315D01*
X84686206Y-83967511D01*
X84675000Y-83916000D01*
X84675000Y-83301173D01*
X84686206Y-83249660D01*
X84698616Y-83222487D01*
X84744372Y-83169684D01*
X84811410Y-83150000D01*
X84830358Y-83150000D01*
X84839326Y-83150325D01*
X84841739Y-83150500D01*
X84841740Y-83150500D01*
X85933261Y-83150500D01*
X85935674Y-83150325D01*
X85944642Y-83150000D01*
X86049353Y-83150000D01*
X87436797Y-81786390D01*
X87498405Y-81753440D01*
X87523673Y-81750830D01*
X92520039Y-81749647D01*
X92587082Y-81769316D01*
G37*
%TD.AperFunction*%
%TD*%
M02*
