%TF.GenerationSoftware,KiCad,Pcbnew,9.0.6+1*%
%TF.CreationDate,2026-01-19T09:17:55-08:00*%
%TF.ProjectId,yorp,796f7270-2e6b-4696-9361-645f70636258,rev?*%
%TF.SameCoordinates,Original*%
%TF.FileFunction,Copper,L4,Bot*%
%TF.FilePolarity,Positive*%
%FSLAX46Y46*%
G04 Gerber Fmt 4.6, Leading zero omitted, Abs format (unit mm)*
G04 Created by KiCad (PCBNEW 9.0.6+1) date 2026-01-19 09:17:55*
%MOMM*%
%LPD*%
G01*
G04 APERTURE LIST*
%TA.AperFunction,ComponentPad*%
%ADD10R,1.700000X1.700000*%
%TD*%
%TA.AperFunction,ComponentPad*%
%ADD11O,1.700000X1.700000*%
%TD*%
%TA.AperFunction,ViaPad*%
%ADD12C,0.600000*%
%TD*%
%TA.AperFunction,Conductor*%
%ADD13C,0.200000*%
%TD*%
%TA.AperFunction,Conductor*%
%ADD14C,1.300000*%
%TD*%
G04 APERTURE END LIST*
D10*
%TO.P,J1,1,Pin_1*%
%TO.N,GND*%
X75000000Y-82935000D03*
D11*
%TO.P,J1,2,Pin_2*%
%TO.N,/3.6V*%
X75000000Y-85475000D03*
%TO.P,J1,3,Pin_3*%
%TO.N,/5V*%
X75000000Y-88015000D03*
%TD*%
D12*
%TO.N,GND*%
X85350000Y-85250000D03*
X76300000Y-88900000D03*
X76200000Y-90300000D03*
X84925000Y-86525000D03*
X80250000Y-81246835D03*
X92050000Y-79750000D03*
X80500000Y-90900000D03*
X86975000Y-79750000D03*
X80425000Y-87650000D03*
X86075000Y-87675000D03*
X74400000Y-80600000D03*
X76900000Y-80600000D03*
X80425000Y-86500000D03*
X84250000Y-90900000D03*
X86500000Y-85250000D03*
X82600000Y-87650000D03*
X82600000Y-86500000D03*
X79500000Y-85825000D03*
X84925000Y-87675000D03*
X79250000Y-90900000D03*
X76350000Y-81300000D03*
X86275000Y-80600000D03*
X77250000Y-83175000D03*
X78000000Y-90900000D03*
X78300000Y-82350000D03*
X89525000Y-79750000D03*
X88250000Y-79750000D03*
X74900000Y-90300000D03*
X76500000Y-83975000D03*
X87250000Y-84750000D03*
X94700000Y-79750000D03*
X75050000Y-81300000D03*
X84250000Y-83000000D03*
X76750000Y-90900000D03*
X84250000Y-85250000D03*
X93425000Y-79750000D03*
X83000000Y-90900000D03*
X75650000Y-80600000D03*
X74250000Y-90900000D03*
X82200000Y-85825000D03*
X90800000Y-79750000D03*
X81750000Y-90900000D03*
X79400000Y-87650000D03*
X75500000Y-90900000D03*
%TO.N,/3.6V*%
X79375000Y-81225000D03*
%TO.N,/5V*%
X82175000Y-84450000D03*
X82175000Y-83700000D03*
%TD*%
D13*
%TO.N,/3.6V*%
X77625000Y-79475000D02*
X74575000Y-79475000D01*
X73750000Y-84225000D02*
X75000000Y-85475000D01*
X74575000Y-79475000D02*
X73750000Y-80300000D01*
X79375000Y-81225000D02*
X77625000Y-79475000D01*
X75000000Y-85475000D02*
X75000000Y-85101471D01*
X73750000Y-80300000D02*
X73750000Y-84225000D01*
D14*
%TO.N,/5V*%
X82175000Y-83700000D02*
X82175000Y-84450000D01*
X82175000Y-83700000D02*
X81425000Y-84450000D01*
X78988173Y-84450000D02*
X75423173Y-88015000D01*
X81425000Y-84450000D02*
X78988173Y-84450000D01*
X75423173Y-88015000D02*
X75000000Y-88015000D01*
X82175000Y-84450000D02*
X78988173Y-84450000D01*
%TD*%
%TA.AperFunction,Conductor*%
%TO.N,GND*%
G36*
X95267539Y-79385185D02*
G01*
X95313294Y-79437989D01*
X95324500Y-79489500D01*
X95324500Y-91180500D01*
X95304815Y-91247539D01*
X95252011Y-91293294D01*
X95200500Y-91304500D01*
X73699500Y-91304500D01*
X73632461Y-91284815D01*
X73586706Y-91232011D01*
X73575500Y-91180500D01*
X73575500Y-84774833D01*
X73595185Y-84707794D01*
X73647989Y-84662039D01*
X73717147Y-84652095D01*
X73780703Y-84681120D01*
X73787181Y-84687152D01*
X74012924Y-84912895D01*
X74046409Y-84974218D01*
X74041425Y-85043910D01*
X74039804Y-85048029D01*
X73989870Y-85168579D01*
X73989868Y-85168587D01*
X73949500Y-85371530D01*
X73949500Y-85578469D01*
X73989868Y-85781412D01*
X73989870Y-85781420D01*
X74069058Y-85972596D01*
X74184024Y-86144657D01*
X74330342Y-86290975D01*
X74330345Y-86290977D01*
X74502402Y-86405941D01*
X74693580Y-86485130D01*
X74896530Y-86525499D01*
X74896534Y-86525500D01*
X74896535Y-86525500D01*
X75103466Y-86525500D01*
X75103467Y-86525499D01*
X75306420Y-86485130D01*
X75488156Y-86409851D01*
X75557623Y-86402383D01*
X75620102Y-86433658D01*
X75655755Y-86493746D01*
X75653262Y-86563572D01*
X75623288Y-86612094D01*
X75289973Y-86945409D01*
X75228650Y-86978894D01*
X75178102Y-86979346D01*
X75103465Y-86964500D01*
X74896535Y-86964500D01*
X74896530Y-86964500D01*
X74693587Y-87004868D01*
X74693579Y-87004870D01*
X74502403Y-87084058D01*
X74330342Y-87199024D01*
X74184024Y-87345342D01*
X74069058Y-87517403D01*
X73989870Y-87708579D01*
X73989868Y-87708587D01*
X73949500Y-87911530D01*
X73949500Y-88118469D01*
X73989868Y-88321412D01*
X73989870Y-88321420D01*
X74069058Y-88512596D01*
X74184024Y-88684657D01*
X74330342Y-88830975D01*
X74330345Y-88830977D01*
X74502402Y-88945941D01*
X74693580Y-89025130D01*
X74896530Y-89065499D01*
X74896534Y-89065500D01*
X74896535Y-89065500D01*
X75103466Y-89065500D01*
X75103467Y-89065499D01*
X75306420Y-89025130D01*
X75497598Y-88945941D01*
X75649649Y-88844343D01*
X75671078Y-88832889D01*
X75671081Y-88832887D01*
X75671249Y-88832816D01*
X75671255Y-88832816D01*
X75716588Y-88814037D01*
X75826036Y-88768704D01*
X75965335Y-88675627D01*
X79304142Y-85336818D01*
X79365465Y-85303334D01*
X79391823Y-85300500D01*
X82258768Y-85300500D01*
X82258769Y-85300499D01*
X82423082Y-85267816D01*
X82577863Y-85203703D01*
X82717162Y-85110626D01*
X82835626Y-84992162D01*
X82928703Y-84852863D01*
X82992816Y-84698082D01*
X83025500Y-84533767D01*
X83025500Y-83616233D01*
X82992816Y-83451918D01*
X82968281Y-83392686D01*
X82928704Y-83297137D01*
X82835626Y-83157838D01*
X82835622Y-83157834D01*
X82835620Y-83157831D01*
X82717168Y-83039379D01*
X82717164Y-83039376D01*
X82717162Y-83039374D01*
X82577863Y-82946296D01*
X82577860Y-82946294D01*
X82577859Y-82946294D01*
X82577857Y-82946293D01*
X82468416Y-82900962D01*
X82468414Y-82900961D01*
X82423086Y-82882185D01*
X82423074Y-82882182D01*
X82258771Y-82849500D01*
X82258767Y-82849500D01*
X82091233Y-82849500D01*
X82091228Y-82849500D01*
X81926925Y-82882182D01*
X81926913Y-82882185D01*
X81881583Y-82900962D01*
X81772143Y-82946292D01*
X81632831Y-83039379D01*
X81632831Y-83039380D01*
X81109030Y-83563181D01*
X81047707Y-83596666D01*
X81021349Y-83599500D01*
X78904401Y-83599500D01*
X78740098Y-83632182D01*
X78740090Y-83632184D01*
X78585312Y-83696295D01*
X78446010Y-83789373D01*
X78446007Y-83789376D01*
X76137094Y-86098288D01*
X76075771Y-86131773D01*
X76006079Y-86126789D01*
X75950146Y-86084917D01*
X75925729Y-86019453D01*
X75934851Y-85963157D01*
X76010130Y-85781420D01*
X76050500Y-85578465D01*
X76050500Y-85371535D01*
X76010130Y-85168580D01*
X75930941Y-84977402D01*
X75815977Y-84805345D01*
X75815975Y-84805342D01*
X75669657Y-84659024D01*
X75502616Y-84547412D01*
X75497598Y-84544059D01*
X75472753Y-84533768D01*
X75306420Y-84464870D01*
X75306412Y-84464868D01*
X75103469Y-84424500D01*
X75103465Y-84424500D01*
X74896535Y-84424500D01*
X74896530Y-84424500D01*
X74693587Y-84464868D01*
X74693579Y-84464870D01*
X74573029Y-84514804D01*
X74503559Y-84522273D01*
X74441080Y-84490998D01*
X74437895Y-84487924D01*
X74086819Y-84136848D01*
X74053334Y-84075525D01*
X74050500Y-84049167D01*
X74050500Y-80475833D01*
X74070185Y-80408794D01*
X74086819Y-80388152D01*
X74663152Y-79811819D01*
X74724475Y-79778334D01*
X74750833Y-79775500D01*
X77449167Y-79775500D01*
X77516206Y-79795185D01*
X77536848Y-79811819D01*
X78838181Y-81113152D01*
X78871666Y-81174475D01*
X78874500Y-81200833D01*
X78874500Y-81290891D01*
X78908608Y-81418187D01*
X78941554Y-81475250D01*
X78974500Y-81532314D01*
X79067686Y-81625500D01*
X79181814Y-81691392D01*
X79309108Y-81725500D01*
X79309110Y-81725500D01*
X79440890Y-81725500D01*
X79440892Y-81725500D01*
X79568186Y-81691392D01*
X79682314Y-81625500D01*
X79775500Y-81532314D01*
X79841392Y-81418186D01*
X79875500Y-81290892D01*
X79875500Y-81159108D01*
X79841392Y-81031814D01*
X79775500Y-80917686D01*
X79682314Y-80824500D01*
X79625250Y-80791554D01*
X79568187Y-80758608D01*
X79504539Y-80741554D01*
X79440892Y-80724500D01*
X79350833Y-80724500D01*
X79283794Y-80704815D01*
X79263152Y-80688181D01*
X78152152Y-79577181D01*
X78118667Y-79515858D01*
X78123651Y-79446166D01*
X78165523Y-79390233D01*
X78230987Y-79365816D01*
X78239833Y-79365500D01*
X95200500Y-79365500D01*
X95267539Y-79385185D01*
G37*
%TD.AperFunction*%
%TD*%
M02*
