%TF.GenerationSoftware,KiCad,Pcbnew,8.0.5-dirty*%
%TF.CreationDate,2025-05-16T12:44:24-07:00*%
%TF.ProjectId,yorp,796f7270-2e6b-4696-9361-645f70636258,rev?*%
%TF.SameCoordinates,Original*%
%TF.FileFunction,Drillmap*%
%TF.FilePolarity,Positive*%
%FSLAX45Y45*%
G04 Gerber Fmt 4.5, Leading zero omitted, Abs format (unit mm)*
G04 Created by KiCad (PCBNEW 8.0.5-dirty) date 2025-05-16 12:44:24*
%MOMM*%
%LPD*%
G01*
G04 APERTURE LIST*
%ADD10C,0.050000*%
%ADD11C,0.200000*%
G04 APERTURE END LIST*
D10*
X7307500Y-7886500D02*
X9582500Y-7886500D01*
X9582500Y-9180500D01*
X7307500Y-9180500D01*
X7307500Y-7886500D01*
D11*
X7565777Y-9494484D02*
X7565777Y-9294484D01*
X7565777Y-9294484D02*
X7613396Y-9294484D01*
X7613396Y-9294484D02*
X7641967Y-9304008D01*
X7641967Y-9304008D02*
X7661015Y-9323055D01*
X7661015Y-9323055D02*
X7670539Y-9342103D01*
X7670539Y-9342103D02*
X7680062Y-9380198D01*
X7680062Y-9380198D02*
X7680062Y-9408770D01*
X7680062Y-9408770D02*
X7670539Y-9446865D01*
X7670539Y-9446865D02*
X7661015Y-9465912D01*
X7661015Y-9465912D02*
X7641967Y-9484960D01*
X7641967Y-9484960D02*
X7613396Y-9494484D01*
X7613396Y-9494484D02*
X7565777Y-9494484D01*
X7765777Y-9494484D02*
X7765777Y-9361150D01*
X7765777Y-9399246D02*
X7775301Y-9380198D01*
X7775301Y-9380198D02*
X7784824Y-9370674D01*
X7784824Y-9370674D02*
X7803872Y-9361150D01*
X7803872Y-9361150D02*
X7822920Y-9361150D01*
X7889586Y-9494484D02*
X7889586Y-9361150D01*
X7889586Y-9294484D02*
X7880062Y-9304008D01*
X7880062Y-9304008D02*
X7889586Y-9313531D01*
X7889586Y-9313531D02*
X7899110Y-9304008D01*
X7899110Y-9304008D02*
X7889586Y-9294484D01*
X7889586Y-9294484D02*
X7889586Y-9313531D01*
X8013396Y-9494484D02*
X7994348Y-9484960D01*
X7994348Y-9484960D02*
X7984824Y-9465912D01*
X7984824Y-9465912D02*
X7984824Y-9294484D01*
X8118158Y-9494484D02*
X8099110Y-9484960D01*
X8099110Y-9484960D02*
X8089586Y-9465912D01*
X8089586Y-9465912D02*
X8089586Y-9294484D01*
X8346729Y-9494484D02*
X8346729Y-9294484D01*
X8346729Y-9294484D02*
X8413396Y-9437341D01*
X8413396Y-9437341D02*
X8480063Y-9294484D01*
X8480063Y-9294484D02*
X8480063Y-9494484D01*
X8661015Y-9494484D02*
X8661015Y-9389722D01*
X8661015Y-9389722D02*
X8651491Y-9370674D01*
X8651491Y-9370674D02*
X8632444Y-9361150D01*
X8632444Y-9361150D02*
X8594348Y-9361150D01*
X8594348Y-9361150D02*
X8575301Y-9370674D01*
X8661015Y-9484960D02*
X8641967Y-9494484D01*
X8641967Y-9494484D02*
X8594348Y-9494484D01*
X8594348Y-9494484D02*
X8575301Y-9484960D01*
X8575301Y-9484960D02*
X8565777Y-9465912D01*
X8565777Y-9465912D02*
X8565777Y-9446865D01*
X8565777Y-9446865D02*
X8575301Y-9427817D01*
X8575301Y-9427817D02*
X8594348Y-9418293D01*
X8594348Y-9418293D02*
X8641967Y-9418293D01*
X8641967Y-9418293D02*
X8661015Y-9408770D01*
X8756253Y-9361150D02*
X8756253Y-9561150D01*
X8756253Y-9370674D02*
X8775301Y-9361150D01*
X8775301Y-9361150D02*
X8813396Y-9361150D01*
X8813396Y-9361150D02*
X8832444Y-9370674D01*
X8832444Y-9370674D02*
X8841967Y-9380198D01*
X8841967Y-9380198D02*
X8851491Y-9399246D01*
X8851491Y-9399246D02*
X8851491Y-9456389D01*
X8851491Y-9456389D02*
X8841967Y-9475436D01*
X8841967Y-9475436D02*
X8832444Y-9484960D01*
X8832444Y-9484960D02*
X8813396Y-9494484D01*
X8813396Y-9494484D02*
X8775301Y-9494484D01*
X8775301Y-9494484D02*
X8756253Y-9484960D01*
X8937205Y-9475436D02*
X8946729Y-9484960D01*
X8946729Y-9484960D02*
X8937205Y-9494484D01*
X8937205Y-9494484D02*
X8927682Y-9484960D01*
X8927682Y-9484960D02*
X8937205Y-9475436D01*
X8937205Y-9475436D02*
X8937205Y-9494484D01*
X8937205Y-9370674D02*
X8946729Y-9380198D01*
X8946729Y-9380198D02*
X8937205Y-9389722D01*
X8937205Y-9389722D02*
X8927682Y-9380198D01*
X8927682Y-9380198D02*
X8937205Y-9370674D01*
X8937205Y-9370674D02*
X8937205Y-9389722D01*
M02*
