%TF.GenerationSoftware,KiCad,Pcbnew,9.0.6+1*%
%TF.CreationDate,2026-01-19T09:17:55-08:00*%
%TF.ProjectId,yorp,796f7270-2e6b-4696-9361-645f70636258,rev?*%
%TF.SameCoordinates,Original*%
%TF.FileFunction,Copper,L1,Top*%
%TF.FilePolarity,Positive*%
%FSLAX46Y46*%
G04 Gerber Fmt 4.6, Leading zero omitted, Abs format (unit mm)*
G04 Created by KiCad (PCBNEW 9.0.6+1) date 2026-01-19 09:17:55*
%MOMM*%
%LPD*%
G01*
G04 APERTURE LIST*
G04 Aperture macros list*
%AMRoundRect*
0 Rectangle with rounded corners*
0 $1 Rounding radius*
0 $2 $3 $4 $5 $6 $7 $8 $9 X,Y pos of 4 corners*
0 Add a 4 corners polygon primitive as box body*
4,1,4,$2,$3,$4,$5,$6,$7,$8,$9,$2,$3,0*
0 Add four circle primitives for the rounded corners*
1,1,$1+$1,$2,$3*
1,1,$1+$1,$4,$5*
1,1,$1+$1,$6,$7*
1,1,$1+$1,$8,$9*
0 Add four rect primitives between the rounded corners*
20,1,$1+$1,$2,$3,$4,$5,0*
20,1,$1+$1,$4,$5,$6,$7,0*
20,1,$1+$1,$6,$7,$8,$9,0*
20,1,$1+$1,$8,$9,$2,$3,0*%
G04 Aperture macros list end*
%TA.AperFunction,SMDPad,CuDef*%
%ADD10RoundRect,0.250000X0.325000X0.650000X-0.325000X0.650000X-0.325000X-0.650000X0.325000X-0.650000X0*%
%TD*%
%TA.AperFunction,SMDPad,CuDef*%
%ADD11RoundRect,0.250000X-0.262500X-0.450000X0.262500X-0.450000X0.262500X0.450000X-0.262500X0.450000X0*%
%TD*%
%TA.AperFunction,SMDPad,CuDef*%
%ADD12RoundRect,0.250000X0.650000X-0.325000X0.650000X0.325000X-0.650000X0.325000X-0.650000X-0.325000X0*%
%TD*%
%TA.AperFunction,SMDPad,CuDef*%
%ADD13RoundRect,0.250000X0.475000X-0.250000X0.475000X0.250000X-0.475000X0.250000X-0.475000X-0.250000X0*%
%TD*%
%TA.AperFunction,ComponentPad*%
%ADD14R,1.700000X1.700000*%
%TD*%
%TA.AperFunction,ComponentPad*%
%ADD15O,1.700000X1.700000*%
%TD*%
%TA.AperFunction,SMDPad,CuDef*%
%ADD16RoundRect,0.150000X-0.512500X-0.150000X0.512500X-0.150000X0.512500X0.150000X-0.512500X0.150000X0*%
%TD*%
%TA.AperFunction,SMDPad,CuDef*%
%ADD17R,2.400000X1.500000*%
%TD*%
%TA.AperFunction,SMDPad,CuDef*%
%ADD18RoundRect,0.250000X-0.250000X-0.475000X0.250000X-0.475000X0.250000X0.475000X-0.250000X0.475000X0*%
%TD*%
%TA.AperFunction,ViaPad*%
%ADD19C,0.600000*%
%TD*%
%TA.AperFunction,Conductor*%
%ADD20C,0.750000*%
%TD*%
%TA.AperFunction,Conductor*%
%ADD21C,0.200000*%
%TD*%
G04 APERTURE END LIST*
D10*
%TO.P,C7,1*%
%TO.N,/5V*%
X81197037Y-84363625D03*
%TO.P,C7,2*%
%TO.N,GND*%
X78247037Y-84363625D03*
%TD*%
D11*
%TO.P,R1,1*%
%TO.N,/3.6V*%
X79412500Y-80250000D03*
%TO.P,R1,2*%
%TO.N,Net-(U2-FB)*%
X81237500Y-80250000D03*
%TD*%
D12*
%TO.P,C2,1*%
%TO.N,/3.6V*%
X81450000Y-89800000D03*
%TO.P,C2,2*%
%TO.N,GND*%
X81450000Y-86850000D03*
%TD*%
D11*
%TO.P,R2,1*%
%TO.N,Net-(U2-FB)*%
X83062500Y-80250000D03*
%TO.P,R2,2*%
%TO.N,GND*%
X84887500Y-80250000D03*
%TD*%
D12*
%TO.P,C3,1*%
%TO.N,/3.6V*%
X83775000Y-89775000D03*
%TO.P,C3,2*%
%TO.N,GND*%
X83775000Y-86825000D03*
%TD*%
D13*
%TO.P,C5,1*%
%TO.N,Net-(U2-SW)*%
X87625000Y-82675000D03*
%TO.P,C5,2*%
%TO.N,Net-(U2-BST)*%
X87625000Y-80775000D03*
%TD*%
D14*
%TO.P,J1,1,Pin_1*%
%TO.N,GND*%
X75000000Y-82935000D03*
D15*
%TO.P,J1,2,Pin_2*%
%TO.N,/3.6V*%
X75000000Y-85475000D03*
%TO.P,J1,3,Pin_3*%
%TO.N,/5V*%
X75000000Y-88015000D03*
%TD*%
D16*
%TO.P,U2,1,FB*%
%TO.N,Net-(U2-FB)*%
X83112500Y-82650000D03*
%TO.P,U2,2,EN*%
%TO.N,/5V*%
X83112500Y-83600000D03*
%TO.P,U2,3,IN*%
X83112500Y-84550000D03*
%TO.P,U2,4,GND*%
%TO.N,GND*%
X85387500Y-84550000D03*
%TO.P,U2,5,SW*%
%TO.N,Net-(U2-SW)*%
X85387500Y-83600000D03*
%TO.P,U2,6,BST*%
%TO.N,Net-(U2-BST)*%
X85387500Y-82650000D03*
%TD*%
D12*
%TO.P,C4,1*%
%TO.N,/3.6V*%
X86075000Y-89775000D03*
%TO.P,C4,2*%
%TO.N,GND*%
X86075000Y-86825000D03*
%TD*%
%TO.P,C1,1*%
%TO.N,/3.6V*%
X79125000Y-89800000D03*
%TO.P,C1,2*%
%TO.N,GND*%
X79125000Y-86850000D03*
%TD*%
D17*
%TO.P,L1,1*%
%TO.N,Net-(U2-SW)*%
X92350000Y-83500000D03*
%TO.P,L1,2*%
%TO.N,/3.6V*%
X92350000Y-89000000D03*
%TD*%
D18*
%TO.P,C6,1*%
%TO.N,/3.6V*%
X79375000Y-82225000D03*
%TO.P,C6,2*%
%TO.N,Net-(U2-FB)*%
X81275000Y-82225000D03*
%TD*%
D19*
%TO.N,GND*%
X85350000Y-85250000D03*
X76300000Y-88900000D03*
X76200000Y-90300000D03*
X84925000Y-86525000D03*
X80250000Y-81246835D03*
X92050000Y-79750000D03*
X80500000Y-90900000D03*
X86975000Y-79750000D03*
X80425000Y-87650000D03*
X86075000Y-87675000D03*
X74400000Y-80600000D03*
X76900000Y-80600000D03*
X80425000Y-86500000D03*
X84250000Y-90900000D03*
X86500000Y-85250000D03*
X82600000Y-87650000D03*
X82600000Y-86500000D03*
X79500000Y-85825000D03*
X84925000Y-87675000D03*
X79250000Y-90900000D03*
X76350000Y-81300000D03*
X86275000Y-80600000D03*
X77250000Y-83175000D03*
X78000000Y-90900000D03*
X78300000Y-82350000D03*
X89525000Y-79750000D03*
X88250000Y-79750000D03*
X74900000Y-90300000D03*
X76500000Y-83975000D03*
X87250000Y-84750000D03*
X94700000Y-79750000D03*
X75050000Y-81300000D03*
X84250000Y-83000000D03*
X76750000Y-90900000D03*
X84250000Y-85250000D03*
X93425000Y-79750000D03*
X83000000Y-90900000D03*
X75650000Y-80600000D03*
X74250000Y-90900000D03*
X82200000Y-85825000D03*
X90800000Y-79750000D03*
X81750000Y-90900000D03*
X79400000Y-87650000D03*
X75500000Y-90900000D03*
%TO.N,/3.6V*%
X79375000Y-81225000D03*
%TO.N,/5V*%
X82175000Y-84450000D03*
X82175000Y-83700000D03*
%TD*%
D20*
%TO.N,/3.6V*%
X79375000Y-80287500D02*
X79375000Y-82225000D01*
X79412500Y-80250000D02*
X79375000Y-80287500D01*
D21*
X79375000Y-81225000D02*
X79375000Y-82225000D01*
X79412500Y-81187500D02*
X79412500Y-80250000D01*
X79375000Y-81225000D02*
X79412500Y-81187500D01*
%TO.N,Net-(U2-BST)*%
X87575000Y-80800000D02*
X87600000Y-80800000D01*
X87600000Y-80800000D02*
X87625000Y-80775000D01*
X87625000Y-80775000D02*
X87612500Y-80775000D01*
X87612500Y-80775000D02*
X85937500Y-82450000D01*
D20*
%TO.N,/5V*%
X75050000Y-88050000D02*
X75000000Y-88000000D01*
%TD*%
%TA.AperFunction,Conductor*%
%TO.N,/5V*%
G36*
X83717934Y-83322172D02*
G01*
X83763742Y-83374930D01*
X83775000Y-83426555D01*
X83775000Y-85072614D01*
X83770775Y-85104707D01*
X83747803Y-85190442D01*
X83711439Y-85250102D01*
X83648592Y-85280632D01*
X83628009Y-85282349D01*
X80828026Y-85281918D01*
X80760989Y-85262223D01*
X80740067Y-85245301D01*
X80661022Y-85165718D01*
X80627745Y-85104282D01*
X80625000Y-85078335D01*
X80625000Y-83651362D01*
X80644685Y-83584323D01*
X80661319Y-83563681D01*
X80883419Y-83341580D01*
X80944740Y-83308097D01*
X80970971Y-83305263D01*
X83650876Y-83302555D01*
X83717934Y-83322172D01*
G37*
%TD.AperFunction*%
%TD*%
%TA.AperFunction,Conductor*%
%TO.N,Net-(U2-FB)*%
G36*
X83390677Y-79569685D02*
G01*
X83411319Y-79586319D01*
X83738681Y-79913681D01*
X83772166Y-79975004D01*
X83775000Y-80001362D01*
X83775000Y-82822612D01*
X83770772Y-82854717D01*
X83770397Y-82856116D01*
X83738306Y-82911692D01*
X83736317Y-82913681D01*
X83734794Y-82914512D01*
X83734026Y-82915773D01*
X83720098Y-82922536D01*
X83674994Y-82947166D01*
X83648636Y-82950000D01*
X80976362Y-82950000D01*
X80909323Y-82930315D01*
X80888681Y-82913681D01*
X80786319Y-82811319D01*
X80752834Y-82749996D01*
X80750000Y-82723638D01*
X80750000Y-81314593D01*
X80750500Y-81312727D01*
X80750500Y-81180943D01*
X80750000Y-81179076D01*
X80750000Y-79751362D01*
X80769685Y-79684323D01*
X80786319Y-79663681D01*
X80863681Y-79586319D01*
X80925004Y-79552834D01*
X80951362Y-79550000D01*
X83323638Y-79550000D01*
X83390677Y-79569685D01*
G37*
%TD.AperFunction*%
%TD*%
%TA.AperFunction,Conductor*%
%TO.N,/3.6V*%
G36*
X76015677Y-84419685D02*
G01*
X76036319Y-84436319D01*
X77963681Y-86363681D01*
X77997166Y-86425004D01*
X78000000Y-86451362D01*
X78000000Y-87300000D01*
X78043756Y-87343756D01*
X78066705Y-87380277D01*
X78067864Y-87379665D01*
X78072206Y-87387881D01*
X78072207Y-87387882D01*
X78152850Y-87497150D01*
X78228244Y-87552793D01*
X78262118Y-87577793D01*
X78270337Y-87582137D01*
X78269723Y-87583298D01*
X78306243Y-87606243D01*
X79350000Y-88650000D01*
X87898638Y-88650000D01*
X87965677Y-88669685D01*
X87986319Y-88686319D01*
X88900000Y-89600000D01*
X88975000Y-89600000D01*
X91150000Y-89600000D01*
X91150000Y-88386506D01*
X91169685Y-88319467D01*
X91222489Y-88273712D01*
X91273942Y-88262506D01*
X93437948Y-88261535D01*
X93504995Y-88281189D01*
X93550773Y-88333973D01*
X93562002Y-88385583D01*
X93561222Y-90387463D01*
X93541511Y-90454495D01*
X93524903Y-90475096D01*
X92930805Y-91069194D01*
X92869482Y-91102679D01*
X92843009Y-91105513D01*
X86917597Y-91100039D01*
X86850576Y-91080292D01*
X86841418Y-91073790D01*
X86835529Y-91069194D01*
X86580901Y-90870460D01*
X85946094Y-90375000D01*
X85946093Y-90375000D01*
X78526362Y-90375000D01*
X78459323Y-90355315D01*
X78438681Y-90338681D01*
X76711174Y-88611174D01*
X76700500Y-88592686D01*
X76607314Y-88499500D01*
X76588825Y-88488825D01*
X76111319Y-88011319D01*
X76077834Y-87949996D01*
X76075000Y-87923638D01*
X76075000Y-87600000D01*
X75250000Y-86775000D01*
X74176362Y-86775000D01*
X74109323Y-86755315D01*
X74088681Y-86738681D01*
X73786319Y-86436319D01*
X73752834Y-86374996D01*
X73750000Y-86348638D01*
X73750000Y-84701362D01*
X73769685Y-84634323D01*
X73786319Y-84613681D01*
X73963681Y-84436319D01*
X74025004Y-84402834D01*
X74051362Y-84400000D01*
X75948638Y-84400000D01*
X76015677Y-84419685D01*
G37*
%TD.AperFunction*%
%TD*%
%TA.AperFunction,Conductor*%
%TO.N,GND*%
G36*
X73780703Y-86721769D02*
G01*
X73787167Y-86727787D01*
X73874862Y-86815482D01*
X73943375Y-86883995D01*
X73959716Y-86898674D01*
X73959730Y-86898686D01*
X73959738Y-86898693D01*
X73968136Y-86905460D01*
X73980379Y-86915327D01*
X74051424Y-86952490D01*
X74118456Y-86972173D01*
X74118458Y-86972173D01*
X74118464Y-86972175D01*
X74176362Y-86980500D01*
X74250059Y-86980500D01*
X74317098Y-87000185D01*
X74362853Y-87052989D01*
X74372797Y-87122147D01*
X74343772Y-87185703D01*
X74334584Y-87194647D01*
X74334652Y-87194715D01*
X74184025Y-87345341D01*
X74184024Y-87345342D01*
X74069058Y-87517403D01*
X73989870Y-87708579D01*
X73989868Y-87708587D01*
X73949500Y-87911530D01*
X73949500Y-88118469D01*
X73989868Y-88321412D01*
X73989870Y-88321420D01*
X74069058Y-88512596D01*
X74184024Y-88684657D01*
X74330342Y-88830975D01*
X74330345Y-88830977D01*
X74502402Y-88945941D01*
X74693580Y-89025130D01*
X74896530Y-89065499D01*
X74896534Y-89065500D01*
X74896535Y-89065500D01*
X75103466Y-89065500D01*
X75103467Y-89065499D01*
X75306420Y-89025130D01*
X75497598Y-88945941D01*
X75669655Y-88830977D01*
X75815977Y-88684655D01*
X75930941Y-88512598D01*
X75974455Y-88407545D01*
X76018296Y-88353142D01*
X76084590Y-88331077D01*
X76152289Y-88348356D01*
X76176697Y-88367317D01*
X76443515Y-88634135D01*
X76470660Y-88654965D01*
X76482852Y-88665658D01*
X76534344Y-88717150D01*
X76545033Y-88729337D01*
X76565864Y-88756484D01*
X76565865Y-88756485D01*
X78011794Y-90202414D01*
X78041154Y-90249140D01*
X78072206Y-90337880D01*
X78072207Y-90337882D01*
X78152850Y-90447150D01*
X78262118Y-90527793D01*
X78304845Y-90542744D01*
X78390299Y-90572646D01*
X78420730Y-90575500D01*
X78420734Y-90575500D01*
X78482718Y-90575500D01*
X78500364Y-90576761D01*
X78526362Y-90580500D01*
X85832729Y-90580500D01*
X85899768Y-90600185D01*
X85909023Y-90606749D01*
X86518897Y-91082749D01*
X86559634Y-91139514D01*
X86563214Y-91209292D01*
X86528501Y-91269929D01*
X86466517Y-91302172D01*
X86442603Y-91304500D01*
X73699500Y-91304500D01*
X73632461Y-91284815D01*
X73586706Y-91232011D01*
X73575500Y-91180500D01*
X73575500Y-86815482D01*
X73595185Y-86748443D01*
X73647989Y-86702688D01*
X73717147Y-86692744D01*
X73780703Y-86721769D01*
G37*
%TD.AperFunction*%
%TA.AperFunction,Conductor*%
G36*
X78732177Y-79385185D02*
G01*
X78777932Y-79437989D01*
X78787876Y-79507147D01*
X78764909Y-79563133D01*
X78747207Y-79587118D01*
X78747206Y-79587119D01*
X78702353Y-79715298D01*
X78702353Y-79715300D01*
X78699500Y-79745730D01*
X78699500Y-80754269D01*
X78702353Y-80784699D01*
X78702353Y-80784701D01*
X78747206Y-80912880D01*
X78747207Y-80912882D01*
X78775270Y-80950906D01*
X78799241Y-81016533D01*
X78799500Y-81024539D01*
X78799500Y-81391586D01*
X78779815Y-81458625D01*
X78775270Y-81465219D01*
X78722209Y-81537113D01*
X78722206Y-81537119D01*
X78677353Y-81665298D01*
X78677353Y-81665300D01*
X78674500Y-81695730D01*
X78674500Y-82754269D01*
X78677353Y-82784699D01*
X78677353Y-82784701D01*
X78721130Y-82909805D01*
X78722207Y-82912882D01*
X78802850Y-83022150D01*
X78912118Y-83102793D01*
X78930557Y-83109245D01*
X79040299Y-83147646D01*
X79070730Y-83150500D01*
X79070734Y-83150500D01*
X79679270Y-83150500D01*
X79709699Y-83147646D01*
X79709701Y-83147646D01*
X79773790Y-83125219D01*
X79837882Y-83102793D01*
X79947150Y-83022150D01*
X80027793Y-82912882D01*
X80059380Y-82822612D01*
X80072646Y-82784701D01*
X80072646Y-82784699D01*
X80075500Y-82754269D01*
X80075500Y-81695730D01*
X80072646Y-81665300D01*
X80072646Y-81665298D01*
X80039006Y-81569163D01*
X80027793Y-81537118D01*
X80027791Y-81537115D01*
X80027790Y-81537113D01*
X79974730Y-81465219D01*
X79950759Y-81399590D01*
X79950500Y-81391586D01*
X79950500Y-81119176D01*
X79970185Y-81052137D01*
X79991383Y-81029525D01*
X79990579Y-81028721D01*
X79997146Y-81022152D01*
X79997150Y-81022150D01*
X80077793Y-80912882D01*
X80105500Y-80833699D01*
X80122646Y-80784701D01*
X80122646Y-80784699D01*
X80125500Y-80754269D01*
X80125500Y-79745730D01*
X80122646Y-79715300D01*
X80122646Y-79715298D01*
X80077793Y-79587119D01*
X80077793Y-79587118D01*
X80060090Y-79563132D01*
X80036121Y-79497504D01*
X80051437Y-79429334D01*
X80101177Y-79380266D01*
X80159862Y-79365500D01*
X80490138Y-79365500D01*
X80557177Y-79385185D01*
X80602932Y-79437989D01*
X80612876Y-79507147D01*
X80589909Y-79563133D01*
X80572207Y-79587118D01*
X80572206Y-79587119D01*
X80527353Y-79715298D01*
X80527353Y-79715300D01*
X80524500Y-79745730D01*
X80524500Y-80754269D01*
X80527352Y-80784689D01*
X80527355Y-80784703D01*
X80537541Y-80813811D01*
X80544500Y-80854766D01*
X80544500Y-81179078D01*
X80544734Y-81182647D01*
X80545000Y-81190760D01*
X80545000Y-81302908D01*
X80544734Y-81311020D01*
X80544500Y-81314589D01*
X80544500Y-82723638D01*
X80545678Y-82745618D01*
X80548511Y-82771965D01*
X80548512Y-82771967D01*
X80572470Y-82848478D01*
X80572471Y-82848483D01*
X80586872Y-82874855D01*
X80605956Y-82909805D01*
X80605958Y-82909808D01*
X80605960Y-82909811D01*
X80640998Y-82956615D01*
X80641002Y-82956619D01*
X80641009Y-82956629D01*
X80641016Y-82956636D01*
X80685909Y-83001529D01*
X80686561Y-83002185D01*
X80692755Y-83008472D01*
X80702850Y-83022150D01*
X80715236Y-83031291D01*
X80722082Y-83038240D01*
X80734167Y-83060772D01*
X80749631Y-83081136D01*
X80750408Y-83091050D01*
X80755108Y-83099812D01*
X80753093Y-83125298D01*
X80755093Y-83150792D01*
X80750387Y-83159552D01*
X80749604Y-83169464D01*
X80734128Y-83189818D01*
X80722029Y-83212343D01*
X80721431Y-83212946D01*
X80516004Y-83418374D01*
X80501328Y-83434712D01*
X80501306Y-83434739D01*
X80484672Y-83455379D01*
X80447509Y-83526424D01*
X80427826Y-83593456D01*
X80419500Y-83651365D01*
X80419500Y-85078335D01*
X80420639Y-85099955D01*
X80423384Y-85125899D01*
X80447049Y-85202158D01*
X80447050Y-85202159D01*
X80468751Y-85242222D01*
X80480326Y-85263592D01*
X80480329Y-85263596D01*
X80480335Y-85263606D01*
X80515212Y-85310525D01*
X80515216Y-85310530D01*
X80515220Y-85310535D01*
X80515223Y-85310538D01*
X80515229Y-85310545D01*
X80561430Y-85357060D01*
X80594265Y-85390118D01*
X80610835Y-85405080D01*
X80631757Y-85422002D01*
X80703063Y-85459390D01*
X80770100Y-85479085D01*
X80827994Y-85487418D01*
X83627977Y-85487849D01*
X83645092Y-85487138D01*
X83665675Y-85485421D01*
X83738386Y-85465476D01*
X83801233Y-85434946D01*
X83823129Y-85422600D01*
X83886912Y-85357057D01*
X83923276Y-85297397D01*
X83946301Y-85243628D01*
X83969273Y-85157893D01*
X83974517Y-85131529D01*
X83978742Y-85099436D01*
X83980500Y-85072614D01*
X83980500Y-83426555D01*
X83975781Y-83382770D01*
X83964523Y-83331145D01*
X83962004Y-83320869D01*
X83918913Y-83240200D01*
X83918911Y-83240198D01*
X83918909Y-83240194D01*
X83891935Y-83209129D01*
X83862845Y-83145603D01*
X83872718Y-83076435D01*
X83887191Y-83052343D01*
X83916268Y-83014452D01*
X83948359Y-82958876D01*
X83968890Y-82909322D01*
X83969265Y-82907923D01*
X83974513Y-82881548D01*
X83978741Y-82849443D01*
X83980500Y-82822612D01*
X83980500Y-80001362D01*
X83979322Y-79979393D01*
X83976488Y-79953035D01*
X83952529Y-79876518D01*
X83919044Y-79815195D01*
X83883991Y-79768371D01*
X83761292Y-79645672D01*
X83741293Y-79619481D01*
X83735674Y-79609641D01*
X83727793Y-79587118D01*
X83705781Y-79557292D01*
X83702182Y-79550990D01*
X83695716Y-79523777D01*
X83686121Y-79497504D01*
X83687751Y-79490248D01*
X83686032Y-79483012D01*
X83695306Y-79456621D01*
X83701437Y-79429334D01*
X83706730Y-79424111D01*
X83709197Y-79417094D01*
X83731266Y-79399907D01*
X83751177Y-79380266D01*
X83759023Y-79378291D01*
X83764323Y-79374165D01*
X83781681Y-79372590D01*
X83809862Y-79365500D01*
X95200500Y-79365500D01*
X95267539Y-79385185D01*
X95313294Y-79437989D01*
X95324500Y-79489500D01*
X95324500Y-82876000D01*
X95304815Y-82943039D01*
X95252011Y-82988794D01*
X95200500Y-83000000D01*
X93879500Y-83000000D01*
X93873271Y-82998171D01*
X93866890Y-82999357D01*
X93840159Y-82988448D01*
X93812461Y-82980315D01*
X93808210Y-82975410D01*
X93802200Y-82972957D01*
X93785608Y-82949325D01*
X93766706Y-82927511D01*
X93764854Y-82919765D01*
X93762052Y-82915774D01*
X93757957Y-82890917D01*
X93755604Y-82881074D01*
X93755500Y-82878534D01*
X93755500Y-82818413D01*
X93754541Y-82798586D01*
X93752233Y-82774776D01*
X93751092Y-82770922D01*
X93750604Y-82758990D01*
X93750881Y-82757877D01*
X93750500Y-82753916D01*
X93750500Y-82730249D01*
X93750499Y-82730247D01*
X93738868Y-82671770D01*
X93738867Y-82671769D01*
X93694554Y-82605450D01*
X93694552Y-82605449D01*
X93694552Y-82605448D01*
X93673279Y-82591233D01*
X93660550Y-82582728D01*
X93639942Y-82565450D01*
X92757898Y-81645597D01*
X92757869Y-81645569D01*
X92740179Y-81629171D01*
X92740178Y-81629170D01*
X92740168Y-81629162D01*
X92740164Y-81629158D01*
X92717678Y-81610650D01*
X92717677Y-81610649D01*
X92644932Y-81572126D01*
X92577888Y-81552457D01*
X92577890Y-81552457D01*
X92526580Y-81545093D01*
X92519990Y-81544147D01*
X92519989Y-81544147D01*
X88521720Y-81545093D01*
X88454676Y-81525424D01*
X88408909Y-81472631D01*
X88398949Y-81403475D01*
X88421921Y-81347459D01*
X88422147Y-81347151D01*
X88422150Y-81347150D01*
X88502793Y-81237882D01*
X88544330Y-81119176D01*
X88547646Y-81109701D01*
X88547646Y-81109699D01*
X88550500Y-81079269D01*
X88550500Y-80470730D01*
X88547646Y-80440300D01*
X88547646Y-80440298D01*
X88502793Y-80312119D01*
X88502792Y-80312117D01*
X88422150Y-80202850D01*
X88312882Y-80122207D01*
X88312880Y-80122206D01*
X88184700Y-80077353D01*
X88154270Y-80074500D01*
X88154266Y-80074500D01*
X87095734Y-80074500D01*
X87095730Y-80074500D01*
X87065300Y-80077353D01*
X87065298Y-80077353D01*
X86937119Y-80122206D01*
X86937117Y-80122207D01*
X86827850Y-80202850D01*
X86747207Y-80312117D01*
X86747206Y-80312119D01*
X86702353Y-80440298D01*
X86702353Y-80440300D01*
X86699500Y-80470730D01*
X86699500Y-81079269D01*
X86702353Y-81109699D01*
X86702353Y-81109700D01*
X86715625Y-81147629D01*
X86719186Y-81217408D01*
X86686264Y-81276263D01*
X85849348Y-82113181D01*
X85788025Y-82146666D01*
X85761667Y-82149500D01*
X84841739Y-82149500D01*
X84773608Y-82159426D01*
X84668514Y-82210803D01*
X84585803Y-82293514D01*
X84534426Y-82398608D01*
X84524500Y-82466739D01*
X84524500Y-82833260D01*
X84534426Y-82901392D01*
X84560270Y-82954256D01*
X84572030Y-83023129D01*
X84561113Y-83061420D01*
X84555093Y-83074240D01*
X84527565Y-83109245D01*
X84513648Y-83133349D01*
X84500835Y-83159723D01*
X84487717Y-83192489D01*
X84481466Y-83229651D01*
X84480651Y-83229433D01*
X84478562Y-83237231D01*
X84476498Y-83244932D01*
X84476498Y-83244933D01*
X84469500Y-83298100D01*
X84469500Y-83916007D01*
X84474197Y-83959686D01*
X84485397Y-84011174D01*
X84487890Y-84021372D01*
X84487891Y-84021375D01*
X84530899Y-84102083D01*
X84530901Y-84102086D01*
X84576660Y-84154895D01*
X84594242Y-84172839D01*
X84594246Y-84172843D01*
X84594247Y-84172844D01*
X84594249Y-84172845D01*
X84674059Y-84217488D01*
X84674063Y-84217490D01*
X84741102Y-84237175D01*
X84799000Y-84245500D01*
X87676000Y-84245500D01*
X87743039Y-84265185D01*
X87788794Y-84317989D01*
X87800000Y-84369500D01*
X87800000Y-88320500D01*
X87780315Y-88387539D01*
X87727511Y-88433294D01*
X87676000Y-88444500D01*
X79486482Y-88444500D01*
X79419443Y-88424815D01*
X79398801Y-88408181D01*
X78451550Y-87460930D01*
X78415578Y-87432244D01*
X78415575Y-87432242D01*
X78415569Y-87432237D01*
X78415562Y-87432232D01*
X78415557Y-87432229D01*
X78388507Y-87415233D01*
X78380846Y-87410010D01*
X78314840Y-87361297D01*
X78288701Y-87335158D01*
X78240008Y-87269179D01*
X78234787Y-87261522D01*
X78224508Y-87245164D01*
X78205500Y-87179189D01*
X78205500Y-86451361D01*
X78204321Y-86429381D01*
X78201488Y-86403034D01*
X78201487Y-86403032D01*
X78177529Y-86326518D01*
X78144044Y-86265195D01*
X78108991Y-86218371D01*
X77154204Y-85263584D01*
X76181634Y-84291013D01*
X76181633Y-84291012D01*
X76165283Y-84276325D01*
X76165269Y-84276313D01*
X76144620Y-84259672D01*
X76073575Y-84222509D01*
X76006543Y-84202826D01*
X76005894Y-84202732D01*
X75948638Y-84194500D01*
X74051362Y-84194500D01*
X74051361Y-84194500D01*
X74029381Y-84195678D01*
X74003034Y-84198511D01*
X74003032Y-84198512D01*
X73926521Y-84222470D01*
X73926516Y-84222471D01*
X73865188Y-84255960D01*
X73818384Y-84290998D01*
X73818370Y-84291010D01*
X73787180Y-84322200D01*
X73725856Y-84355684D01*
X73656165Y-84350698D01*
X73600232Y-84308826D01*
X73575816Y-84243361D01*
X73575500Y-84234517D01*
X73575500Y-79489500D01*
X73595185Y-79422461D01*
X73647989Y-79376706D01*
X73699500Y-79365500D01*
X78665138Y-79365500D01*
X78732177Y-79385185D01*
G37*
%TD.AperFunction*%
%TD*%
%TA.AperFunction,Conductor*%
%TO.N,Net-(U2-SW)*%
G36*
X92587082Y-81769316D02*
G01*
X92609568Y-81787824D01*
X93515501Y-82732590D01*
X93547692Y-82794603D01*
X93550000Y-82818413D01*
X93550000Y-84126000D01*
X93530315Y-84193039D01*
X93477511Y-84238794D01*
X93426000Y-84250000D01*
X91274000Y-84250000D01*
X91206961Y-84230315D01*
X91161206Y-84177511D01*
X91150000Y-84126000D01*
X91150000Y-83200000D01*
X90950000Y-83000000D01*
X89225000Y-83000000D01*
X88937744Y-83298104D01*
X88259422Y-84002042D01*
X88198730Y-84036657D01*
X88170131Y-84040000D01*
X84799000Y-84040000D01*
X84731961Y-84020315D01*
X84686206Y-83967511D01*
X84675000Y-83916000D01*
X84675000Y-83298104D01*
X84679150Y-83282614D01*
X84678496Y-83268868D01*
X84691614Y-83236102D01*
X84705531Y-83211998D01*
X84756099Y-83163783D01*
X84812917Y-83150000D01*
X84830358Y-83150000D01*
X84839326Y-83150325D01*
X84841739Y-83150500D01*
X84841740Y-83150500D01*
X85933261Y-83150500D01*
X85935674Y-83150325D01*
X85944642Y-83150000D01*
X86049353Y-83150000D01*
X87436797Y-81786390D01*
X87498405Y-81753440D01*
X87523673Y-81750830D01*
X92520039Y-81749647D01*
X92587082Y-81769316D01*
G37*
%TD.AperFunction*%
%TD*%
M02*
