%TF.GenerationSoftware,KiCad,Pcbnew,8.0.5-dirty*%
%TF.CreationDate,2025-05-16T12:44:22-07:00*%
%TF.ProjectId,yorp,796f7270-2e6b-4696-9361-645f70636258,rev?*%
%TF.SameCoordinates,Original*%
%TF.FileFunction,Copper,L3,Inr*%
%TF.FilePolarity,Positive*%
%FSLAX46Y46*%
G04 Gerber Fmt 4.6, Leading zero omitted, Abs format (unit mm)*
G04 Created by KiCad (PCBNEW 8.0.5-dirty) date 2025-05-16 12:44:22*
%MOMM*%
%LPD*%
G01*
G04 APERTURE LIST*
%TA.AperFunction,ComponentPad*%
%ADD10R,1.700000X1.700000*%
%TD*%
%TA.AperFunction,ComponentPad*%
%ADD11O,1.700000X1.700000*%
%TD*%
%TA.AperFunction,ViaPad*%
%ADD12C,0.600000*%
%TD*%
G04 APERTURE END LIST*
D10*
%TO.N,GND*%
%TO.C,J1*%
X75000000Y-82935000D03*
D11*
%TO.N,/3.6V*%
X75000000Y-85475000D03*
%TO.N,/5V*%
X75000000Y-88015000D03*
%TD*%
D12*
%TO.N,GND*%
X85350000Y-85250000D03*
X76300000Y-88900000D03*
X76200000Y-90300000D03*
X84925000Y-86525000D03*
X80250000Y-81246835D03*
X92050000Y-79750000D03*
X80500000Y-90900000D03*
X86975000Y-79750000D03*
X80425000Y-87650000D03*
X86075000Y-87675000D03*
X74400000Y-80600000D03*
X76900000Y-80600000D03*
X80425000Y-86500000D03*
X84250000Y-90900000D03*
X86500000Y-85250000D03*
X82600000Y-87650000D03*
X82600000Y-86500000D03*
X79500000Y-85825000D03*
X84925000Y-87675000D03*
X79250000Y-90900000D03*
X76350000Y-81300000D03*
X86275000Y-80600000D03*
X77250000Y-83175000D03*
X78000000Y-90900000D03*
X78300000Y-82350000D03*
X89525000Y-79750000D03*
X88250000Y-79750000D03*
X74900000Y-90300000D03*
X76500000Y-83975000D03*
X87250000Y-84750000D03*
X94700000Y-79750000D03*
X75050000Y-81300000D03*
X84250000Y-83000000D03*
X76750000Y-90900000D03*
X84250000Y-85250000D03*
X93425000Y-79750000D03*
X83000000Y-90900000D03*
X75650000Y-80600000D03*
X74250000Y-90900000D03*
X82200000Y-85825000D03*
X90800000Y-79750000D03*
X81750000Y-90900000D03*
X79400000Y-87650000D03*
X75500000Y-90900000D03*
%TO.N,/3.6V*%
X79375000Y-81225000D03*
%TO.N,/5V*%
X82175000Y-84450000D03*
X82175000Y-83700000D03*
%TD*%
%TA.AperFunction,Conductor*%
%TO.N,GND*%
G36*
X95267539Y-79385185D02*
G01*
X95313294Y-79437989D01*
X95324500Y-79489500D01*
X95324500Y-91180500D01*
X95304815Y-91247539D01*
X95252011Y-91293294D01*
X95200500Y-91304500D01*
X73699500Y-91304500D01*
X73632461Y-91284815D01*
X73586706Y-91232011D01*
X73575500Y-91180500D01*
X73575500Y-88015000D01*
X73944417Y-88015000D01*
X73964699Y-88220932D01*
X73964700Y-88220934D01*
X74024768Y-88418954D01*
X74122315Y-88601450D01*
X74122317Y-88601452D01*
X74253589Y-88761410D01*
X74350209Y-88840702D01*
X74413550Y-88892685D01*
X74596046Y-88990232D01*
X74794066Y-89050300D01*
X74794065Y-89050300D01*
X74812529Y-89052118D01*
X75000000Y-89070583D01*
X75205934Y-89050300D01*
X75403954Y-88990232D01*
X75586450Y-88892685D01*
X75746410Y-88761410D01*
X75877685Y-88601450D01*
X75975232Y-88418954D01*
X76035300Y-88220934D01*
X76055583Y-88015000D01*
X76035300Y-87809066D01*
X75975232Y-87611046D01*
X75877685Y-87428550D01*
X75825702Y-87365209D01*
X75746410Y-87268589D01*
X75586452Y-87137317D01*
X75586453Y-87137317D01*
X75586450Y-87137315D01*
X75403954Y-87039768D01*
X75205934Y-86979700D01*
X75205932Y-86979699D01*
X75205934Y-86979699D01*
X75000000Y-86959417D01*
X74794067Y-86979699D01*
X74596043Y-87039769D01*
X74485898Y-87098643D01*
X74413550Y-87137315D01*
X74413548Y-87137316D01*
X74413547Y-87137317D01*
X74253589Y-87268589D01*
X74122317Y-87428547D01*
X74024769Y-87611043D01*
X73964699Y-87809067D01*
X73944417Y-88015000D01*
X73575500Y-88015000D01*
X73575500Y-85475000D01*
X73944417Y-85475000D01*
X73964699Y-85680932D01*
X73964700Y-85680934D01*
X74024768Y-85878954D01*
X74122315Y-86061450D01*
X74122317Y-86061452D01*
X74253589Y-86221410D01*
X74350209Y-86300702D01*
X74413550Y-86352685D01*
X74596046Y-86450232D01*
X74794066Y-86510300D01*
X74794065Y-86510300D01*
X74812529Y-86512118D01*
X75000000Y-86530583D01*
X75205934Y-86510300D01*
X75403954Y-86450232D01*
X75586450Y-86352685D01*
X75746410Y-86221410D01*
X75877685Y-86061450D01*
X75975232Y-85878954D01*
X76035300Y-85680934D01*
X76055583Y-85475000D01*
X76035300Y-85269066D01*
X75975232Y-85071046D01*
X75877685Y-84888550D01*
X75825702Y-84825209D01*
X75746410Y-84728589D01*
X75586452Y-84597317D01*
X75586453Y-84597317D01*
X75586450Y-84597315D01*
X75403954Y-84499768D01*
X75205934Y-84439700D01*
X75205932Y-84439699D01*
X75205934Y-84439699D01*
X75000000Y-84419417D01*
X74794067Y-84439699D01*
X74596043Y-84499769D01*
X74485898Y-84558643D01*
X74413550Y-84597315D01*
X74413548Y-84597316D01*
X74413547Y-84597317D01*
X74253589Y-84728589D01*
X74122317Y-84888547D01*
X74122315Y-84888550D01*
X74089202Y-84950499D01*
X74024769Y-85071043D01*
X73964699Y-85269067D01*
X73944417Y-85475000D01*
X73575500Y-85475000D01*
X73575500Y-83700000D01*
X81669353Y-83700000D01*
X81689834Y-83842456D01*
X81749622Y-83973371D01*
X81749625Y-83973377D01*
X81767321Y-83993799D01*
X81796345Y-84057355D01*
X81786401Y-84126513D01*
X81767321Y-84156201D01*
X81749625Y-84176622D01*
X81749622Y-84176628D01*
X81689834Y-84307543D01*
X81669353Y-84450000D01*
X81689834Y-84592456D01*
X81749622Y-84723371D01*
X81749623Y-84723373D01*
X81843872Y-84832143D01*
X81964947Y-84909953D01*
X81964950Y-84909954D01*
X81964949Y-84909954D01*
X82103036Y-84950499D01*
X82103038Y-84950500D01*
X82103039Y-84950500D01*
X82246962Y-84950500D01*
X82246962Y-84950499D01*
X82385053Y-84909953D01*
X82506128Y-84832143D01*
X82600377Y-84723373D01*
X82660165Y-84592457D01*
X82680647Y-84450000D01*
X82660165Y-84307543D01*
X82600377Y-84176627D01*
X82600375Y-84176625D01*
X82600374Y-84176622D01*
X82582680Y-84156203D01*
X82553654Y-84092648D01*
X82563597Y-84023489D01*
X82582680Y-83993797D01*
X82600374Y-83973377D01*
X82600374Y-83973375D01*
X82600377Y-83973373D01*
X82660165Y-83842457D01*
X82680647Y-83700000D01*
X82660165Y-83557543D01*
X82600377Y-83426627D01*
X82506128Y-83317857D01*
X82385053Y-83240047D01*
X82385051Y-83240046D01*
X82385049Y-83240045D01*
X82385050Y-83240045D01*
X82246963Y-83199500D01*
X82246961Y-83199500D01*
X82103039Y-83199500D01*
X82103036Y-83199500D01*
X81964949Y-83240045D01*
X81843873Y-83317856D01*
X81749623Y-83426626D01*
X81749622Y-83426628D01*
X81689834Y-83557543D01*
X81669353Y-83700000D01*
X73575500Y-83700000D01*
X73575500Y-81225000D01*
X78869353Y-81225000D01*
X78889834Y-81367456D01*
X78949622Y-81498371D01*
X78949623Y-81498373D01*
X79043872Y-81607143D01*
X79164947Y-81684953D01*
X79164950Y-81684954D01*
X79164949Y-81684954D01*
X79303036Y-81725499D01*
X79303038Y-81725500D01*
X79303039Y-81725500D01*
X79446962Y-81725500D01*
X79446962Y-81725499D01*
X79585053Y-81684953D01*
X79706128Y-81607143D01*
X79800377Y-81498373D01*
X79860165Y-81367457D01*
X79880647Y-81225000D01*
X79860165Y-81082543D01*
X79800377Y-80951627D01*
X79706128Y-80842857D01*
X79585053Y-80765047D01*
X79585051Y-80765046D01*
X79585049Y-80765045D01*
X79585050Y-80765045D01*
X79446963Y-80724500D01*
X79446961Y-80724500D01*
X79303039Y-80724500D01*
X79303036Y-80724500D01*
X79164949Y-80765045D01*
X79043873Y-80842856D01*
X78949623Y-80951626D01*
X78949622Y-80951628D01*
X78889834Y-81082543D01*
X78869353Y-81225000D01*
X73575500Y-81225000D01*
X73575500Y-79489500D01*
X73595185Y-79422461D01*
X73647989Y-79376706D01*
X73699500Y-79365500D01*
X95200500Y-79365500D01*
X95267539Y-79385185D01*
G37*
%TD.AperFunction*%
%TD*%
M02*
