M48
; DRILL file {KiCad 9.0.6+1} date 2026-01-19T09:17:56-0800
; FORMAT={-:-/ absolute / metric / decimal}
; #@! TF.CreationDate,2026-01-19T09:17:56-08:00
; #@! TF.GenerationSoftware,Kicad,Pcbnew,9.0.6+1
; #@! TF.FileFunction,Plated,1,4,PTH
FMAT,2
METRIC
; #@! TA.AperFunction,Plated,PTH,ViaDrill
T1C0.300
; #@! TA.AperFunction,Plated,PTH,ComponentDrill
T2C1.000
%
G90
G05
T1
X74.25Y-90.9
X74.4Y-80.6
X74.9Y-90.3
X75.05Y-81.3
X75.5Y-90.9
X75.65Y-80.6
X76.2Y-90.3
X76.3Y-88.9
X76.35Y-81.3
X76.5Y-83.975
X76.75Y-90.9
X76.9Y-80.6
X77.25Y-83.175
X78.0Y-90.9
X78.3Y-82.35
X79.25Y-90.9
X79.375Y-81.225
X79.4Y-87.65
X79.5Y-85.825
X80.25Y-81.247
X80.425Y-86.5
X80.425Y-87.65
X80.5Y-90.9
X81.75Y-90.9
X82.175Y-83.7
X82.175Y-84.45
X82.2Y-85.825
X82.6Y-86.5
X82.6Y-87.65
X83.0Y-90.9
X84.25Y-83.0
X84.25Y-85.25
X84.25Y-90.9
X84.925Y-86.525
X84.925Y-87.675
X85.35Y-85.25
X86.075Y-87.675
X86.275Y-80.6
X86.5Y-85.25
X86.975Y-79.75
X87.25Y-84.75
X88.25Y-79.75
X89.525Y-79.75
X90.8Y-79.75
X92.05Y-79.75
X93.425Y-79.75
X94.7Y-79.75
T2
X75.0Y-82.935
X75.0Y-85.475
X75.0Y-88.015
M30
