M48
; DRILL file {KiCad 8.0.5-dirty} date 2025-03-26T08:57:06-0700
; FORMAT={-:-/ absolute / inch / decimal}
; #@! TF.CreationDate,2025-03-26T08:57:06-07:00
; #@! TF.GenerationSoftware,Kicad,Pcbnew,8.0.5-dirty
; #@! TF.FileFunction,Plated,1,4,PTH
FMAT,2
INCH
; #@! TA.AperFunction,Plated,PTH,ViaDrill
T1C0.0118
; #@! TA.AperFunction,Plated,PTH,ComponentDrill
T2C0.0394
%
G90
G05
T1
X2.9232Y-3.5748
X2.9272Y-3.1732
X2.9724Y-3.5236
X2.9724Y-3.5748
X2.9764Y-3.1732
X3.0039Y-3.2008
X3.0197Y-3.3169
X3.0217Y-3.5236
X3.0217Y-3.5748
X3.0256Y-3.1732
X3.0709Y-3.2874
X3.0709Y-3.5748
X3.0748Y-3.1732
X3.0748Y-3.3366
X3.1083Y-3.4508
X3.1201Y-3.5748
X3.125Y-3.2874
X3.1299Y-3.1732
X3.1575Y-3.4055
X3.1575Y-3.4508
X3.1693Y-3.5748
X3.1703Y-3.2165
X3.1703Y-3.247
X3.1929Y-3.1732
X3.2185Y-3.5748
X3.2431Y-3.1732
X3.248Y-3.3563
X3.252Y-3.4055
X3.252Y-3.4508
X3.2677Y-3.5748
X3.2923Y-3.1732
X3.2953Y-3.2165
X3.3169Y-3.5748
X3.3376Y-3.2293
X3.3415Y-3.3209
X3.3435Y-3.4065
X3.3435Y-3.4518
X3.3465Y-3.1732
X3.3602Y-3.3563
X3.3888Y-3.4518
X3.3967Y-3.1732
X3.4055Y-3.3563
X3.4222Y-3.3209
X3.5246Y-3.1732
X3.5748Y-3.1732
X3.624Y-3.1732
X3.6781Y-3.1732
X3.7283Y-3.1732
T2
X2.9528Y-3.2652
X2.9528Y-3.3652
X2.9528Y-3.4652
M30
