%TF.GenerationSoftware,KiCad,Pcbnew,8.0.5-dirty*%
%TF.CreationDate,2025-05-16T12:44:24-07:00*%
%TF.ProjectId,yorp,796f7270-2e6b-4696-9361-645f70636258,rev?*%
%TF.SameCoordinates,Original*%
%TF.FileFunction,Drillmap*%
%TF.FilePolarity,Positive*%
%FSLAX45Y45*%
G04 Gerber Fmt 4.5, Leading zero omitted, Abs format (unit mm)*
G04 Created by KiCad (PCBNEW 8.0.5-dirty) date 2025-05-16 12:44:24*
%MOMM*%
%LPD*%
G01*
G04 APERTURE LIST*
%ADD10C,0.050000*%
%ADD11C,0.200000*%
%ADD12C,0.100000*%
G04 APERTURE END LIST*
D10*
X7307500Y-7886500D02*
X9582500Y-7886500D01*
X9582500Y-9180500D01*
X7307500Y-9180500D01*
X7307500Y-7886500D01*
D11*
D12*
X7410000Y-9075000D02*
X7440000Y-9105000D01*
X7440000Y-9075000D02*
X7410000Y-9105000D01*
X7425000Y-8045000D02*
X7455000Y-8075000D01*
X7455000Y-8045000D02*
X7425000Y-8075000D01*
X7475000Y-9015000D02*
X7505000Y-9045000D01*
X7505000Y-9015000D02*
X7475000Y-9045000D01*
X7490000Y-8115000D02*
X7520000Y-8145000D01*
X7520000Y-8115000D02*
X7490000Y-8145000D01*
X7535000Y-9075000D02*
X7565000Y-9105000D01*
X7565000Y-9075000D02*
X7535000Y-9105000D01*
X7550000Y-8045000D02*
X7580000Y-8075000D01*
X7580000Y-8045000D02*
X7550000Y-8075000D01*
X7605000Y-9015000D02*
X7635000Y-9045000D01*
X7635000Y-9015000D02*
X7605000Y-9045000D01*
X7615000Y-8875000D02*
X7645000Y-8905000D01*
X7645000Y-8875000D02*
X7615000Y-8905000D01*
X7620000Y-8115000D02*
X7650000Y-8145000D01*
X7650000Y-8115000D02*
X7620000Y-8145000D01*
X7635000Y-8382500D02*
X7665000Y-8412500D01*
X7665000Y-8382500D02*
X7635000Y-8412500D01*
X7660000Y-9075000D02*
X7690000Y-9105000D01*
X7690000Y-9075000D02*
X7660000Y-9105000D01*
X7675000Y-8045000D02*
X7705000Y-8075000D01*
X7705000Y-8045000D02*
X7675000Y-8075000D01*
X7710000Y-8302500D02*
X7740000Y-8332500D01*
X7740000Y-8302500D02*
X7710000Y-8332500D01*
X7785000Y-9075000D02*
X7815000Y-9105000D01*
X7815000Y-9075000D02*
X7785000Y-9105000D01*
X7815000Y-8220000D02*
X7845000Y-8250000D01*
X7845000Y-8220000D02*
X7815000Y-8250000D01*
X7910000Y-9075000D02*
X7940000Y-9105000D01*
X7940000Y-9075000D02*
X7910000Y-9105000D01*
X7922500Y-8107500D02*
X7952500Y-8137500D01*
X7952500Y-8107500D02*
X7922500Y-8137500D01*
X7925000Y-8750000D02*
X7955000Y-8780000D01*
X7955000Y-8750000D02*
X7925000Y-8780000D01*
X7935000Y-8567500D02*
X7965000Y-8597500D01*
X7965000Y-8567500D02*
X7935000Y-8597500D01*
X8010000Y-8109683D02*
X8040000Y-8139683D01*
X8040000Y-8109683D02*
X8010000Y-8139683D01*
X8027500Y-8635000D02*
X8057500Y-8665000D01*
X8057500Y-8635000D02*
X8027500Y-8665000D01*
X8027500Y-8750000D02*
X8057500Y-8780000D01*
X8057500Y-8750000D02*
X8027500Y-8780000D01*
X8035000Y-9075000D02*
X8065000Y-9105000D01*
X8065000Y-9075000D02*
X8035000Y-9105000D01*
X8160000Y-9075000D02*
X8190000Y-9105000D01*
X8190000Y-9075000D02*
X8160000Y-9105000D01*
X8202500Y-8355000D02*
X8232500Y-8385000D01*
X8232500Y-8355000D02*
X8202500Y-8385000D01*
X8202500Y-8430000D02*
X8232500Y-8460000D01*
X8232500Y-8430000D02*
X8202500Y-8460000D01*
X8205000Y-8567500D02*
X8235000Y-8597500D01*
X8235000Y-8567500D02*
X8205000Y-8597500D01*
X8245000Y-8635000D02*
X8275000Y-8665000D01*
X8275000Y-8635000D02*
X8245000Y-8665000D01*
X8245000Y-8750000D02*
X8275000Y-8780000D01*
X8275000Y-8750000D02*
X8245000Y-8780000D01*
X8285000Y-9075000D02*
X8315000Y-9105000D01*
X8315000Y-9075000D02*
X8285000Y-9105000D01*
X8410000Y-8285000D02*
X8440000Y-8315000D01*
X8440000Y-8285000D02*
X8410000Y-8315000D01*
X8410000Y-8510000D02*
X8440000Y-8540000D01*
X8440000Y-8510000D02*
X8410000Y-8540000D01*
X8410000Y-9075000D02*
X8440000Y-9105000D01*
X8440000Y-9075000D02*
X8410000Y-9105000D01*
X8477500Y-8637500D02*
X8507500Y-8667500D01*
X8507500Y-8637500D02*
X8477500Y-8667500D01*
X8477500Y-8752500D02*
X8507500Y-8782500D01*
X8507500Y-8752500D02*
X8477500Y-8782500D01*
X8520000Y-8510000D02*
X8550000Y-8540000D01*
X8550000Y-8510000D02*
X8520000Y-8540000D01*
X8592500Y-8752500D02*
X8622500Y-8782500D01*
X8622500Y-8752500D02*
X8592500Y-8782500D01*
X8612500Y-8045000D02*
X8642500Y-8075000D01*
X8642500Y-8045000D02*
X8612500Y-8075000D01*
X8635000Y-8510000D02*
X8665000Y-8540000D01*
X8665000Y-8510000D02*
X8635000Y-8540000D01*
X8682500Y-7960000D02*
X8712500Y-7990000D01*
X8712500Y-7960000D02*
X8682500Y-7990000D01*
X8710000Y-8460000D02*
X8740000Y-8490000D01*
X8740000Y-8460000D02*
X8710000Y-8490000D01*
X8810000Y-7960000D02*
X8840000Y-7990000D01*
X8840000Y-7960000D02*
X8810000Y-7990000D01*
X8937500Y-7960000D02*
X8967500Y-7990000D01*
X8967500Y-7960000D02*
X8937500Y-7990000D01*
X9065000Y-7960000D02*
X9095000Y-7990000D01*
X9095000Y-7960000D02*
X9065000Y-7990000D01*
X9190000Y-7960000D02*
X9220000Y-7990000D01*
X9220000Y-7960000D02*
X9190000Y-7990000D01*
X9327500Y-7960000D02*
X9357500Y-7990000D01*
X9357500Y-7960000D02*
X9327500Y-7990000D01*
X9455000Y-7960000D02*
X9485000Y-7990000D01*
X9485000Y-7960000D02*
X9455000Y-7990000D01*
X7550000Y-8293500D02*
G75*
G02*
X7450000Y-8293500I-50000J0D01*
G01*
X7450000Y-8293500D02*
G75*
G02*
X7550000Y-8293500I50000J0D01*
G01*
X7550000Y-8547500D02*
G75*
G02*
X7450000Y-8547500I-50000J0D01*
G01*
X7450000Y-8547500D02*
G75*
G02*
X7550000Y-8547500I50000J0D01*
G01*
X7550000Y-8801500D02*
G75*
G02*
X7450000Y-8801500I-50000J0D01*
G01*
X7450000Y-8801500D02*
G75*
G02*
X7550000Y-8801500I50000J0D01*
G01*
D11*
X7565777Y-9494484D02*
X7565777Y-9294484D01*
X7565777Y-9294484D02*
X7613396Y-9294484D01*
X7613396Y-9294484D02*
X7641967Y-9304008D01*
X7641967Y-9304008D02*
X7661015Y-9323055D01*
X7661015Y-9323055D02*
X7670539Y-9342103D01*
X7670539Y-9342103D02*
X7680062Y-9380198D01*
X7680062Y-9380198D02*
X7680062Y-9408770D01*
X7680062Y-9408770D02*
X7670539Y-9446865D01*
X7670539Y-9446865D02*
X7661015Y-9465912D01*
X7661015Y-9465912D02*
X7641967Y-9484960D01*
X7641967Y-9484960D02*
X7613396Y-9494484D01*
X7613396Y-9494484D02*
X7565777Y-9494484D01*
X7765777Y-9494484D02*
X7765777Y-9361150D01*
X7765777Y-9399246D02*
X7775301Y-9380198D01*
X7775301Y-9380198D02*
X7784824Y-9370674D01*
X7784824Y-9370674D02*
X7803872Y-9361150D01*
X7803872Y-9361150D02*
X7822920Y-9361150D01*
X7889586Y-9494484D02*
X7889586Y-9361150D01*
X7889586Y-9294484D02*
X7880062Y-9304008D01*
X7880062Y-9304008D02*
X7889586Y-9313531D01*
X7889586Y-9313531D02*
X7899110Y-9304008D01*
X7899110Y-9304008D02*
X7889586Y-9294484D01*
X7889586Y-9294484D02*
X7889586Y-9313531D01*
X8013396Y-9494484D02*
X7994348Y-9484960D01*
X7994348Y-9484960D02*
X7984824Y-9465912D01*
X7984824Y-9465912D02*
X7984824Y-9294484D01*
X8118158Y-9494484D02*
X8099110Y-9484960D01*
X8099110Y-9484960D02*
X8089586Y-9465912D01*
X8089586Y-9465912D02*
X8089586Y-9294484D01*
X8346729Y-9494484D02*
X8346729Y-9294484D01*
X8346729Y-9294484D02*
X8413396Y-9437341D01*
X8413396Y-9437341D02*
X8480063Y-9294484D01*
X8480063Y-9294484D02*
X8480063Y-9494484D01*
X8661015Y-9494484D02*
X8661015Y-9389722D01*
X8661015Y-9389722D02*
X8651491Y-9370674D01*
X8651491Y-9370674D02*
X8632444Y-9361150D01*
X8632444Y-9361150D02*
X8594348Y-9361150D01*
X8594348Y-9361150D02*
X8575301Y-9370674D01*
X8661015Y-9484960D02*
X8641967Y-9494484D01*
X8641967Y-9494484D02*
X8594348Y-9494484D01*
X8594348Y-9494484D02*
X8575301Y-9484960D01*
X8575301Y-9484960D02*
X8565777Y-9465912D01*
X8565777Y-9465912D02*
X8565777Y-9446865D01*
X8565777Y-9446865D02*
X8575301Y-9427817D01*
X8575301Y-9427817D02*
X8594348Y-9418293D01*
X8594348Y-9418293D02*
X8641967Y-9418293D01*
X8641967Y-9418293D02*
X8661015Y-9408770D01*
X8756253Y-9361150D02*
X8756253Y-9561150D01*
X8756253Y-9370674D02*
X8775301Y-9361150D01*
X8775301Y-9361150D02*
X8813396Y-9361150D01*
X8813396Y-9361150D02*
X8832444Y-9370674D01*
X8832444Y-9370674D02*
X8841967Y-9380198D01*
X8841967Y-9380198D02*
X8851491Y-9399246D01*
X8851491Y-9399246D02*
X8851491Y-9456389D01*
X8851491Y-9456389D02*
X8841967Y-9475436D01*
X8841967Y-9475436D02*
X8832444Y-9484960D01*
X8832444Y-9484960D02*
X8813396Y-9494484D01*
X8813396Y-9494484D02*
X8775301Y-9494484D01*
X8775301Y-9494484D02*
X8756253Y-9484960D01*
X8937205Y-9475436D02*
X8946729Y-9484960D01*
X8946729Y-9484960D02*
X8937205Y-9494484D01*
X8937205Y-9494484D02*
X8927682Y-9484960D01*
X8927682Y-9484960D02*
X8937205Y-9475436D01*
X8937205Y-9475436D02*
X8937205Y-9494484D01*
X8937205Y-9370674D02*
X8946729Y-9380198D01*
X8946729Y-9380198D02*
X8937205Y-9389722D01*
X8937205Y-9389722D02*
X8927682Y-9380198D01*
X8927682Y-9380198D02*
X8937205Y-9370674D01*
X8937205Y-9370674D02*
X8937205Y-9389722D01*
D12*
X7275000Y-9808000D02*
X7305000Y-9838000D01*
X7305000Y-9808000D02*
X7275000Y-9838000D01*
D11*
X7603872Y-9714484D02*
X7622920Y-9714484D01*
X7622920Y-9714484D02*
X7641967Y-9724008D01*
X7641967Y-9724008D02*
X7651491Y-9733531D01*
X7651491Y-9733531D02*
X7661015Y-9752579D01*
X7661015Y-9752579D02*
X7670539Y-9790674D01*
X7670539Y-9790674D02*
X7670539Y-9838293D01*
X7670539Y-9838293D02*
X7661015Y-9876389D01*
X7661015Y-9876389D02*
X7651491Y-9895436D01*
X7651491Y-9895436D02*
X7641967Y-9904960D01*
X7641967Y-9904960D02*
X7622920Y-9914484D01*
X7622920Y-9914484D02*
X7603872Y-9914484D01*
X7603872Y-9914484D02*
X7584824Y-9904960D01*
X7584824Y-9904960D02*
X7575301Y-9895436D01*
X7575301Y-9895436D02*
X7565777Y-9876389D01*
X7565777Y-9876389D02*
X7556253Y-9838293D01*
X7556253Y-9838293D02*
X7556253Y-9790674D01*
X7556253Y-9790674D02*
X7565777Y-9752579D01*
X7565777Y-9752579D02*
X7575301Y-9733531D01*
X7575301Y-9733531D02*
X7584824Y-9724008D01*
X7584824Y-9724008D02*
X7603872Y-9714484D01*
X7756253Y-9895436D02*
X7765777Y-9904960D01*
X7765777Y-9904960D02*
X7756253Y-9914484D01*
X7756253Y-9914484D02*
X7746729Y-9904960D01*
X7746729Y-9904960D02*
X7756253Y-9895436D01*
X7756253Y-9895436D02*
X7756253Y-9914484D01*
X7832443Y-9714484D02*
X7956253Y-9714484D01*
X7956253Y-9714484D02*
X7889586Y-9790674D01*
X7889586Y-9790674D02*
X7918158Y-9790674D01*
X7918158Y-9790674D02*
X7937205Y-9800198D01*
X7937205Y-9800198D02*
X7946729Y-9809722D01*
X7946729Y-9809722D02*
X7956253Y-9828770D01*
X7956253Y-9828770D02*
X7956253Y-9876389D01*
X7956253Y-9876389D02*
X7946729Y-9895436D01*
X7946729Y-9895436D02*
X7937205Y-9904960D01*
X7937205Y-9904960D02*
X7918158Y-9914484D01*
X7918158Y-9914484D02*
X7861015Y-9914484D01*
X7861015Y-9914484D02*
X7841967Y-9904960D01*
X7841967Y-9904960D02*
X7832443Y-9895436D01*
X8080062Y-9714484D02*
X8099110Y-9714484D01*
X8099110Y-9714484D02*
X8118158Y-9724008D01*
X8118158Y-9724008D02*
X8127682Y-9733531D01*
X8127682Y-9733531D02*
X8137205Y-9752579D01*
X8137205Y-9752579D02*
X8146729Y-9790674D01*
X8146729Y-9790674D02*
X8146729Y-9838293D01*
X8146729Y-9838293D02*
X8137205Y-9876389D01*
X8137205Y-9876389D02*
X8127682Y-9895436D01*
X8127682Y-9895436D02*
X8118158Y-9904960D01*
X8118158Y-9904960D02*
X8099110Y-9914484D01*
X8099110Y-9914484D02*
X8080062Y-9914484D01*
X8080062Y-9914484D02*
X8061015Y-9904960D01*
X8061015Y-9904960D02*
X8051491Y-9895436D01*
X8051491Y-9895436D02*
X8041967Y-9876389D01*
X8041967Y-9876389D02*
X8032443Y-9838293D01*
X8032443Y-9838293D02*
X8032443Y-9790674D01*
X8032443Y-9790674D02*
X8041967Y-9752579D01*
X8041967Y-9752579D02*
X8051491Y-9733531D01*
X8051491Y-9733531D02*
X8061015Y-9724008D01*
X8061015Y-9724008D02*
X8080062Y-9714484D01*
X8270539Y-9714484D02*
X8289586Y-9714484D01*
X8289586Y-9714484D02*
X8308634Y-9724008D01*
X8308634Y-9724008D02*
X8318158Y-9733531D01*
X8318158Y-9733531D02*
X8327682Y-9752579D01*
X8327682Y-9752579D02*
X8337205Y-9790674D01*
X8337205Y-9790674D02*
X8337205Y-9838293D01*
X8337205Y-9838293D02*
X8327682Y-9876389D01*
X8327682Y-9876389D02*
X8318158Y-9895436D01*
X8318158Y-9895436D02*
X8308634Y-9904960D01*
X8308634Y-9904960D02*
X8289586Y-9914484D01*
X8289586Y-9914484D02*
X8270539Y-9914484D01*
X8270539Y-9914484D02*
X8251491Y-9904960D01*
X8251491Y-9904960D02*
X8241967Y-9895436D01*
X8241967Y-9895436D02*
X8232443Y-9876389D01*
X8232443Y-9876389D02*
X8222920Y-9838293D01*
X8222920Y-9838293D02*
X8222920Y-9790674D01*
X8222920Y-9790674D02*
X8232443Y-9752579D01*
X8232443Y-9752579D02*
X8241967Y-9733531D01*
X8241967Y-9733531D02*
X8251491Y-9724008D01*
X8251491Y-9724008D02*
X8270539Y-9714484D01*
X8422920Y-9914484D02*
X8422920Y-9781150D01*
X8422920Y-9800198D02*
X8432444Y-9790674D01*
X8432444Y-9790674D02*
X8451491Y-9781150D01*
X8451491Y-9781150D02*
X8480063Y-9781150D01*
X8480063Y-9781150D02*
X8499110Y-9790674D01*
X8499110Y-9790674D02*
X8508634Y-9809722D01*
X8508634Y-9809722D02*
X8508634Y-9914484D01*
X8508634Y-9809722D02*
X8518158Y-9790674D01*
X8518158Y-9790674D02*
X8537205Y-9781150D01*
X8537205Y-9781150D02*
X8565777Y-9781150D01*
X8565777Y-9781150D02*
X8584825Y-9790674D01*
X8584825Y-9790674D02*
X8594348Y-9809722D01*
X8594348Y-9809722D02*
X8594348Y-9914484D01*
X8689586Y-9914484D02*
X8689586Y-9781150D01*
X8689586Y-9800198D02*
X8699110Y-9790674D01*
X8699110Y-9790674D02*
X8718158Y-9781150D01*
X8718158Y-9781150D02*
X8746729Y-9781150D01*
X8746729Y-9781150D02*
X8765777Y-9790674D01*
X8765777Y-9790674D02*
X8775301Y-9809722D01*
X8775301Y-9809722D02*
X8775301Y-9914484D01*
X8775301Y-9809722D02*
X8784825Y-9790674D01*
X8784825Y-9790674D02*
X8803872Y-9781150D01*
X8803872Y-9781150D02*
X8832444Y-9781150D01*
X8832444Y-9781150D02*
X8851491Y-9790674D01*
X8851491Y-9790674D02*
X8861015Y-9809722D01*
X8861015Y-9809722D02*
X8861015Y-9914484D01*
X9251491Y-9704960D02*
X9080063Y-9962103D01*
X9508634Y-9714484D02*
X9527682Y-9714484D01*
X9527682Y-9714484D02*
X9546729Y-9724008D01*
X9546729Y-9724008D02*
X9556253Y-9733531D01*
X9556253Y-9733531D02*
X9565777Y-9752579D01*
X9565777Y-9752579D02*
X9575301Y-9790674D01*
X9575301Y-9790674D02*
X9575301Y-9838293D01*
X9575301Y-9838293D02*
X9565777Y-9876389D01*
X9565777Y-9876389D02*
X9556253Y-9895436D01*
X9556253Y-9895436D02*
X9546729Y-9904960D01*
X9546729Y-9904960D02*
X9527682Y-9914484D01*
X9527682Y-9914484D02*
X9508634Y-9914484D01*
X9508634Y-9914484D02*
X9489587Y-9904960D01*
X9489587Y-9904960D02*
X9480063Y-9895436D01*
X9480063Y-9895436D02*
X9470539Y-9876389D01*
X9470539Y-9876389D02*
X9461015Y-9838293D01*
X9461015Y-9838293D02*
X9461015Y-9790674D01*
X9461015Y-9790674D02*
X9470539Y-9752579D01*
X9470539Y-9752579D02*
X9480063Y-9733531D01*
X9480063Y-9733531D02*
X9489587Y-9724008D01*
X9489587Y-9724008D02*
X9508634Y-9714484D01*
X9661015Y-9895436D02*
X9670539Y-9904960D01*
X9670539Y-9904960D02*
X9661015Y-9914484D01*
X9661015Y-9914484D02*
X9651491Y-9904960D01*
X9651491Y-9904960D02*
X9661015Y-9895436D01*
X9661015Y-9895436D02*
X9661015Y-9914484D01*
X9794348Y-9714484D02*
X9813396Y-9714484D01*
X9813396Y-9714484D02*
X9832444Y-9724008D01*
X9832444Y-9724008D02*
X9841968Y-9733531D01*
X9841968Y-9733531D02*
X9851491Y-9752579D01*
X9851491Y-9752579D02*
X9861015Y-9790674D01*
X9861015Y-9790674D02*
X9861015Y-9838293D01*
X9861015Y-9838293D02*
X9851491Y-9876389D01*
X9851491Y-9876389D02*
X9841968Y-9895436D01*
X9841968Y-9895436D02*
X9832444Y-9904960D01*
X9832444Y-9904960D02*
X9813396Y-9914484D01*
X9813396Y-9914484D02*
X9794348Y-9914484D01*
X9794348Y-9914484D02*
X9775301Y-9904960D01*
X9775301Y-9904960D02*
X9765777Y-9895436D01*
X9765777Y-9895436D02*
X9756253Y-9876389D01*
X9756253Y-9876389D02*
X9746729Y-9838293D01*
X9746729Y-9838293D02*
X9746729Y-9790674D01*
X9746729Y-9790674D02*
X9756253Y-9752579D01*
X9756253Y-9752579D02*
X9765777Y-9733531D01*
X9765777Y-9733531D02*
X9775301Y-9724008D01*
X9775301Y-9724008D02*
X9794348Y-9714484D01*
X10051491Y-9914484D02*
X9937206Y-9914484D01*
X9994348Y-9914484D02*
X9994348Y-9714484D01*
X9994348Y-9714484D02*
X9975301Y-9743055D01*
X9975301Y-9743055D02*
X9956253Y-9762103D01*
X9956253Y-9762103D02*
X9937206Y-9771627D01*
X10241968Y-9914484D02*
X10127682Y-9914484D01*
X10184825Y-9914484D02*
X10184825Y-9714484D01*
X10184825Y-9714484D02*
X10165777Y-9743055D01*
X10165777Y-9743055D02*
X10146729Y-9762103D01*
X10146729Y-9762103D02*
X10127682Y-9771627D01*
X10356253Y-9800198D02*
X10337206Y-9790674D01*
X10337206Y-9790674D02*
X10327682Y-9781150D01*
X10327682Y-9781150D02*
X10318158Y-9762103D01*
X10318158Y-9762103D02*
X10318158Y-9752579D01*
X10318158Y-9752579D02*
X10327682Y-9733531D01*
X10327682Y-9733531D02*
X10337206Y-9724008D01*
X10337206Y-9724008D02*
X10356253Y-9714484D01*
X10356253Y-9714484D02*
X10394349Y-9714484D01*
X10394349Y-9714484D02*
X10413396Y-9724008D01*
X10413396Y-9724008D02*
X10422920Y-9733531D01*
X10422920Y-9733531D02*
X10432444Y-9752579D01*
X10432444Y-9752579D02*
X10432444Y-9762103D01*
X10432444Y-9762103D02*
X10422920Y-9781150D01*
X10422920Y-9781150D02*
X10413396Y-9790674D01*
X10413396Y-9790674D02*
X10394349Y-9800198D01*
X10394349Y-9800198D02*
X10356253Y-9800198D01*
X10356253Y-9800198D02*
X10337206Y-9809722D01*
X10337206Y-9809722D02*
X10327682Y-9819246D01*
X10327682Y-9819246D02*
X10318158Y-9838293D01*
X10318158Y-9838293D02*
X10318158Y-9876389D01*
X10318158Y-9876389D02*
X10327682Y-9895436D01*
X10327682Y-9895436D02*
X10337206Y-9904960D01*
X10337206Y-9904960D02*
X10356253Y-9914484D01*
X10356253Y-9914484D02*
X10394349Y-9914484D01*
X10394349Y-9914484D02*
X10413396Y-9904960D01*
X10413396Y-9904960D02*
X10422920Y-9895436D01*
X10422920Y-9895436D02*
X10432444Y-9876389D01*
X10432444Y-9876389D02*
X10432444Y-9838293D01*
X10432444Y-9838293D02*
X10422920Y-9819246D01*
X10422920Y-9819246D02*
X10413396Y-9809722D01*
X10413396Y-9809722D02*
X10394349Y-9800198D01*
X10508634Y-9714484D02*
X10508634Y-9752579D01*
X10584825Y-9714484D02*
X10584825Y-9752579D01*
X10880063Y-9990674D02*
X10870539Y-9981150D01*
X10870539Y-9981150D02*
X10851491Y-9952579D01*
X10851491Y-9952579D02*
X10841968Y-9933531D01*
X10841968Y-9933531D02*
X10832444Y-9904960D01*
X10832444Y-9904960D02*
X10822920Y-9857341D01*
X10822920Y-9857341D02*
X10822920Y-9819246D01*
X10822920Y-9819246D02*
X10832444Y-9771627D01*
X10832444Y-9771627D02*
X10841968Y-9743055D01*
X10841968Y-9743055D02*
X10851491Y-9724008D01*
X10851491Y-9724008D02*
X10870539Y-9695436D01*
X10870539Y-9695436D02*
X10880063Y-9685912D01*
X11041968Y-9781150D02*
X11041968Y-9914484D01*
X10994349Y-9704960D02*
X10946730Y-9847817D01*
X10946730Y-9847817D02*
X11070539Y-9847817D01*
X11127682Y-9714484D02*
X11261015Y-9714484D01*
X11261015Y-9714484D02*
X11175301Y-9914484D01*
X11489587Y-9914484D02*
X11489587Y-9714484D01*
X11575301Y-9914484D02*
X11575301Y-9809722D01*
X11575301Y-9809722D02*
X11565777Y-9790674D01*
X11565777Y-9790674D02*
X11546730Y-9781150D01*
X11546730Y-9781150D02*
X11518158Y-9781150D01*
X11518158Y-9781150D02*
X11499110Y-9790674D01*
X11499110Y-9790674D02*
X11489587Y-9800198D01*
X11699110Y-9914484D02*
X11680063Y-9904960D01*
X11680063Y-9904960D02*
X11670539Y-9895436D01*
X11670539Y-9895436D02*
X11661015Y-9876389D01*
X11661015Y-9876389D02*
X11661015Y-9819246D01*
X11661015Y-9819246D02*
X11670539Y-9800198D01*
X11670539Y-9800198D02*
X11680063Y-9790674D01*
X11680063Y-9790674D02*
X11699110Y-9781150D01*
X11699110Y-9781150D02*
X11727682Y-9781150D01*
X11727682Y-9781150D02*
X11746730Y-9790674D01*
X11746730Y-9790674D02*
X11756253Y-9800198D01*
X11756253Y-9800198D02*
X11765777Y-9819246D01*
X11765777Y-9819246D02*
X11765777Y-9876389D01*
X11765777Y-9876389D02*
X11756253Y-9895436D01*
X11756253Y-9895436D02*
X11746730Y-9904960D01*
X11746730Y-9904960D02*
X11727682Y-9914484D01*
X11727682Y-9914484D02*
X11699110Y-9914484D01*
X11880063Y-9914484D02*
X11861015Y-9904960D01*
X11861015Y-9904960D02*
X11851491Y-9885912D01*
X11851491Y-9885912D02*
X11851491Y-9714484D01*
X12032444Y-9904960D02*
X12013396Y-9914484D01*
X12013396Y-9914484D02*
X11975301Y-9914484D01*
X11975301Y-9914484D02*
X11956253Y-9904960D01*
X11956253Y-9904960D02*
X11946730Y-9885912D01*
X11946730Y-9885912D02*
X11946730Y-9809722D01*
X11946730Y-9809722D02*
X11956253Y-9790674D01*
X11956253Y-9790674D02*
X11975301Y-9781150D01*
X11975301Y-9781150D02*
X12013396Y-9781150D01*
X12013396Y-9781150D02*
X12032444Y-9790674D01*
X12032444Y-9790674D02*
X12041968Y-9809722D01*
X12041968Y-9809722D02*
X12041968Y-9828770D01*
X12041968Y-9828770D02*
X11946730Y-9847817D01*
X12118158Y-9904960D02*
X12137206Y-9914484D01*
X12137206Y-9914484D02*
X12175301Y-9914484D01*
X12175301Y-9914484D02*
X12194349Y-9904960D01*
X12194349Y-9904960D02*
X12203872Y-9885912D01*
X12203872Y-9885912D02*
X12203872Y-9876389D01*
X12203872Y-9876389D02*
X12194349Y-9857341D01*
X12194349Y-9857341D02*
X12175301Y-9847817D01*
X12175301Y-9847817D02*
X12146730Y-9847817D01*
X12146730Y-9847817D02*
X12127682Y-9838293D01*
X12127682Y-9838293D02*
X12118158Y-9819246D01*
X12118158Y-9819246D02*
X12118158Y-9809722D01*
X12118158Y-9809722D02*
X12127682Y-9790674D01*
X12127682Y-9790674D02*
X12146730Y-9781150D01*
X12146730Y-9781150D02*
X12175301Y-9781150D01*
X12175301Y-9781150D02*
X12194349Y-9790674D01*
X12270539Y-9990674D02*
X12280063Y-9981150D01*
X12280063Y-9981150D02*
X12299111Y-9952579D01*
X12299111Y-9952579D02*
X12308634Y-9933531D01*
X12308634Y-9933531D02*
X12318158Y-9904960D01*
X12318158Y-9904960D02*
X12327682Y-9857341D01*
X12327682Y-9857341D02*
X12327682Y-9819246D01*
X12327682Y-9819246D02*
X12318158Y-9771627D01*
X12318158Y-9771627D02*
X12308634Y-9743055D01*
X12308634Y-9743055D02*
X12299111Y-9724008D01*
X12299111Y-9724008D02*
X12280063Y-9695436D01*
X12280063Y-9695436D02*
X12270539Y-9685912D01*
D12*
X7305000Y-10087000D02*
G75*
G02*
X7205000Y-10087000I-50000J0D01*
G01*
X7205000Y-10087000D02*
G75*
G02*
X7305000Y-10087000I50000J0D01*
G01*
D11*
X7670539Y-10178484D02*
X7556253Y-10178484D01*
X7613396Y-10178484D02*
X7613396Y-9978484D01*
X7613396Y-9978484D02*
X7594348Y-10007055D01*
X7594348Y-10007055D02*
X7575301Y-10026103D01*
X7575301Y-10026103D02*
X7556253Y-10035627D01*
X7756253Y-10159436D02*
X7765777Y-10168960D01*
X7765777Y-10168960D02*
X7756253Y-10178484D01*
X7756253Y-10178484D02*
X7746729Y-10168960D01*
X7746729Y-10168960D02*
X7756253Y-10159436D01*
X7756253Y-10159436D02*
X7756253Y-10178484D01*
X7889586Y-9978484D02*
X7908634Y-9978484D01*
X7908634Y-9978484D02*
X7927682Y-9988008D01*
X7927682Y-9988008D02*
X7937205Y-9997531D01*
X7937205Y-9997531D02*
X7946729Y-10016579D01*
X7946729Y-10016579D02*
X7956253Y-10054674D01*
X7956253Y-10054674D02*
X7956253Y-10102293D01*
X7956253Y-10102293D02*
X7946729Y-10140389D01*
X7946729Y-10140389D02*
X7937205Y-10159436D01*
X7937205Y-10159436D02*
X7927682Y-10168960D01*
X7927682Y-10168960D02*
X7908634Y-10178484D01*
X7908634Y-10178484D02*
X7889586Y-10178484D01*
X7889586Y-10178484D02*
X7870539Y-10168960D01*
X7870539Y-10168960D02*
X7861015Y-10159436D01*
X7861015Y-10159436D02*
X7851491Y-10140389D01*
X7851491Y-10140389D02*
X7841967Y-10102293D01*
X7841967Y-10102293D02*
X7841967Y-10054674D01*
X7841967Y-10054674D02*
X7851491Y-10016579D01*
X7851491Y-10016579D02*
X7861015Y-9997531D01*
X7861015Y-9997531D02*
X7870539Y-9988008D01*
X7870539Y-9988008D02*
X7889586Y-9978484D01*
X8080062Y-9978484D02*
X8099110Y-9978484D01*
X8099110Y-9978484D02*
X8118158Y-9988008D01*
X8118158Y-9988008D02*
X8127682Y-9997531D01*
X8127682Y-9997531D02*
X8137205Y-10016579D01*
X8137205Y-10016579D02*
X8146729Y-10054674D01*
X8146729Y-10054674D02*
X8146729Y-10102293D01*
X8146729Y-10102293D02*
X8137205Y-10140389D01*
X8137205Y-10140389D02*
X8127682Y-10159436D01*
X8127682Y-10159436D02*
X8118158Y-10168960D01*
X8118158Y-10168960D02*
X8099110Y-10178484D01*
X8099110Y-10178484D02*
X8080062Y-10178484D01*
X8080062Y-10178484D02*
X8061015Y-10168960D01*
X8061015Y-10168960D02*
X8051491Y-10159436D01*
X8051491Y-10159436D02*
X8041967Y-10140389D01*
X8041967Y-10140389D02*
X8032443Y-10102293D01*
X8032443Y-10102293D02*
X8032443Y-10054674D01*
X8032443Y-10054674D02*
X8041967Y-10016579D01*
X8041967Y-10016579D02*
X8051491Y-9997531D01*
X8051491Y-9997531D02*
X8061015Y-9988008D01*
X8061015Y-9988008D02*
X8080062Y-9978484D01*
X8270539Y-9978484D02*
X8289586Y-9978484D01*
X8289586Y-9978484D02*
X8308634Y-9988008D01*
X8308634Y-9988008D02*
X8318158Y-9997531D01*
X8318158Y-9997531D02*
X8327682Y-10016579D01*
X8327682Y-10016579D02*
X8337205Y-10054674D01*
X8337205Y-10054674D02*
X8337205Y-10102293D01*
X8337205Y-10102293D02*
X8327682Y-10140389D01*
X8327682Y-10140389D02*
X8318158Y-10159436D01*
X8318158Y-10159436D02*
X8308634Y-10168960D01*
X8308634Y-10168960D02*
X8289586Y-10178484D01*
X8289586Y-10178484D02*
X8270539Y-10178484D01*
X8270539Y-10178484D02*
X8251491Y-10168960D01*
X8251491Y-10168960D02*
X8241967Y-10159436D01*
X8241967Y-10159436D02*
X8232443Y-10140389D01*
X8232443Y-10140389D02*
X8222920Y-10102293D01*
X8222920Y-10102293D02*
X8222920Y-10054674D01*
X8222920Y-10054674D02*
X8232443Y-10016579D01*
X8232443Y-10016579D02*
X8241967Y-9997531D01*
X8241967Y-9997531D02*
X8251491Y-9988008D01*
X8251491Y-9988008D02*
X8270539Y-9978484D01*
X8422920Y-10178484D02*
X8422920Y-10045150D01*
X8422920Y-10064198D02*
X8432444Y-10054674D01*
X8432444Y-10054674D02*
X8451491Y-10045150D01*
X8451491Y-10045150D02*
X8480063Y-10045150D01*
X8480063Y-10045150D02*
X8499110Y-10054674D01*
X8499110Y-10054674D02*
X8508634Y-10073722D01*
X8508634Y-10073722D02*
X8508634Y-10178484D01*
X8508634Y-10073722D02*
X8518158Y-10054674D01*
X8518158Y-10054674D02*
X8537205Y-10045150D01*
X8537205Y-10045150D02*
X8565777Y-10045150D01*
X8565777Y-10045150D02*
X8584825Y-10054674D01*
X8584825Y-10054674D02*
X8594348Y-10073722D01*
X8594348Y-10073722D02*
X8594348Y-10178484D01*
X8689586Y-10178484D02*
X8689586Y-10045150D01*
X8689586Y-10064198D02*
X8699110Y-10054674D01*
X8699110Y-10054674D02*
X8718158Y-10045150D01*
X8718158Y-10045150D02*
X8746729Y-10045150D01*
X8746729Y-10045150D02*
X8765777Y-10054674D01*
X8765777Y-10054674D02*
X8775301Y-10073722D01*
X8775301Y-10073722D02*
X8775301Y-10178484D01*
X8775301Y-10073722D02*
X8784825Y-10054674D01*
X8784825Y-10054674D02*
X8803872Y-10045150D01*
X8803872Y-10045150D02*
X8832444Y-10045150D01*
X8832444Y-10045150D02*
X8851491Y-10054674D01*
X8851491Y-10054674D02*
X8861015Y-10073722D01*
X8861015Y-10073722D02*
X8861015Y-10178484D01*
X9251491Y-9968960D02*
X9080063Y-10226103D01*
X9508634Y-9978484D02*
X9527682Y-9978484D01*
X9527682Y-9978484D02*
X9546729Y-9988008D01*
X9546729Y-9988008D02*
X9556253Y-9997531D01*
X9556253Y-9997531D02*
X9565777Y-10016579D01*
X9565777Y-10016579D02*
X9575301Y-10054674D01*
X9575301Y-10054674D02*
X9575301Y-10102293D01*
X9575301Y-10102293D02*
X9565777Y-10140389D01*
X9565777Y-10140389D02*
X9556253Y-10159436D01*
X9556253Y-10159436D02*
X9546729Y-10168960D01*
X9546729Y-10168960D02*
X9527682Y-10178484D01*
X9527682Y-10178484D02*
X9508634Y-10178484D01*
X9508634Y-10178484D02*
X9489587Y-10168960D01*
X9489587Y-10168960D02*
X9480063Y-10159436D01*
X9480063Y-10159436D02*
X9470539Y-10140389D01*
X9470539Y-10140389D02*
X9461015Y-10102293D01*
X9461015Y-10102293D02*
X9461015Y-10054674D01*
X9461015Y-10054674D02*
X9470539Y-10016579D01*
X9470539Y-10016579D02*
X9480063Y-9997531D01*
X9480063Y-9997531D02*
X9489587Y-9988008D01*
X9489587Y-9988008D02*
X9508634Y-9978484D01*
X9661015Y-10159436D02*
X9670539Y-10168960D01*
X9670539Y-10168960D02*
X9661015Y-10178484D01*
X9661015Y-10178484D02*
X9651491Y-10168960D01*
X9651491Y-10168960D02*
X9661015Y-10159436D01*
X9661015Y-10159436D02*
X9661015Y-10178484D01*
X9794348Y-9978484D02*
X9813396Y-9978484D01*
X9813396Y-9978484D02*
X9832444Y-9988008D01*
X9832444Y-9988008D02*
X9841968Y-9997531D01*
X9841968Y-9997531D02*
X9851491Y-10016579D01*
X9851491Y-10016579D02*
X9861015Y-10054674D01*
X9861015Y-10054674D02*
X9861015Y-10102293D01*
X9861015Y-10102293D02*
X9851491Y-10140389D01*
X9851491Y-10140389D02*
X9841968Y-10159436D01*
X9841968Y-10159436D02*
X9832444Y-10168960D01*
X9832444Y-10168960D02*
X9813396Y-10178484D01*
X9813396Y-10178484D02*
X9794348Y-10178484D01*
X9794348Y-10178484D02*
X9775301Y-10168960D01*
X9775301Y-10168960D02*
X9765777Y-10159436D01*
X9765777Y-10159436D02*
X9756253Y-10140389D01*
X9756253Y-10140389D02*
X9746729Y-10102293D01*
X9746729Y-10102293D02*
X9746729Y-10054674D01*
X9746729Y-10054674D02*
X9756253Y-10016579D01*
X9756253Y-10016579D02*
X9765777Y-9997531D01*
X9765777Y-9997531D02*
X9775301Y-9988008D01*
X9775301Y-9988008D02*
X9794348Y-9978484D01*
X9927682Y-9978484D02*
X10051491Y-9978484D01*
X10051491Y-9978484D02*
X9984825Y-10054674D01*
X9984825Y-10054674D02*
X10013396Y-10054674D01*
X10013396Y-10054674D02*
X10032444Y-10064198D01*
X10032444Y-10064198D02*
X10041968Y-10073722D01*
X10041968Y-10073722D02*
X10051491Y-10092770D01*
X10051491Y-10092770D02*
X10051491Y-10140389D01*
X10051491Y-10140389D02*
X10041968Y-10159436D01*
X10041968Y-10159436D02*
X10032444Y-10168960D01*
X10032444Y-10168960D02*
X10013396Y-10178484D01*
X10013396Y-10178484D02*
X9956253Y-10178484D01*
X9956253Y-10178484D02*
X9937206Y-10168960D01*
X9937206Y-10168960D02*
X9927682Y-10159436D01*
X10146729Y-10178484D02*
X10184825Y-10178484D01*
X10184825Y-10178484D02*
X10203872Y-10168960D01*
X10203872Y-10168960D02*
X10213396Y-10159436D01*
X10213396Y-10159436D02*
X10232444Y-10130865D01*
X10232444Y-10130865D02*
X10241968Y-10092770D01*
X10241968Y-10092770D02*
X10241968Y-10016579D01*
X10241968Y-10016579D02*
X10232444Y-9997531D01*
X10232444Y-9997531D02*
X10222920Y-9988008D01*
X10222920Y-9988008D02*
X10203872Y-9978484D01*
X10203872Y-9978484D02*
X10165777Y-9978484D01*
X10165777Y-9978484D02*
X10146729Y-9988008D01*
X10146729Y-9988008D02*
X10137206Y-9997531D01*
X10137206Y-9997531D02*
X10127682Y-10016579D01*
X10127682Y-10016579D02*
X10127682Y-10064198D01*
X10127682Y-10064198D02*
X10137206Y-10083246D01*
X10137206Y-10083246D02*
X10146729Y-10092770D01*
X10146729Y-10092770D02*
X10165777Y-10102293D01*
X10165777Y-10102293D02*
X10203872Y-10102293D01*
X10203872Y-10102293D02*
X10222920Y-10092770D01*
X10222920Y-10092770D02*
X10232444Y-10083246D01*
X10232444Y-10083246D02*
X10241968Y-10064198D01*
X10413396Y-10045150D02*
X10413396Y-10178484D01*
X10365777Y-9968960D02*
X10318158Y-10111817D01*
X10318158Y-10111817D02*
X10441968Y-10111817D01*
X10508634Y-9978484D02*
X10508634Y-10016579D01*
X10584825Y-9978484D02*
X10584825Y-10016579D01*
X10880063Y-10254674D02*
X10870539Y-10245150D01*
X10870539Y-10245150D02*
X10851491Y-10216579D01*
X10851491Y-10216579D02*
X10841968Y-10197531D01*
X10841968Y-10197531D02*
X10832444Y-10168960D01*
X10832444Y-10168960D02*
X10822920Y-10121341D01*
X10822920Y-10121341D02*
X10822920Y-10083246D01*
X10822920Y-10083246D02*
X10832444Y-10035627D01*
X10832444Y-10035627D02*
X10841968Y-10007055D01*
X10841968Y-10007055D02*
X10851491Y-9988008D01*
X10851491Y-9988008D02*
X10870539Y-9959436D01*
X10870539Y-9959436D02*
X10880063Y-9949912D01*
X10937206Y-9978484D02*
X11061015Y-9978484D01*
X11061015Y-9978484D02*
X10994349Y-10054674D01*
X10994349Y-10054674D02*
X11022920Y-10054674D01*
X11022920Y-10054674D02*
X11041968Y-10064198D01*
X11041968Y-10064198D02*
X11051491Y-10073722D01*
X11051491Y-10073722D02*
X11061015Y-10092770D01*
X11061015Y-10092770D02*
X11061015Y-10140389D01*
X11061015Y-10140389D02*
X11051491Y-10159436D01*
X11051491Y-10159436D02*
X11041968Y-10168960D01*
X11041968Y-10168960D02*
X11022920Y-10178484D01*
X11022920Y-10178484D02*
X10965777Y-10178484D01*
X10965777Y-10178484D02*
X10946730Y-10168960D01*
X10946730Y-10168960D02*
X10937206Y-10159436D01*
X11299110Y-10178484D02*
X11299110Y-9978484D01*
X11384825Y-10178484D02*
X11384825Y-10073722D01*
X11384825Y-10073722D02*
X11375301Y-10054674D01*
X11375301Y-10054674D02*
X11356253Y-10045150D01*
X11356253Y-10045150D02*
X11327682Y-10045150D01*
X11327682Y-10045150D02*
X11308634Y-10054674D01*
X11308634Y-10054674D02*
X11299110Y-10064198D01*
X11508634Y-10178484D02*
X11489587Y-10168960D01*
X11489587Y-10168960D02*
X11480063Y-10159436D01*
X11480063Y-10159436D02*
X11470539Y-10140389D01*
X11470539Y-10140389D02*
X11470539Y-10083246D01*
X11470539Y-10083246D02*
X11480063Y-10064198D01*
X11480063Y-10064198D02*
X11489587Y-10054674D01*
X11489587Y-10054674D02*
X11508634Y-10045150D01*
X11508634Y-10045150D02*
X11537206Y-10045150D01*
X11537206Y-10045150D02*
X11556253Y-10054674D01*
X11556253Y-10054674D02*
X11565777Y-10064198D01*
X11565777Y-10064198D02*
X11575301Y-10083246D01*
X11575301Y-10083246D02*
X11575301Y-10140389D01*
X11575301Y-10140389D02*
X11565777Y-10159436D01*
X11565777Y-10159436D02*
X11556253Y-10168960D01*
X11556253Y-10168960D02*
X11537206Y-10178484D01*
X11537206Y-10178484D02*
X11508634Y-10178484D01*
X11689587Y-10178484D02*
X11670539Y-10168960D01*
X11670539Y-10168960D02*
X11661015Y-10149912D01*
X11661015Y-10149912D02*
X11661015Y-9978484D01*
X11841968Y-10168960D02*
X11822920Y-10178484D01*
X11822920Y-10178484D02*
X11784825Y-10178484D01*
X11784825Y-10178484D02*
X11765777Y-10168960D01*
X11765777Y-10168960D02*
X11756253Y-10149912D01*
X11756253Y-10149912D02*
X11756253Y-10073722D01*
X11756253Y-10073722D02*
X11765777Y-10054674D01*
X11765777Y-10054674D02*
X11784825Y-10045150D01*
X11784825Y-10045150D02*
X11822920Y-10045150D01*
X11822920Y-10045150D02*
X11841968Y-10054674D01*
X11841968Y-10054674D02*
X11851491Y-10073722D01*
X11851491Y-10073722D02*
X11851491Y-10092770D01*
X11851491Y-10092770D02*
X11756253Y-10111817D01*
X11927682Y-10168960D02*
X11946730Y-10178484D01*
X11946730Y-10178484D02*
X11984825Y-10178484D01*
X11984825Y-10178484D02*
X12003872Y-10168960D01*
X12003872Y-10168960D02*
X12013396Y-10149912D01*
X12013396Y-10149912D02*
X12013396Y-10140389D01*
X12013396Y-10140389D02*
X12003872Y-10121341D01*
X12003872Y-10121341D02*
X11984825Y-10111817D01*
X11984825Y-10111817D02*
X11956253Y-10111817D01*
X11956253Y-10111817D02*
X11937206Y-10102293D01*
X11937206Y-10102293D02*
X11927682Y-10083246D01*
X11927682Y-10083246D02*
X11927682Y-10073722D01*
X11927682Y-10073722D02*
X11937206Y-10054674D01*
X11937206Y-10054674D02*
X11956253Y-10045150D01*
X11956253Y-10045150D02*
X11984825Y-10045150D01*
X11984825Y-10045150D02*
X12003872Y-10054674D01*
X12080063Y-10254674D02*
X12089587Y-10245150D01*
X12089587Y-10245150D02*
X12108634Y-10216579D01*
X12108634Y-10216579D02*
X12118158Y-10197531D01*
X12118158Y-10197531D02*
X12127682Y-10168960D01*
X12127682Y-10168960D02*
X12137206Y-10121341D01*
X12137206Y-10121341D02*
X12137206Y-10083246D01*
X12137206Y-10083246D02*
X12127682Y-10035627D01*
X12127682Y-10035627D02*
X12118158Y-10007055D01*
X12118158Y-10007055D02*
X12108634Y-9988008D01*
X12108634Y-9988008D02*
X12089587Y-9959436D01*
X12089587Y-9959436D02*
X12080063Y-9949912D01*
M02*
